<mxfile host="app.diagrams.net" modified="2023-08-16T11:22:42.289Z" agent="5.0 (Windows NT 10.0; Win64; x64) AppleWebKit/537.36 (KHTML, like Gecko) Chrome/115.0.0.0 Safari/537.36" etag="STwS9TeeoNi3WY1aku79" version="21.0.6" type="github">
  <diagram name="Страница 1" id="6Qw2g6OjpLgElVA_3M0Y">
    <mxGraphModel dx="1062" dy="500" grid="1" gridSize="10" guides="1" tooltips="1" connect="1" arrows="1" fold="1" page="1" pageScale="1" pageWidth="827" pageHeight="1169" math="0" shadow="0">
      <root>
        <mxCell id="0" />
        <mxCell id="1" parent="0" />
        <mxCell id="j9wAFBM-4F8-QUCNC5Rh-1" value="&lt;b&gt;&lt;font style=&quot;font-size: 18px;&quot;&gt;Sale of Coupons&lt;/font&gt;&lt;/b&gt;" style="text;html=1;strokeColor=none;fillColor=none;align=center;verticalAlign=middle;whiteSpace=wrap;rounded=0;" parent="1" vertex="1">
          <mxGeometry x="339" width="150" height="50" as="geometry" />
        </mxCell>
        <mxCell id="j9wAFBM-4F8-QUCNC5Rh-3" value="" style="rounded=1;whiteSpace=wrap;html=1;" parent="1" vertex="1">
          <mxGeometry x="228.01" y="240" width="370" height="60" as="geometry" />
        </mxCell>
        <mxCell id="j9wAFBM-4F8-QUCNC5Rh-4" value="&lt;font style=&quot;font-size: 14px;&quot;&gt;GateWayApp&lt;/font&gt;" style="text;html=1;strokeColor=none;fillColor=none;align=center;verticalAlign=middle;whiteSpace=wrap;rounded=0;" parent="1" vertex="1">
          <mxGeometry x="369" y="257.5" width="90" height="25" as="geometry" />
        </mxCell>
        <mxCell id="j9wAFBM-4F8-QUCNC5Rh-5" value="" style="rounded=1;whiteSpace=wrap;html=1;" parent="1" vertex="1">
          <mxGeometry x="40" y="360" width="200" height="200" as="geometry" />
        </mxCell>
        <mxCell id="j9wAFBM-4F8-QUCNC5Rh-6" value="" style="rounded=1;whiteSpace=wrap;html=1;" parent="1" vertex="1">
          <mxGeometry x="314" y="360" width="200" height="200" as="geometry" />
        </mxCell>
        <mxCell id="j9wAFBM-4F8-QUCNC5Rh-7" value="" style="rounded=1;whiteSpace=wrap;html=1;" parent="1" vertex="1">
          <mxGeometry x="580" y="360" width="200" height="200" as="geometry" />
        </mxCell>
        <mxCell id="j9wAFBM-4F8-QUCNC5Rh-8" value="" style="shape=image;verticalLabelPosition=bottom;labelBackgroundColor=default;verticalAlign=top;aspect=fixed;imageAspect=0;image=data:image/png,iVBORw0KGgoAAAANSUhEUgAAAJkAAACuCAYAAAAlI6+vAAAAAXNSR0IArs4c6QAAAARnQU1BAACxjwv8YQUAAAAJcEhZcwAADsMAAA7DAcdvqGQAACNbSURBVHhe7Z0JdBzVlfdv793aV0u2JMurvNuSjTds8AIkYfFAAmccAgkBhwzJ5BCSTGb5yDZnzizJIXNmCckEZjJnALMlJA5gwBtLbOMdG6+yLMmyJNuyLNnapZa6pe/+X1dJpVZVqbu1uLu6fj5ldb/a6/3rvnvve1Vtqa+v7/N4PORwOKivr49MTEYDi8VCfr+f2tvbyep2u8lut5sCMxlVoCer1Uoul4ssXV1d/N0UmMnYAItmNQVmMpYIiyZ9NpHw+ry0r+Yj6ZvJaGCKLIgefw99WL2NrrZdlUpMRoopsiBavS10obmK3it/TyoxGSmmyIKoai4jGzurO6s/oLrWOqnUZCSYIlPQ0N5AH1W/T/4+H7V2N9H7VbukOSYjwRSZRLe/m/Zf/IiqW8rIypast9dPe2v3U21LrbSESaSYImMgsN3VO2lX1dtSCZHDZmXBVdHuC7tFMGASOXEvsmvt1+j10/9Hb5W9Rl5/p1RKZLdY2Zr10dsV71JNS41UahIJcS0y+GCvnvlf2lf7PnX3eqXSAEhRWyw2utpxlV449kKg0CQi4lZk1zsb6dXT/0Of1H3MgtLu9XCTnT6s3U2vnHjFbDYjJC5FVtd6kX5z7Bd0pO4AOW0OqXQwSGNY/b3CpKVYE+iVM7+ld8+9R509A02qSWjEnchq2Jn/zfFn6fjVTzmKdFCvRt+tw2aRPgXo7emhzac2087KXaZFC5O4Ehks2IsnnqNz186R3RqwYKGOD8CF6vC20/8c/1/66LzZtxkOcSOylq5m+l3pS3S2sZQtWGSnbWFB+tii/cP+f6ajNUfJ1+uT5pjoERcia+1qpd+deYUOXt7fb8Fkelk44Qx3svKyydZE+um+f6ED1fvJ5zeFNhyGFxn8p/fKt9CH1bvIYXVKpQOwax82EFpHTwdtPvkSnb56ioUayVbiB8OLbGfldnq36k22YIMd+dGgqrmGfnn4v7gpbpFKTNQwrMj62LqcqP+UtlX+QTj3GAasRXeEhsjOl6+yuYp+9MGPTaHpYFiRIZu/pfQ1qu9sFH7XcPiDFkIneSggWVt6vYye2fNz0UVlMhTDiuwPZa/R6cazZCEbR4HDq8wXtIg9RJEBCO3o1WP0+pnfUZu3TSo1kTGkyHZV7KQ/1exggUVOT2+YbWivn/e7nQ5dPGAGAkEYSmRIRZxvPE+vl/6GPzsH+WFen1/6pI0ylRFCCzsIC/9r83XQyydfoyutV6RSE2AokcH5fvPcG9Ta3S2VDADRaHUhyfgUBihUn0yJg5vmC03n6VcccTZ3NkulJoYRGbLvhy/tpxMNnwRS8yoEO/fBQGOyEMPxyZS4bW46eOkA/f7MG2Yfp4RhRNbe3U7bzm+j9h6vaLoiZRhjFxJOi4PertxGR2tZ8CbGEBkc7R0Vb1N16zmpRB2MGxuNJ+axCc2JzSGm7s4O2nJ2C11pucLlPCOOMYTIKq9X0lvlb/Gnod1GStBaDueXYZlgUfQLSJqEg6c1KTjbWCaeEYj3jvSYFxmayZdPbCZvb2AwoajrIJEoQc5Mb74y+SBEhQKxUcUUIl0+L22t2Er17fEdbca8yE7Wf0ql10v5kz1QMAyhaCTSbqZgrOwbNrQ10IufvCSVxCcxLbKWzhb6Q9nbHMWFNyQ6DGM0cnhnWyq20ImLJ6SC+CNmRQZn/2jdUZGXCh6EKFo4nSaxG2P3x5FsVzb9+uiv47YTPWZF1uXrokN1h6mlp1UqGcz4ymgYWO81LdW0u2o3+XuH73kwGjErsrq2OpH0dFlD88WCCaWbaTTx8f4+uPABXe+4LpXEDzEpMjSV75a9Q609baJ/UmuUxXDpCj0iX1MdNOk1TdXcxH8Sd9YsJkWGVzp9WPMRJdhdUkn4QER6Igx7FEYINHtbaPeFPXE3HCgmRfZ+1U5q87UHEqMS/ghEod+XaREP+I4mDouDjtefpJP1p6SS+CDmRIa0xXtVu8hjG5zdV9MLivSiTD/P0xIa5BXJSIzh8Pm76d3T70jf4oOYEhkEc/jyYWoWqYCAAHQ0JBhOaIElxg9Ln4WOXj1Kpy+flkqMT0yJDO+hOHrlGDc7UkEQamIaXwmFRo/PR78/9fu4eWYzpkQGh7+ssVxEl2ot2UiiyfHE5XDS8SsnqLq5WioxNjEjMgir4no5NXTUcUM5WGGytuBe6TeNQ+nhlcJdZzTo6eumwxcPSd+MTcyIDKNMy5sqqau3W+TGoAs1a6aml+HizrGUGASsNnn9XjrIIrvebvzkbMyIDP7Y6frjQ/opR4PR7MsUIoJ1lKbAmO6hk6XXQnVNddxkXuACYxMzIqtprqVK9mHsVv1Dhl+Gig5mNP01pYiCJyEi7EqeNIA1buxqoNMNpw0fAMSMyM7Un6EeGtwdA93ITaasIa161alvgVpfJrYpLJN/8DRIRMFTGKB3qfTyWdHZb2RiRmQ7qraRx+YKOPeK2lQzUFp9mWoWblhgmcYIh81OJ6+epBavsYcAxYTI8AzjueZK6dtQ1AIANfQkhnk3IgVy3Xudjl08Kn0zJjEhstNXTpO/b6A50zBUg6za6Pdljg0ui4s+rvmYfD7j+mUxIbJjdccozZ0qfQsNNb2gKKImcwyxWW10uOYIXe80bioj6kUmkrAt5Xyg2oeq1M1w1kxPYoEO8zF0wjTo4eiyrLFM+mY8ol5k8Mcqms9L3wZQOv/hErI148XGw/DBmu2p3MsCN+ZgxqgXGX6lLRSLNBrO/43CaXeId8/iGVIjEvUiu9R0STRjwaCoV0Myw1kfvQbxRvRlYnct3laqbjJmh3lUiwyVXdd1mewWm1QSBFeO3GyiooKtGZx//NJbNIDj05pAt89L5Q3l/F0qMBBRLbKe3h663HFF/JKuGqFUB0QYbsWpWc5QkEWjNg2HzWaji60XxW9vGo2oFllXTxc1dTWziZIK1BimArUMmV7iNZR3zIJwhaSHz++nKy31bNFMkY0rreyntHSpP7wro6xbVHRwX6YW4WpCKSZ5Gk1gcTt62qnTZ7xfoYtqkXl7vdTd262biccc2S8Ll5C6kXiR0RaUFk2dTWIyGtEtMnaG5Xd76QpCMQuLBVuzUJu/cQWHpJyYjp5O4SIYjagVGZx1PAQrNx96OtGZ1Y9Wrm1cojmxo6ApCDzFhAAHI2aNRvSKjP91+jr4Q1//mH6tZlO9dDBaIg1l3bDABoOnEMAgxm5fDzVzoIOuNCMR1ZYMCcrOng5RAcOhTMwqjZPy84j6JWXBDDeNAKQvkPU3Wq4sqn0yWLNQe/OC6yUEXfYzbKWOY50jNxhpIBOtRLXIMDphNNDTkNassXjhynBgzJy3x2tasvECIxKudzWRTzFYEZdeL8rU6suMhBsxShbiwlNZpsjGEeEAq1xwvUqQmxosEtxkwvlX68uMJjfbaE0liGqRqaGbygihflCJaiI1mvWIJmJOZOGgZc1MxpeoFplD432wePRRi1AMkloPgLEyU9FF1IrMarVSkjOZ7DovHoZzruagq/k1oYgvuMnsfyrcZERErciQ5cewZC0gLrwJMfhtiMGSgG7kRYYT2o2WE5LOTrwHN4wcXywQvSLjC+6yO8mpYclGGgDc0L5MDWwWGyU6EsbkpTI3kqg+G7fVJcQWbs4qlKW1RHrjJMb75oOyWxz9fbVGIXp9Mr6b090Z5LZ7+Jt61euNMwulLzPa0hYuh4uS3InixjISUW3JElwJ5Ha4pW9DgURCFYpavWlZyP5tYp1xqm/sEz5oqjvVbC7HEw9bMY9NW2RAS2LQiVb2XNYQDGGwSAd9w5fBs8cMHKvNYieXLfIfwIhWolpkqa5USgnzHRhKQtFHkMZuGOiiTXYmUaIzUSoxDlEtMjSVEzzZw/oomk2mohiLhOrqjGZiFsemObEp7fUFJpDkSmahJYvPRiKqRYZEbFH6DOmbOjq+v9AYV2XgiwaYjwoPRqwbpj8mC2fQxBZKc1KoGRFlmidN+KFGI+o9zILUAvFCEj30hKZERUshr6uk18/WR2WShaOcQgU3VGHaZPI4EE0bi6gXWV5yHleAvsj0dAIRcfVL38JoMlmRFmk1uUnrb9pQrjaNgD5rL2V7Jgx7Q8UiUS+yzMRMmpdeJCpdD7Umr5+gWRCacnG9R+bCsUYjwWF3UEFmvvTNWES9yEBJ9hLq8On/RiS3VmGjFJquSMeBFHb6J3NzaURiQmTLCpdR7wheEKeUj5aWbuQDwD7qoZlpRYZMX4CYEFleSh5NSSmQvoVPsHxusNEaQmd3F60tWmNIfwzEhMjQzfJnM+4jb6/+G2/035mhPk+vyRTftDc5aiS6E2hW1izpm/GICZGB4knFlGBzcwAQmSceilYGBRf80TeKv7mkBX7ypoTPLd2TLpUYj5gRWU7iBJqTMUs8m6gFJKLlwAcXh5rKGGvw1qJVBavIbtceARzrxIzIEpwJtDRvGdkt+pWhLrEAw71jVuTUFGpExn7MwKZ5ykjIoCWFSwJlBiVmRIaM+LzMOTQhITviJlOpMWhJzZppGMLwkUSkOTF4NdbiiSViIICRiRmRgYK0ApqXPVf6pg5Eotlkikl9ngzmh5UzC2x06BQCbqebFhUs0h0zZwRiSmRJriS6tWC1eJJJixDrdwiyrvpbSDWxyGXKKUJgjfNT8ml+7jzDpi5kYkpkYGHOQlqQPlv6po5e9l9ppPA5pABghIJSA6MuCjMKKS81TyoxLjEnMo/TQ/fM3ECd/g6pRJ1Qm0w1ocnZf51AdsRgjNztRevJhUfgDE7MiQwsLVhKK3JuIp/OO+91+zI15mnoctTBj/bPnziPivOKpRJjE5Miw93/xXkPUoJ4kil8QolNfWP8frKNxRvjwoqBmBQZKMoqols4CMDrPrUYyY+kjlWyHy9aXjF5BZXkx4cVAzErMoT9awvXUrYnK6K8WbBfJjOWTSb8ROTEvrT0i4aPKJXErMjA7OzZtCJvhfQtPIK1NB7dTOgSWzPjFpqaMVUqiQ9iWmToavr8rHspSyNjDiHpJVa1ErNYxaq9WkTA2uYkT6DbZt5Gbruxk6/BxLTIQGF6IT266DFq0xg5q6UVCElPR/L4/tECzymsyl9O83LnifRFPBHzIkOFrZ++nj6Xf7t4PbkamtZMCC0wD4so6z6srqVhgBVzuT30wOKNZLcZd7SFFjEvMplHFj9C01MKhwwF0gsw9WTU6xu9S4Ofsvm7Nd+n7JRsqSS+MIzIcpJy6M/nbeToLTmiaDOYZBodvwm/X/mFBZ+npYXLpJL4wzAiQ0pgBfs86wpupd6gdKte9h+WLrjJxGTvHbnfhMw+8nkPljwolcQnhhEZwNPXX5r/EBUkF5Bf+gnDSLDwqunWkb8uINuTTo8seYiykjKlkvjEUCIDKZ4Uevrmv6E0bjbl38oEug8HK2bJi6U6EgetHwl3zd9AJVOWxF00GYzhRAaQ7Pz+yu9Tuju1PxDQCwCUjSuaTrfTQ0m+yPsV0XV024z1dO+8P4ub/kk9DCkysCh3EX2Fm063zdVvxUJ5/Sf+x+AOB9nEkO9wgcAW55bQN2/5BqUkpEil8Y1hRQaBrJvK1mTm3exkhRdtJnXbKD0hTQwsDAc4+lOSJtFf3f5d0RthEsCwIgMIBL4w6366o3D9oF+bU0PpsmW7U9iOWdn5D++1ARNTcukba5+k3JSJUokJMLTIQGpCKm0q3kTrJq8RT6CH0peZ4HeS3WKlLHvoIsN7LDYt30QlecWGe7HwSImLq5HqSaUnFj9Ot+av0h1/BomhgUz2u4QlS7KENiiyrbuNvrfuu7R6+ipy2p1SqYlM3NxyeFXmN5Y8QcvzV1K3369q0VBk9VsoMyFdJHfTXEl8gfT9Mliwn234Ka2csiKiQCEeiCu7npWYRd9a8k1anrcskOlXEVoiefiiBC5LtiOV0m2JqsvByc9NyaFvrf5LWjr5JqnURI24cx5yk3PpO0ufpLumfZb6envJp3jvGT6nWtxkly5LmjOFJroy+Ntga4Y0RX7iBHri5ifo5qkrTQs2DHEnMgAf7ZFFX6GH5n9J/GiW3KFus1rJ43eQRXrtNZz/4rQi8ih+wAECm5c7l/7xvp/STQVLTB8sBOJSZCCR/a0vzL2fHl/4GDltbvKz0GCxcthy4cdc0RXkcnpoElus9dkLqcfnFet9tugO+tk9/yIeyo2ncfojwdLZ2TnU4YgzPiz/kDaXvkJNrY201jGf8mwZQmQJHnb82bo5XR46115Nnpx8unv2XWYmP0xMkUmUNZTRruNbKaWxmxLtHrZi7JvZHeRwusTfgvwZlF+40LReERC3zWUwMzNn0mem3Cbe5gggLBkILmfiLFNgEWKKTALNY3paFiUnpfYPzbHZ7EJsSclp5HabfZGRYopMQWJiOgsqg9xBv2+UlWXM9+uPF6bIFNjtTrZYA7+ca2MrBmvmHsHPIZqYIhsEIsmUlAwWlk0IDX+RO3M4B/wzk/AxRaZApC0Sk1lsNnJ7EoUV80jfTSLHFFkQCQlpg0SFLiO5+TSJDFNkQTgcHhZV4LLgaW+n02WKbISYIgsCzr/LnSD5ZOblGQ3MqxiE8MsSAiJDjkyZlDWJDFNkQQQsmJPcrkDm32I6/SPGFFkQSFu4hMBYbNx0Wk3Hf8SYItMAukIKw2TkmCJTITkpMJTH4XCSkyeTkWGKTAN0KZmMDqbIVEhOmUg5eTPJ40k2Hf9RwBy0qAHG/fdJD5mYzv/IMEVmMuaYzaXJmGNasijk+vXr5PV6ObodGnz4fD7qVfzuE/J6breb/UcPN+tW8V2Lrq4uam9vl77p43Q6xTZH47fRTZFFGRDR8WPHqMvbpe4H9vWJ1ynIYBELxMVTQkIi5RcUUErqwBByGTwFf/nyJbpQVSWV6GPl9ZHCmZCTQxMnTdIV73CYIotCYMVaW1vpav0VutbY2P+ahIzMLMrJzRWfUdbR0UHNzc3U0d5GPd0DP8uYnZNL06ZNG2IJ/X6/sGTNzU1UzWKTt5s1IYeyswOvf8c26+vq2Op19s/H9oqKiiIOfkyRRTGtrS10rqyMRdQuxrhNnT6dJk4c+u4zCPLypYt07do18vUEfjAjLT2DpvHy6OxX48ihg8R1Lz4vLC6mlJSBIeawpheqztMVFpvcNC8sLuFlInve1HT8oxiMawvFeiQnJ9OMmUVUUDCZ7JL1amq6TrU11dStsHChAj9scmEhJfF2ZSDgSDFFFsWIZwwkXwha0xvfBqcfvtOECRMCwuSmrrGhgVpamqUlwgOW0+MZsILtbC0jJWKRwYwqIx2037hrEMH0SCZbycD8TtX5esCXkNeFv4L9hgL2GXyM2DeOERO2GyrYhnx+OIbgdbFtTFoo18ffUPfd/95aFs5wHfYQWjb7V7Ivhn1ca+QmNMTrFYz85kmQkZUlfQqfkH0yuYLa2trYFDfRxdqLwhdYfctqMb+0tJROnTzF81vZH0inFStW0vTp08SJN3FIXnbuHJ08cZJaW1ooPTOTFpeUUNGsIhEqa4EKuXjxIp05c4Zqamqps6NdRFDwS2bNniWc2+D1UZnwYYSfUneFysvL+ViW0yS+y8vYvzl29Bhf+AZe0sLbmE3LeZ6er4HtXbx4ic6eLaXzlef5+JvJxaF9ITcn06ZNZ8uRTS6XSzjT7e0dNGvWLGnNAPB7ampq2Lc6R9XVF4RAE5OSaSI78DOLZtLUqVM1rwHWLedjxrZt3IQVzZpNmXzthqOMj7X+yhXxOSExkeYvWDhkH3o+GcC80tOnRKCQnJxC8xYsiDidEbLIUOFvvPEGHT50RBwAhJafN4nuf+B+euutrVRRWcFiauK7p5dPyCEu3tf/4nEhshdfeJEqKipFJITKdTjslMsX+ctf+TKtXbtGLBNMC4vxt6//lg4cOCiWTUlOpAa+K0+fLuXlLSIaWr9+LW3YsKHfd4CF2Lp1Kx08cEiIvbm5ReScvve971BV1QXavmMHR2xXxQ2DCwZx3fGZO+jhhx8SOaFgcM47d+6iP/7xj5SZkUnTZ0wXFb77T3vEMWfx3Z2ekSYGOF67dp0WLlpIX//649LaRFevXhXnsGfPXhbkVEpPSxXncJSFjtwWBHPPhnvorrvuFEINJlKR1dfXU1npGfEZx7moZDElstiUKEVWNHuOOB4ZGBNEmPDrMvkc8/ILhqwfDrYf/OAHP5E+64KDTU5OorOlZ+ncuXJxIA0cXh9i0a1Zs4oefPBBuv3227hSr1EjX0iI8OOP93HF7qQ5c2bTn2/cSGvX3ErtbAnr+C7DCaISikuKheOqBNv+yY9/Qrt37xHbfGzTo7Rq1SpatXo1FXNF7tu3j7ffTMeOfSqip9lskXB88EV6uYko5WM8cuSIsEIo37dvP9Wy5d1w9910221reTkrW5VqsTysb8niEiFkJWhqtm/fTs/9+nmakD2BfvTjH9JNN91ES5cupeLiRXzD/UE0Qw0NjVTHFhPCffSxRykjI0OsD0v6b//2H7Rj+w7auPEBnvcYrbx5pTiPpUtvEsLDTbd//37Km5jDAp4p1lMCq9fQcFWkJ3AeqHCtaFEJlkW0CXBcOTk5Q0SM+XIz2sx11cB10XC1PjCxL9fe3ib8wYSkJL6ZssU2IyVkkaFC0jksXrV6lbgwENGEnAn09A+eZouyXlgWnMziJYvp4MFD4iLj7vjud5+ijV/cSJMnTxYRyxq2XKdOnRIC83q7RP6loKBAbB+gcn/5y1/RRx/9iS3DAnrs0UfFxUXUhAuVy03lwgXz6b33tglrVFVVRbdwk53EFwPbQPJw3fp1ZOULhKYRFxn7/Pm/PkMLFi7gKGwmrVu3jhx2B3366adCiAlsxZYuWyr2LwNL+vzz/03VF6rpyW8/STN5PVx07BPniVQB1kfT/Ytn/5Me/vLD/QLDPl966SV6849vsbBW0KZNm4TVxPMCOAesv4hvFlhJbO8AX69169YOudlgmZEnC1dkOKdLF2ulb8Q30ERdkWWyiJL4+BISk8Qxyv4i5sMo1HJzj9HC8rMP4RK2POFUehICTUsORzKTJg3O26SzP4ZKRVMjlnXjEbOBA0PZw19+SLT1XV1eusp3DS6KDCzM3r17hWimTplKqWlp0pwBZrF5v/vuO0UlXLlST0cOH5HmDDB37hxR2aicW2+9RSod4Da2kHl5eWI+mq9g0MzC78SN4nYPbcpmzy4SokNmHs2yElifbe9tF5Z//vz5g5oiGfh0t99xu6hIXKu9ez+W5gyA6xZJpQYznBVCVDp9+nQxzZk7l25auoxm819ce3n/lRXlwjDgmoZL5DZQh7xJueJugHiUApJBmN3JkaIaaI69LD6cDKxjcNZaZjU3nVgG/t0ZDjq0gBDUHGsIJ5V9JFRAwFccTGdnIPrEhLs5GIfTLc4NI2dTUgZboHJ2J5BXcvE+stiHktMQSnBMszlIwDKwMqdPne63LDI4tkheV4VmVgbXz87XSJ+hwklNTaNp02f0W1dchwb29eDKhMuYiEztzlUiTLJPPYSHZcPdgwpE5WjdyWg65CZSdmDVwEVpYj9RDT0rkZqaIiw2Kmk/Bx/B1NRUiws/c+aMIU1YBUehOHb8aASaebX9QECZWZnC0uMzhBGJlVADgYIMItlIXrOAY8Z5JXPUKR+/t9srXJxwGRORjQTc1bjo8FUa2R8JvrtlsAysgNwk6tHLEW+4pHFTsZDDdlzgnRy87Ni2TfiZnR0d3ERfoVdefpV9yXy68847h4gsmcWPmwTNIFIJWuegzOirnQNE7PNL6/J5hiJC7BcpIwFvG9EormUk4Njc7K/KT9TjGJRGD8cjW3s9ok5kORxM+Hv54nLFIEeGDls1xAnyMjjBKRxUBNM3wp+IhnDuvfdejozniPD93//zWfqnf/wnjhj/nX74wx/RlMLJ9BdPPCGiY1koMhMlPxXHhkhaS2R4xTvAfAhWyzUAqN9QmipEhm18MwAEG0q/KhIQrfPexWdYZbnbCmLGTQc/DcYA+0SZGmMiMjj0kYL8mov9FYiokpudCxcuSHMGA8e8tbVNRD3Fi0uk0gE6VPyocEDFzJ03l77D0TFSF6lcYQgUCqcU0kMPPURP//BpWrlyhaoFQsSckZEu5h0+dFhEqmog+EEziQBm+fLlUmnkoKIv1dYIccN6TZ5cOMTKhgNEg2PEX1wP+GlylIpjxnmhnmAIunu6RaJejTERWau0M/glak6vHqjIkpIScdfCed6+fYeqNdu/b7/wxVavWklTpkyRSgfoVtz1MPmRgPzR1rffpsNHDtPChQvp8a8/Ths3bhTRamamdjdLamoq3bpmjagI3OXPP/ff0pwBMA+9JJj/uc99jubNnyfNUaeXrbtsodRA8vlc2VlR0bjmc+cvUI3MZZRWEXnNYCCeq+zoN3KkDGAV8/Lz+28q1AkE7GWXAG4BegwgRjVrFnKeDDvFxmBZtr79jqhg9KXN4rs2iUN1mHocOE4SGfGzZ8+KA5o2farIC8lNAeYfPXKE9uzdx2V2SuV1p8+YIe48LIN15i+Yz872Ab6obRw6VwrRFnLzhBNA5Lln95/o/154UYTcm762aVAiFZYB6+16/wOqqKgQZcjnYVncjdgP7k40K/C1hJ/F5wJLgogPx4DlYA3eeeddennzq2IAH/yw85WVdKG6mmpreaquEVFpF+8Px4x15WYJf6ewxUPEiHwiuraa+a6fODFXLItjRK7xxRc200y+fk899aQIYmTka40EKTq5ZdBdhv5bZP+7hRPuFekTpH3OV5SL9VLT02n2nLn9QZESnBPOFcKWxQMwHs3H89AB7/V2i+1Wcz1fZKuIbWAQ5IJFxf0CA3KwhXwkyoXgeD21noGQu5WwgTfffJPe3/WBaKrQeYroCXftsuXL6KtffYQ++eQTev211wNNHE6QT9rJ5hUZ87/+m7/iZtBFmze/LJK1yC8BhOi4S+7ZcDfdc889ogzUcCW++uprdPz4cSGItPS0QNKW/+EioSm77777RHeNEmT3X3n5FZGklR1eiBnr3v/AA6KJe/bZZ+noJ8f6h6/AJ8LFWc7n8cgjX6F0KamKPtPnnnte9FlC4Kh4/EVlyjcFQvypU6eIhPOiRYvEegDLlZ0toy1btvB2SkVXD7qh8tn3ElaCBVRcXEyf//x9wnorBYEb8eTxT8VneX9qiJaCjwNNGCoZSVXUh1IMMtgGhFXJN568TfwNBusK34u3iyxBNtddBgcPwduEHnADoTsONxv+4hqqdc+FLDJUBKwT7hynZJUA7mTkiZB0vHTpMvtRFXyAjv5lenw9rPouWrbsJnFRzpaWifZb+ZuQML2T8ibRDLZoMrgIsDKwRrW1tXyBGkU5Mv6o1Hw23Wp3DawGrB+GJCuBkz1t+jSxD2TaETTgLpTBBUfuDP6XvF2c81G+cZ555ufC98vPzxPluAaN1xqpvS0wXh4WApb27//+J6LHQQbngKE2lZVVVHX+vKgMK1uLnJxc0QOCddR8JogZ3Tqgr1c7qsS2IAa8Q02OyrXANmB9Ojsl14M3qSYyizUw7Bp1BeuslmME2B5aLlwjbEcWpRoxMTIWlYgJdztOXu9iyhcuuKmQKwrrYlvB28B8TCiX18XoiWd+9gxlZGXSt771l8JyAewDzcqxY8eE1YRFxHF9m5u9tWvXimWCkSsjlHMwGjFxpvJdJftsemC+LBTlJJcDbE9tvlwOkD75u7/9f+RlB/2pp74t8k1o1jEhh4ZUy2c/+xn65je/IdZFygTOvBYBixPaORiN+DrbMHj99d+KMWwLOOpzS2G7Grm5OUJAaK4QXJgMxRSZBohQExI8VMERZRtHdWqg+YNTD0cdKQsEFyZDMUWmwc2rVormr6zsHP3Xr35NdXV10pwA8Ovgk8HiYXTto49+VdNJjndiwvG/ESCX9otfPEt79+wV0R7yTkg5wBfjyyZyU0hxYGTv1x7/mmqUaBLAFJkOSD+gx+HggYPUweF/V2cgT+bxuMUATAzWXLBAfbyYyQAWvks5cjd1pgdGNaDXodvbLcZmJSYmUEbG0ASlyVBE9N7Q0NCnltQ0MRkN4HZY0ZOOLgITk9EmMFKjhf4/zWAohU94QasAAAAASUVORK5CYII=;" parent="1" vertex="1">
          <mxGeometry x="112" y="480" width="61.56" height="70" as="geometry" />
        </mxCell>
        <mxCell id="j9wAFBM-4F8-QUCNC5Rh-9" value="" style="shape=image;verticalLabelPosition=bottom;labelBackgroundColor=default;verticalAlign=top;aspect=fixed;imageAspect=0;image=data:image/png,iVBORw0KGgoAAAANSUhEUgAAAJQAAACgCAYAAADq10VvAAAAAXNSR0IArs4c6QAAAARnQU1BAACxjwv8YQUAAAAJcEhZcwAADsMAAA7DAcdvqGQAADpbSURBVHhe7Z0HfFRV9sePkN4raZRA6C10kaIoICAqigWxI5bd1cW17n9F18ba6+qKva+sHSkiKL1K772FEkIoCemF8r/fM3lxGANMkpkkhvl9Pg+Sycyb99793dPuOeeek5+ff0I88KACOOecc8TX17fkNxvqlPzvgQflxokTv5dFHkJ54FJ4COWBS+EhlAcuhYdQHrgUHkJ54FJ4COWBS+EhlAcuhYdQHrgUHkJ54FJ4CFUFIKJcVlS5NsKzlucCWIQpLCyU7OxsycjIkNzcXCkqKtLXjh49KnXq1NGjbt26EhQUpEdYWJgEBweLj4+Prov9EeHn51fykw01llDHjx/XgWBQLHh5eelipCsfPt+Tk5OjRCgoKJDi4mJ9nYH39/fXIyQkRLy9vfV1CxAI4uzYsUPWrl0rK1eulE2bNulrnMci0rFjx/Q7ANcNqbgHDs6dkJAgPXr0kPbt20vz5s0lPj5e3/NHQY0iFIPCw+bhHzlyRDZv3qyDsnHjRtm7d68ONIRiYIA1q3noHElJSdK0aVN9jb8x0yECA1IW6fg+CGPuWdavXy8LFy6UZcuWyfbt25UIkIrrycvLk9DQUCURAx4REaHfde6550qrVq0kPT1dJk+eLAsWLJANGzacRPrKoH79+tKnTx8ZPny4dOrUSaUX91OTUSMIxcBmZmbqoC5atEgWL14sS5culdTU1JJ3lA+NGzeWFi1aSKNGjaRNmzY60xs0aCBxcXGlEu3QoUP6PdOnT1ciIFEqAkhmL3UsIMUgNSTgQPrw3byf7+eeOSBzVlaWkpZJxKThsAcTo0uXLnLllVfK+eefr/fGuWoiqp1QqAMG9j//+Y8O6r59+0rVjCMYCCQFF81MxS7h4VsSqywEBASoxIqJiVHpdeGFF+rgfvDBB7JlyxY5cODA78iARIOAHJDBGjwGHSKmpaXpdTp+DolywQUXSLNmzSQxMVGlGdcbGBio1wwxUNP2hEIacw8Q6/Dhw6oyt27dKqtWrdLJZU8urptJMmTIEBkxYoT+XNNQrYRCAt13330yYcKEkld+Q3h4uM7KDh06SNeuXXWQUDUQhIEBEAlSMbMZ5J07d+pAoLJQlwwO0sMZoFL69+8v5513nv4MCS2j2QLnggQQie+EkEwCiHDRRRep3QN5ylKv5QXfsWvXLvnf//4n33zzjaxbt67kLzagal999VUlcE1CtRAKCTR37lx55JFHlACAmYtEwDbBZoBEqCjURnnBbEeSQDAMZGyjbdu2yf79++XgwYMqFUFkZKT07dtXbrnlFmnXrp3+7mgAHy+RJFAEojhDFt5/JCdfjuQWSpY5CoqKJSuvUHLzi+SYIcqxYyfE26uu+HjXldBAPwn085HgAB8JC/aTAF8ffd3+Ovbs2SMTJ06U77//Xu8H+87C6NGjVVphQ7qCyJVFlROKWf7ll1/KU089JSkpKfoaZOKhXHvttdKxY0ed5fY4euy4HM7OMwNSLHn5hVJUjM1yQurWOUeCg8yA+HubQfGVAD9v89rJhGBwMZKRYEisFStWqN0E6UaOHCkDBgxQyWc/GKkHs+TA4WzznfmSV2AIUXhM/+7nazw9M+ARwf4SERooUWGB5veTvT3Ata3cnCqfT1shC7akip/57NGjx/Q+zAUJD9j6Psjj4+0lYYZY9cKDpFFsmLRpFCVtmsRJQ/OzdT9ILO5h5syZ8u9//1tWr16tr6MGL7vsMhkzZoxOyOpGlRKKh8Is++tf/1o6y1q3bi3PPPOMejP28Ze8giJZsWmvLN6wWxas3S27D2VLniESBGFEdFA4zPv5SIghU3RIgHRuFistGtaTVo1jJD4qWMLNaxb4LIRGQvIztpGl0g5k5sic5Ttk4oINsn73ISk2g1/XnJdzozUZV34+ajhx1BCmjiFzXKi/dGoeL306NJZOLetLlCEZ0O8x78nMyZPvZ62T9yYthUeGHPpnGzgZLzrAfExOmD8hoS5o10CG9+sg7ZvGlV4nzxBTgQn52Wef6Wu8F5tt/PjxahpUJ6qUUNgbd9xxh4ptHhC2ygsvvCDdu3fXvxebWZyekSPzVqXIL8u2ypptaVJgRtDbDJ4OBoNwCiAVjCZRdYLkCvTzkvjIIGneINrM9lhp1ShaGsWESaiRLhaQdHsPHJHpy7fJtEWbZMf+I/o6n3cGkOZoyffFRwZL7/YN5fwOSdK0foSEBfmbe7QxaNHaXfLhlGWydvt+JbS9NDwlDNmKzLmD/X3koo6N5fLebcxEiVYpDPAM33vvPXn99dfVsQDYf2+88YbaV46qu6pQZYTCbrnzzjvl66+/1t9x599//301ZLl5JNJ0Q6L/TV8jm3YdVOlzJhKdEmYwuAlmu5nQagfFRgTKc3cNkORm8fqWIkPeSfPW6/dt3Zeh0shZIjnCkprF5gt9fbykU7M4GdStqSFXEwkxxALpGdnyw7wN8tGPy4z6O64SzhnYpJ1xUox9NaRnSxnap52RvCElfxX5/PPP5cknn1Q7i0mKYzF27FiJjY0teUfVwpFQdR999NEnSn52Kb744gt55ZVXVGQTo/noo4/Ui4NMSKa3v19kVMMyOWhUD4OrD7wiZALmc0iBOubgXH5mkO+8rJtc0LGJIU0dyTXkff6zWfLh1BWSbYzn0u+rIGxqFylqzoFKMjbYnNUpsspIpMZx4RJjbKNAf19pZyRls/qRsmrbPsnOK3LqO233gTQ9aj63X6Yt3SrtEutJdHig3h/SCIN8ypQpqsqxE/FALROiqoE9bA+3EIrZc//996tRyRf+/e9/l+uvv14fFpLp0ynL5ZOfVsgJMxi8Zv4p+aQLYM7Vt0uS3DqosxrQR3IK5J0ffpWvjG3jgwh0w/cpwcyPqQeyZcaybeJnjO760aGqrjC0G5tjnSEbXiCkOCNKrpH/8oynuHTjHmlQL9QcYeZ51lVSRUdHy7x581QT4HgQE8Ok0OdZhXA7oRDZeHXjxo1T6dS5c2d5+umnNWCIZBo3bZW8PWFJxdXbaYBdlRgbIQ8M6y1xRk3gaX0+baV8MX21eCOW3AwkEPe4eMMeDSMkJURJqPFKIUKzhAhZDakMwcsz6Lw3K9c4LFv3GckXaLzCcLXVkpOTS4PE2GnE4oYOHVqhsEtl4Egol1tyeHPTpk1TcczNDRs2TGcTWLc9TcbNWuMWMgFsmtsv7SyNzeCBmcb4/nTqcpthVUWAAEjeCfM3yr2vTZStew/pa3iFL/1loEorjPvyoK6ZDAcycuXR96fLnJXbSl6rq1If2xSwlGWFFqoTLicUwUUWeAFEwhNhPSsnv9A85A2SlZ1frhnqLPD2Lj23qVzUOUnVyq79mfLM57OlqMiQyQ3fd1qY7+Mrt6dlyOh3psr6nen4DUa6RMi91/ZUI1sN+3IA6WeoKm9++6ts0PMZx8MY4oRhACsIrlyorihcTihuynJrW7ZsqZFwsNu46PPWpJjZW74H6Qx4uCFBvjKkd1uduTnG7vjcSKbsvGKd3dUFH686ssN4lK/8b65KKkjRpWUDue2STnqd5SUVSD2UJTNWbFcpR5ATu4n/Cdyi9k63zlkVcDmhELvETEDPnj1LdTqR5ENHsB/0V5eCcWnbOEY9KrA5JV1mrdop3l7VRyYLeGwrt6bJm1/PNwQv1Ej5oO4t5NaBHSW3yLl1R3tgJ67ekmokEZOlbmkmAnYUaTWnWmivKricUAQxrZlHAJObzi8slplmVimZ3MAoP+PNXdghUYICfNXdnrVqh6rWGgFzv15GSs5bt1vGfDJD1/dYerlzyLlyfruGShCdEeXA3oPZkm/uE9OhXr16pYaxfe5YdcGlhGKWQChAGoe11nQ4K1827TloM8bdgHphgdK+WYIhbx3JMERaumGvBjlrEvAy565OkUnGWC8ssg36zQM6SXR4+bwyJB73mGPUObBPwmMiV0SNuhIuHWI8DcQuIHeH2QM270437nKhxmpcjaKjx3WZhTgNWL5pr81ecceXVQJIk+Nmwn01c7Vs2m2zMTuWrAuyhFQe6Pok4XQD+/VQ/neHw1MeuJRQBDQtsHhpheU34ZXwgxtulrW1Xu0aaXoIs/OXJVt0Mdcd31VpmGvati9TPv9phTGqj+uyzbC+7SUsyDwnZyUL92V3b3jQ1joeP1vSqrrgUkJZxjiwzy7cY3R+RdfNTgszCGFBPpppAPZn5MiqHelVEsSsKPyMo7Bw/W6ZssgWWiGEcEO/ZCk86iShzD3jLVrPkwxQAsig1hGKTEYLlv1ETtAhNxnIpJa0ahgtkaG2lJXNKQckI6t8kegqh7k2bKjXvl5gbMs8Y7DXkaF92krD6GCbge4EWNrxMRIZYIgjmSETac+OkeuqhsttKAuk9AK8roKCYvFyg4QiFtOhaZxmQDJLl2/GGHdyplcjkDD7M/Jk9rJtet0hgX5yac9Wtj+e4frhXJC/r/j72ghF/IlzYEuxaFyrCEVWgQX7le/C4vLHW5wBtlKzBlH6c7ERVxt2HRKfM6k7Bqw6SGe+U3O4OIzdx0L1xMVb5MCRXP1z9zYNNYPTmSuLCgsQXyOlAFqB2BMSipWJ6sqLsuC2b3d7PMQMkJ9XHWlaQqjs/EJjq2XJOXaSkAEsNrYJhrsFuFRsVCWDWhXE4ho4AgN8dR0vOSlGzm1dX3q0bSC+5voPZtgIlRAdIg1jbVL9TCBMYjkhrJ0ioYiWk3FQqwjFLLFgGYruREigj0SWpPwyMNkFRUoSQgkZecWapDaoW5I8NKyXvHzPJXqMuaO/jBzUUXO58w2z3Bm3yS86JgmRwXLv1T3krfuvkHcevlLevG+IvHTPYHnp7kvkFfN/y0a20EqwIVzT+HCnQiv169kqdAgfUBCLhIJQlHHVqrABM8SCtQTg7V1X/Hy9XC4MzKSXKEMmy9uhqIEvqV8vXG66OFm+fOwamfD8LTLmroEyrH+y9GyXqEf/bs3lL1f1kC8ev84M6CBpHB+hBHTlBbJeGRzoK6OGdpPPn7hObhjQUVo0jJKw4ACN6pMASMiAfC0rbRi7inx48stPB5ZumETwhmfM2ilpLIRoqitr0x4uJRRlUBaoMQNeZiZFGkmhsSEXI9gYs2QWIGXCzWA9fF0veW3UYLl7aA/p0Dxe7QziPXmFxZqflHY4S44YjxMVxMBc2DFJnrlzgHRsFmfeV3LSSgIykcc+auh5cvPAzuow2HLZs2T+6h3y1S+r5ONJS+WzKcvkmxlrZNXmVL0eUGjMhDMJdh9DxPr1QvS+yTAg9sf9UxZW1blQZcGlhCIyTokSsEqmEMEk9LvD+yKh3xLxJPQPPq+ledihShawadcB+XDSEnnk7Z/kljFfy13Pj5dRr0+U1/43W3anH1Gp0MRIqAeHny9R4QGlA1sZFBrbrG+HROnbpamRzl66jvnF1BVy45iv5M+vTZaXv5ovL36zUF77dpH889NZMm7WWlu5lQFkPFO8LizQX2NX3DdeNSoPUHhaE8IlLiUUN8RMAeREWQWWlp3gSsBP1ArfyQE58KCoavnyl9Uy7PFxMuTRL+T1736VBet2GaM3VLq2StB879lr98hfX/lBlm3Yo0RvEhcuvds3dsrDOi3MuYoMOS4/v40ElEimpz6aLlOXbpUnbrlQZr82Uma+cbt89n9XGnXtJ37GI42LDFISQea8fGMmnGbi8Z5Y8/7okrgbZGLiYj9ZlUTVDZcSCtCoAtALgKpdUD8mXLxdvDJsm4y/zcis3AIZN22lPDj2JzP758v2vYcl1M9LAoy0ap1YT43xB6+/QJ4Y2U/euu8yGdKrtfy4aJPklKSUdGkRLwFlFHGWBziOzWNDNfUXrNqSKlMWb5X2TWKka+sGxkbyVzWcb2yf3IJiJVK4kThMCFKHCQCfjtSYDa2NLYYdBrCf6IVA8UdNsJ+AywlFQh0xKMrArW4q9Y1LTOzElR4Vp7LOh8qYsWyrvG3U27bdB+WE+Z3EOpv0EjmQkWMGr44aw0gOpFUXM8C70jLk4JFcfR+52uR/VwaEJ1o0jCxVub+uSzEEOaEJcR9PXqp1h19PXy0vfjFPCo0HSJQ8KhRCGVVZdNRGqNM8omJz/mRj7xEyAGvWrFFPr1evXpp1UBPgFkKRukLYwDIYA4ytY8ulLnmTi4BKMbTSAcH+IJcb1acvlACypGXkyahXf5CFa1LUOCYj4fUv58p6Q760Q7ZuJ9FhgXqcdkTPAAzl6DCbYUwd4KHsAvOAKTIokHcnL5cbnv5anv58juw9mKWEx/ulQJRrzDeEyjXvs7v0k2GuKzTAW21F3k8vhzlz5mj4gJY/vFYT4HJCETqgkwmggwiEQsy3bBBVeRvFDjw/SrIMj8yQnaPhiVM9VBaL16YclMc++FnuNrbTg2/9qDVvxYaQ21Nt649IrkbGoK9MUB9phAoFqLMwY+Nxz1yXn3cdo1LrSrBRw5bhHeTnq80zAJ+DeKcCVcUUlEaE2MrfqcqmDVCTJk001bqmwOWEoqOJVeVCYy/WmkCi8ab06VZCAjgiz9ghEBYekQV5ullK1iSDtu9Qlta6ISGQmFt22fK3fA0h6Y1wrJISateBbP0ZFUv5VKGRVKcCKjjQSG9AIWgBWZj6mwPMNdU15776wnaqJsGkSZP0f7rW1IRwgQWXE4qwgWUgYpRbhnnjuAgJ8nftwqU1WBCJgoAzwrxPScdhYMbcSKiMElKeowSwXPiKwHBUtu87LHmFtsoTkv5OR3J/o/L8fGz2EEtHNhX+eyCFG8eFSYemtrJ6bNNffvlFTQvUnWM5eHXC5YTChSV0QF4OJdKWYU4rHCLbPBxXQIWd7ccKA83D+p+VkktxaGFlDD1zvr3GXtuVZmvC0bJxjDSMDFTClgVMAVQ1oFz+VPV6vIwxHmKcBs5FmjX2KZOXgs/qzjCwh8sJhZFIFzrW9WiCSpwEAz3QuLoNnFz8dBZ0abHH6aRBWeDdmblFksMaoEFoSaOLioLv9zMe2Oote3XgWZ8jm7QsjjoGUf19vJXgv4M5j4+xv7q3sSUsklBHMzL+J4nRKlOrKXA5oQBNVCntoUclrQpZc/I1hCKA6O2ManICPHt7AiEEyskn/QA2E13nAF3lIERlagf9zeAvNl4ktYGguyFUkL+37QLtgDeaX1QsRSWlVLb6wbJvgD4JPDuACUH8CcJeccUVJ6UM1QS4hVAkelGTRzYhEXP+x8ZpmhChyxGuAt4SQ8DDJWm/Iss7qDiMe0B8R89ZpqhwDhBlo/EoU9JsDdaSm8ZJg5jwMlV9QeFRKShRtyFGmhFGcAQf69oyQWIjbXEmvDueaVRUlPTr109fq0lwC6HwOojeAiuaiyokeGhFeV0BFoeRUhCKzFBHKVARVJxKv+FgVp6s3JJmVN1xCQ30l26tEso8MYmHrPUB2v/4Ih31t99QYARYTyPl8AgBsSdyoK655hpp2LChvlaT4BZCMcgDBw7UnyGUtVBMAhkkcAXgTlDJ4jDGbE5+8e/skoqg8mewZY8u3rhHyULUvHfbRprm64g8o/Jy8myq0d8Qxs/YUfbgfppEh0iXVvX1PpH03333nUbHb7rpJrVTaxrcQihA70fLYCQeBTBSOzeJOSmDsqLA5Q8P9ldDFkJl5Jx+2eJU8Ktbp3TJBQKQG4XEqwwwE9du3yert+7T31s2rmdI1VCzR+1BYDYzj+s+oSEEGtKWMpprMCS64/IuxlzwUseGXussCNO0lRL0mgi3EYrOvjSdBzTGsgKc3ds0cEluFCrUWragD1RmdkG5icD7ye2mvTOg32exGTjOWRnweXo6fTVjjRIByXNN32Qljf01YvxbEgrSIHEtkPPXtlG09EpO1N9pQEJLSZ7rxRdfXNqcv6bBbYTiobI3CkE3tt3YvXu3vp7UIFoSIgIr5UkBIsbhITYbCkKxbFFelYc73yTeqGFjv4AMY/u4CkTmZ69KkaUbbMWvZDxc0bOFEsUCkjpHo/1mIMz7saFUeJsXkLpDL2xrVKUtlDFjxgzdyoSllt69e2ucrybCbYQCrDGRdMfsshrex0YEaTpHUSUJhTfG+hvGLmciwl0uwWIGjYHskGQrEsWA3rrnkHH7XTdQqOUvZ6wuXaO7sk97iTf3b00mLpdsUtYAWbbxMrqSlRX+2s6oyW7GdgJUtnz88cf6M5HxmrhFhwW3EoqkeWYUYMsJxD+ueZ/OSZqIVhkgmY5xjkrw0te7jrQrWc6gK8rGlAO2PpwuAoHXJZtTtUcmIQ3SeMjkPEdjTr8Hr3Kgzi/q1ETTmlGRS5Ys0YVgcN1119WopRZHuJVQ1tIA4pnYidX74Fwz82JCjChHRFQQJKQRxwGcH4O/XALKHLERwdIuybbueCAzVzbvPawGtctgSF9oJNDkhZskx0gpPL7LeraURjFlrxhwTRwUK/Tr2kzVOp4dmweQsMiWIuw8UZPhVkLh1rK5IIYkyzDMMqSUv5+vJJuBrIyQwm7ae/CIznyWJuqFB+oAOgu43NLYNVGhNimwcdcBW9FlufTmmcHZfjV21NJNe1WqJsaFS5+OjaWw2JYEGGk5FuZhoP6KjCd4afdmGsjkdVpMfvvtt5oSdO+999ZY28mCWwmF6KbRPSktNNKgYy1rUMy8dklxajNUFBivW3YfUrXHIitGbx2jTp0FZUy92jU0npePBhiXbkotlXguhSFFoTnv5/RIzyvUtJbLe7aWpNhQc711JC4qSO2nAkOmtMw8I71CZZjxCHlGeMb0eicwTINWK726JsOthAI0zejWrVtpC2SivCxPkCxWmZRb4k/Lt6QaL6lQZ3K7JrFS36gwZzw93pMYGy6dWyTotaQdzhb2meGc7gBm2cpt6fLTwo36e5yRPqOu7Sn+VLBE2vpaZbKblZGQdDGOMCoP/PTTT9qim4j41VdfXeOlE3A7oXgI9M8GhA+o14MACfVCJLISKbec40hesUxdtFnVHnbH8L7tbDrmdOc0f2M/mQFdkiTGEBDMWLpFU4PdRSiklNHKMm76Gq0NhMRs43F971a6QwLYmpohrRpEGamZqPdGiRSbVGJDkTNudfut6XA7oQAPBHFN+IC97EB4SKD0MMZ5ZVJu6W3w1cy1knrAln90cfcW0q9T0kmxHkegKmPCjdF7rk19UPj5zax1jLkOvLvAgvNuY/P9snirUbE21XrjwE4azMSuXLJulwww189eMfSFICOTvCfyy/785z/XmCKEM6FKCEVrHxYzwaxZs9QmwEbo0zGpUmOIKknZf0T++/MqY9Qe0yrde67uYVRZvLGtypZSZuxkYJdm2ukEzFm5XfYeYvHafWSygMJiJ6x9B22N2bD9kEZb9hzSsqrz2jTQ62DiffLJJ2p34tnhKfO+PwKqhFA8DNJZ8PrYZYEFY5AYH671cIWnEymngzkvsaRflm2Teat2aHCSqtoHhvWSto3raSRalzosFWj+Dw300U2FMITJMf9x8Ra39K4qE+Y7125Pl4kLNqlXB6iO+Wr6KrnZSCukE9eLV8dyFRkb7JNTExeBTwW37UblCEQ3Rjk2FN7L4MGDxc94WGywM9WoAXX4KjgLC4uKZUdqpjRPiFR3OzI0ULq0TFApxS6dBC1RrSTTUYZ0ff9kTaPZuDNd94EhBFGVEmDHvsOSEBkkSfWj1ORrbq4pqaTHOvG6//u//1Pb6fHHHz+pIlibtRYXq6eMjUUYhsnJM8WjRi1WtSRzTD+ukj2HAQ/h5Zdf1oNC0NmzZ6tdlV9YJLeO+UZ2pNm8vwrBEIUJT4+lsQ8OMV6ULYuR5LWdZvCWbtyrNXl7jOF9SY8WulMVIQs2Mnr92wU6qIxDVQ0G63Tevl7y3v1XSJsmtqUfQA7+XXfdJT/88IMmKbITqtXRBiKxBMOaKFua8T8qkYYZXDcrEkgzFuSrMsfcMWpfZYQCy5Ytk1tvvVXzo5599ll9eNw82499OHmpLdJdkUE1hMLovbF/B/nTFeeqZ4mhy6y1ByoREAvCMMa7W70tTdaRYbkvQzefdjupzLUS2QgK9JVbLu4o1/Ztr219uF5U3d/+9reTepVa4J7IMOAgyMmyFqEYdmqHWKhKbC02aGzatGnJp9yPaiUUswkS8eDYMJBNGSm5YjOc0e9Ok1TjBVWEUPRYGty9udwz9Dy1Q/geEvlxBqjAoU7Q0Q5R26rkf7Yc+3XDbhn3y2pZtyNdMwXcAvNddb1oI9REyU9vKgKstj+d0Ik2depU9e5QeZAMYC5wDywKk2fGM7Nq8QjFPPDAAyq1IBsJeHRiqSpUK6HAjz/+KFdddZUONnvoYkuRaPbGtwuN+77WSI/yDWZB8XHp37mxPHT9+VoGziBMmDBBHzLuNxkPqAHWwOhfxex13IUdEOykIf1dL36vZVVukVSGNL2TE+X+kv38ANeLh8dapAXUG9dukZ7JgCQv65p4zz//+U956aWX9Hcm6yWXXKI/VwUcCVUlXp49LrjgAk0PJmLOzfNASUO5rEdLlTQ8dKdg3ocXx07ij4/oJ/XCbXEaVuYffvhhXUzF/Z47d67uKH7llVfKY489prYcwL6aOHedbupDYh1j1apRPXnkxgtstpyz11EO1DGkuOr8NqVkWrBmp9z2zDfS/74P5MtfVsmhI7maG39Onbrig3ozg8XB76QVo5LTM7P1eu0LMizVjr1l30WwOlDlEgogpdiYEa8EUrGnHm70vz6ZIROMS+1M43pmZqvEGHn+zwMkxpAJYkImJBO2miPwlpCISChsqW9nrpX/jF+kDS26GY/w8Vsv0iKKQ1m5cs8rto0TyystTwtzvZFGgn78yFUqSfmeYf8cp1uW8DXYgA0ol0qIkDjzP6XxSCQMeErnWbjOyy2QJKMmB/dsVdr9GE+PGB+21KWXXipvvvlmaSuAqkC1SyiAlCJRDCn13HPPqVFJoPPOId2kRf0IVT9nQqzx5P529XlSzwwO5KIxx0MPPfQ7MlG3hoolUGgZqzOXb5X/GEcgN79Ygoy3hWG+YI2thSPZm5SQG865FITa6N5rFSssWb9bUjPyjFQuKdsy95CyP1N+XrpN92R+f+JSee+HJfL2+F/ls2krZfOuA9IzubHcNKiTdj6GbOyrg3Ozbds2LUu//PLLSzsIVheqhVAYmXh73DyBTg6Auz/i0q42b89OpDuCQoJRQ7tLh+a2rrck7j/yyCMqoQA2Ut++feXFF1+UmTNnyqefflpackTXun+8P92ovuJS45t/6S2gP5vzBQb4CFmUrgSSJjLEr7TxWmZWgWQZtUvhAhOIOcR7rP+5R956rpGe/7rtIvl09DUyvF+yRJkJRFAWMo0aNUr3dsbeYmNr1kyrewG5WlQewMbB4/v555/VYGbQqZLJzi2Ut75fKN/P3aB2jT2QRKSoPHJ9bxl4XkszOHW1T9Kjjz6qkgnjm/wr3GcKIe27kmB/aF+obxbKztTDpVKBnuUtG0bKk7f1k6b1ozRxb8ynM2Xi/I3ONeBwEhCkf+cm8uyfBqrNw9b80xZtNlIqW/KNUY7KJwEPCRYbHiQNY0KlYWyE5mtZHVoAAU0aZbz22mul0hgyffbZZ6X7D1clqt3LswA5Jk+erPqfiyKIh9GMR3MgM0ee/3yWzF2VouJDvRvzfj9jvN86sJPcOKCjqkjWBEeOHKluNAuoENI+PEBkma3tURczl2+XBWt3lRrg/IMkoMz76dv72fKpzEDTAeWJj36Rn37d4nJC3XJxexl1bW/b/RhgWEMkXYYxo4BtzX15OUgZ7EOCnkhgUqkJLVixKiYPdpNVWFvVqDGEArjH9913n9abQYSvv/5aBgwYoH/LKyiUT39aIW9PWCq5RjVEBHrLA9f0kst6t9ZAIEG9t99+W8aOHatqjZAAA8XDZ8fLDTv3y9J1u2TVjgO6mXQdM2I6jCWDScZk+6QY+eeIi6RJXETpILuLUHzfP4xkvdaoLWfBhEGS46lyrxjeeKlMRsAEwjZEwjsGcasKNYpQAMMc72T58uWqpphtgwYN0uUZvLGUtEzZd/CIJMZF6tIKgDRfffWVPPjggzpDsSMwvnmdDsDfzVknu41KyS+0xZPUWzN3yR7E/n7eEhcRrEUAV17Qxtg1tnY7HLwX9/zxD3+RqYtdSChzbtYSX/vrIOndoYlOBiYR6toKUvL9BDNpMEKAk9RfHA02prYHxGHXqSFDhsjdd99dpVHxslDjCAVQfffff78ucrImhbd27bXXSkCALXPRHniEX3zxhdoQPHiWIZilFD/q341rvTf9iOxMh4g52qqHBmDBAX4SFuBrbJMQ7dJL+grqBbAgy+ASvsCGevS9nzWDwZWEAu88dKUkN4vX+BgTgcnkLChHI0qOjYitSBZsWQHaqkaNJBQzkxnL4iZqkBlLHtANN9ygD55ZifRhSeLf//63xq6sHuiA5RVep7DUUl0ACcdY4kURrMQ7sl+AxsaigBIyIyVxwQksuppQSB9aVn/wj6u10T5uftu2bXWphEmDoW2pMQsMFPdFpiaFnSyko+J4NpgH9vdZnaiRhAIQBnVHXMp+5hKkQ2oRGrDKsJih5KqTb21FvnnQNJBAsrHmxezlZnGjLUJCIIjIWh8tmZFsrPnxt3/84x8yevRoXTQe/c5Umb1yp8aIXAEITcP9/z4+TL04ej0Q1mBZCO+WflpcF/fC9XLtEK26QwDOoMYSCvBQGWCkFQ8daWUPqmdYtiFMQCyLxWXW7WhqBkkARGOAMNJRE9ww62Cci/Oj2lhIRUpAXEgG4chB4rwqod6dJjNX7HAZoegv3qphlHw8+mr14LhHiI8xTXaAVQz7R0SNJhRggBn06dOnq3sMWTDQ6XZL4A4VaNlWkAT3GYOeChF6J23caKssORM4X//+/eXdd9/Vc2DgP/nkk25ReQQv+3ZKlBfuHqy/47Hh3ZLFikNRlUslrkaNJ5QjUEfYC87YDESMUYt4RhwY2xj6FJlCVDwqCMm6Hn1AyXZkTRF1es8998gLL7ygXp6rwwZ5Rcfk5v7tdWsQ7gdp+MYbb+iCNeSqaW0NywNHQrnIjXEfUEfOGqCoNrb3Jx/otttuk6efflo+/PBDDTFgyDN4VN/iKTl6kAy0LXRgCy66EjgDCdG2zQBQu1YDNtRyVWZXVgVqPKEqCojI7MHAxWDnwO6yN3T52SKrvZdlbYroKvh6nSMRoba2PNh6eHWAuNsfwfAuD2otoZwBbntZA+oaU7wEhqiUdxFMBahfgpcACWW/2XdtwFlNKHtVio2F2gOoKFcBuUcxZ1BJRiaEQu0BbDpn1fkfBR4JVSKhLEIxwK7sVIwmpaE+vcpRq4QqrBAHSyi1DWc9obC1AB6iEsr8rJtLIzns7KrKICTQV3wMcSEU+wiy6AtQebUNZzWhWMKwCJWfn28LpBoeUSLuqlgKKz0Rwf7i5W0r7aKeDqMcMlOoUdtwVhMKgxjvD0AmS+UFGSPabsmvUuB8cVHBSlKkIBKK7yIeBqlqG85qQmE/WWrHklDwKCjA22WxKDJD4yJsmQ2cH0KB6kqIczfOekJRgQuwa6yF5rBAP/Et2ceusvDyqqu9q5BUZFWQ5wRqyi7mrsZZTSii1Cw4AwiFlLJUnuM2GRUF56HMC2A7kYFJwJWIfm3EWU8oS+VBKCuCzUaH7AdcWZC2Ut/YT1amKQvXrBsiFWtjyACc1YRCGlkqjwwHpAcINm5+RIi/ljRVBqSt9ElO1MpoDH76EBA6IPOyNoYMwFlNKGCVbhNwZC86QMP5Ds1iK0UopFNYsK/069ZcDXIrdRlQ9mRfnVObcNYTCluGqltAsh6AAIN7tNIdPisKvMU7B3fRjr+Ank+k0hAq6NSpk75WG3HWE4pcJGJCgJx1iihRSw1jwmTEgI42KVWOiDmfJW99QPfmcmnPVvoawUxSfQGFEB5C1XJQoGCBtGJrrW1Y/w4ysFszW1fh05HK/A0Vl198TO2lkUYy/XVod91skoVgqnrJKsW7o9WOZbfVRngIZUDRg7VZJGnHdIcBNAO795oeck2fNkoqsjkhjkUg2glRwMk+1I1jw+RvV50nnz16jTZgpQcBoJCC3RAgFpsmkiFaGyPkFmp8CnBVgPwk0nLJ7iTrgO1EaDqPamKtj74I7Hs3cf4G2b4v05DomHYfJougY1KMdGlZX1o0qqfeIe0W8ejwGilGoDSMkAR545SRky1am/CHyymvKqxYsULuvPNOtaMAFSmQgQJSMj0BUiknv1CKDel8vbxUgrFdmwXsJ2JZ8+fPV5uJwgmWW6jupebPXrXWFngIdQqwcEsPAft2grQbQh3SxAypdap0XUIClGZRdQORUlNTtbkF0o41O3LbrT7ttQ0eQp0B7PQAgaiYgRCA5Rm8M5qk0WcKz5DMy7S0NJVoFI1SQQOJADYSkXDKvjgXueO1FR5CnQHYP2xnS7EpXV0oy2JR90xA+uC9UTJOh+N+/fppGfmppFptgYdQTgBbCAlEZgBqEJsIG8vKFLBAghyGO42+UIlEwIm8oyohEks7tR0eQlUASC1iUxyoNchCeRZNZ3mgta22rjzwEMoDl8KRUJ7ApgcuhYdQHrgUHkJ54FJ4COWBS+EhlAcuhYdQHrgUHkJ54FJ4COWBS+EhlAcuhYdQHrgUHkJVE+wbnLkCZJVykNdVnfCs5bkZx46xmVGWrN+ZLks37JYtew/LwSN5kl9oax0U7OcrMRGB0ql5gnRtmSAtGkaXdrsrC2RC5BUU62aNKzenymJzzs17D+m2cGQ3UAIWHRogzetHStdW9aV9s3iJjwwWH+/fL2DnFxTJ7FU75OjxEzKwa9MKLXJ7FoerEEeNFBo/Z718PXud7N6fIeHB/tIgJlwbkJ0wg2+4oVLl4OEc2Wn+HujrLee2biDD+7aXtk3KbpcIKScs2GiItEf3tWHTyvjoEPH19TFksp3zSHa+7DLny8wukAZRIdKrY2MZ2ru1xJuf7c+5/3CWjHj2O93CZPyzN4l/Bfo5VJhQVvYiqO1JY67CzGVb5cF3poqvkRrDL2ovl/ZqJeFB/pqHbu05w2ZFkGrFln3y/sQlsj01U5o3jJQX/jTQkM/WitrCwjU75clPZsi+Q7nSLjFabrmks0o0usXQ5QWuQKii4mI5kJknc430efuHxYJiZWfQJ0f2K63GARDqtue+Uwk1/pkbXU8oUlrZCJEsRXvSWF1rASKXHaB69eql20uQVHY25wOdChlZefK3NybLxpR0Lau6/bKu2nTsdNhg1OLfx06RfUZijRjcWW4f3EVVFcURMww5Hxo7VQL8vOS6C9vJn67sflKBxKmwPfWwPPvpTFmwca90bRojL9x9SekO8u4g1ElGOUYi5dIkj1122WW6bx0Hm0BbB3nS1JdNmjRJbr/99tLNd6oa9HKiogSC10SwBSy2U4C/r3RtkXBGMoGWjaJliFFNhUePq33EPsjc3zZjI70/eam2abz6/DZyy6BOTpEJsPvVfdf1lq7N43UzyrHjfzU22JlTmiuKMr080lrZs44yIseD+jU2h2a/OtQg+6OwEU9VAiKxRwtFmdVBZmeAkcwGkOwjHBnq3L522Dc92jbSn3cfyDIDf1Ttm2lLtqik6ZAUIyMv7SohRm2WBy0bRsnIwZ3UYJ+zOkVWbd2n29O6A6cMG1DgiCpzPEjGJ/WVrfLZL5h+R/PmzTvJxnI3mLVsLkR5d02VUAweu1nh5eXh0TmJhHqh8vdhPeWmfskS7O+tHt3khZu0gPSB4b21d1V5wVj2Tm4ifZIbGVWcL7NX7tCNs92BSsWh2ICHuAd1aM5UhrgSNb0AIDoiSCKNJMnJL5IlxiNjlytnEBLgKzcYm+v6AR0lLDhANqUckF1GWiU3iVEDvDK48eKORvXWldXb0iQr77cNLF2JShHKfgMe+wE2hr7uBsU28FSMrF+/XrcQO5UUQ21RZUItHPvkUWlClQkNwKy+l4D34SDwXn5G9fE7pd72hOZnbEH6PSE9qZuj/xOfsb7LcjT43b6/JiXkvJ/P0TXFHhR0st0aZVarV68+7UTCne/TIVHV3pczVstHk5dISlqG8ejKF3hcsz3NiGSRpvUjxcdJu+lUoKNMw6gQte0OHskvedW1qLB7hqqBNHiDeH38z+AwiNg37P5kgdfZFJEdN2kWQRGkRUBIxnvpK4AKA/yNz6Beb775Zt2smfIkSPmvf/1Lv5eBxSuFrKjiv/zlL+p5Uur0zjvvaB8BSMO5uFaaYbAV/+DBg3VLWDY9ZBdPKlnYuYrroqATG9Eql3r++efljjvuUCL9/PPP8tZbbymRrN7mlFGxISTOiWMNHrbTCGPvrDLSYPm2/fLWD0vls2mrpJsxjjsZI725McCbNYhSz4rNiqwtbO0nJs8mNT1T/xZV4plVBsS/osMDZeu+TNl3KMuQ/rcQgqtQJqHsb6osMNgMKoOGlGJPXD5DbyUGib1y2X6Vmn5IQb3/4sWLdffK2bNn60DRFhDQiOuxxx7T/YVffvllJSe9BJAi1h7DDNh///tfdVEZwIMHDyppIOnll1+uA0zjMKThww8/rL3Hn3jiCS0Dx96DWBDwu+++U6mDBLL2qENlL1y4UN+HxLn66qtVlVP9yzlpA00pOdd/1113yeuvv67tDJFMXB8TgZ4FOCrsVG7fWYXtYF+79zKZtXybzF+7S7buOSQLN6XKz6tSVDVEhfpLYmy4JMWbIyFKo9uJceHaNRgUm+d8MLtAd3WICC6/7eQICB/o563nLSqnpHQWZRKKh4i6QqU4AnXG9u+ECyAVnh975/JwR40apQPO7phU0doTE5LhPdKQAg8SgnCD7GXH55EwSAjrMxRLWu0K2RyRzaaJew0YMEAH85tvvlGpwyAioSDKU089pd3oGFwkBq9boBiT11566SWVOPbgfUg67oXz2cdWeD8qjpY8lKPbnxNi0awMwvGdSL3OnTufdN+Qim54fTolyYHMXEk1kmFX2hH9f+su7KMjatPUNVIIIsVEBMsl3ZrJwO7NxcenrnbCsztdpeFM+KIy+J0NxQxDBaE+aBTheNBMAkKwVTyzFXXEjgTff/+9biyINIEIjlKOgWBbVtQLNhIdcRHpqBwkHlLJ8TMQjgG78cYbT2l/AVQaqoj+AhCWKl77gbdA/AzCMCnswefZ+JqNpe3JBPEgPC142Nbe8ZxcL+p7zJgx+rdp06bpvTgClQaxkhIipXf7xnLDxR3koeHnyxv3XyHvPDRU3n3oShlsCJSVVyirtqTKS1/Ok4+nLJMT5lT+hlT0ocrOc43Tg8fJU4as7sDvCIVxihqhrv9UBwYzRqvVqYQHT4dbBp/I+ekAKSEKBGDwGESMceJanIMuJunp6Uo0JCTkRAIMHz685Ay/B9dMLAx1SUOL0wF1ZrXnsQeEsnptWrCcCVQnDcNQ3WUdqE22+GeSlCXVTwXsLAzljsauemxEP5n07E0yYlAnM+AnZNz0NcbDS5fG8ZEaM8rMrbxXlltQpFF4P2JjwYGnnaQVRZleHuqKTv+nOlBR9h4eD5uDRhH2hmlZwHZht3LL67vlllvUNsGuwZbi9xEjRqikwx6jc66jt+UIpAKeGirzTN3hsK+wl+zBNdMQzFEC4fHhHeJkjBw5UqVrWQfXTysfroF7Yqv+Ndv2yaI1KWr8OgtU3ojBXaRri/qSk18sv27YIx2aJ8hRQ6jNRj0WVTI1Je1QjlG12RIbEaTGuTtQJqHKCwYUteFMLg6Dh6FuqQY8JfYBHjt2rLz55pvy3HPP6ebOtMDBdsHrwgNDop0JDCjXcTpgfyH97IHqgohlqWnIh6c5evRoJXxZB9vz060FDxSpm59fJK+PXyy3vTJBZizeUnI25xAc4Gu8wHjdvCgl9ZC0MN5gfESgsbP2SYqxvSqDqYs2SEZOobRtHKMLyu6ASwjFQ0fdYMOcSeSjzjDm4+PjlVR4bEg3iIWRjb2CdGLXcHpdYrzjpTGgjsa0BWw4PD7iVtYG0WUBsm3duvV3NtSpgLpFDeIgoCrpalfWgapnAnDgcfr4eEmEcdF9DUFT0o+oxCoPvM2kw0iH4P7mXAO6NDU2VLG88dU8Wx5VOcF970rLlC9nrdONkbq3bSAB/u7ZmtYlhEL9oQqxIZAqpwIEmjJlis58PC7iPcR5WGi2JJY9kGTYJhjEEAU1WRY4H14k6hQ33mr85QgIOX78+DK/qyzJBkkbNGig4Qj7AKsjyM7AS7XOzf4uTWLDxcfrHFm+eZ+kHnBe7YE0oyaLjh2XesbjYwln4LnNJSYySOav3yPfz1lfblJl5RTIf6ctV1ImJ8VJ73aJel53wCVnZSaxrsdMxbi2triwB7YFdgaxKzIW2rZtq1KN9zIQpyIB0gupZu1sbg97FYcHhy2DzfXqq69qTMkyOhlkzo9KJeSBxHFEWYRiohAfI2SBM1IWkJ5IUyYH3iUSikBkj7YNVX3tNeSYtGCj0yTYnZ4pM1ZsFz+vumo/8WzbNImV4Re2M/dxQt6fvEQmm/OxaOwMyLX6fNoK+WHBJmmWEC73DO0uocHlW1wuD+oa/f9Eyc8aTKQNMgG9/v37l7zqHFBZDCoGLIOGGuJhMJCoOOJWDDQBTWI2SBMIgs1BTAli8Rok4DqQRiyffPzxx7ocQ56W1UEXOwyPkCAp6paIOeeijyUkIKhKkJXYGNIFd54oNyQj1sTnULnEtJA82G9IQkIljsD7w/OENKhzrpf/MdbxAjkvwVlaHxKDswz7iNAAXdhdvClVDWrSbRPqhZXGlaAv3hsH5MjJLTTvOyivjJsrm/dmyPnJjeRaQyK2q4WgLRPrSaDxzhZu2CuL1++WzKw8NeJ9DfF4ztb5OBdJe2Rzrt6aJq9/OU++n79RJcdjIy6SDs2MfVYS6c/NL5Qf5m0wz/yEXGzUKuuO2XmFTh1Z5np9vOqY53GyE3RSgh2DyGATBCT2UxEsWbJESUlkGnLozZobhSy0CiQkYb9xDu/BVkLt4YIDbtj6LDYMnyEvy96DxCukST2SAVIR/MS9Rxrx3Qw23iFGOOfAA+W+ILoVY+Ne+TuBWJZkiFGVBSYF2Q3E55CKXAefgzyoRfLEiLE5epis242btlK+nbNWdh3IlvrRwdLaGNmJMeESaKQX9lHR0eM6sBtSDsj6XemGKAXSu30jufPybroYbGV2Au5t6q+b5euZa2XJ5lSJCguQDkmx0qx+lG5DyztzC49KZnaebDDkXLMjTVNgYkL91Rhv16Se3HpJZ+lZovI0Bfi57+RQZp5RqeVb2sk3pH3utr7Ss6NtxcPCSYTigpmxPDAefEUAeTgHqoqHzu+cj5nNwc8QxR58r/V+Zj+/QyoGjEHic9asssB7rPcDvodYFO4/xjR/5+B1PmuREVsMYhOewEPjb3w334XNdipwLox53mt9J9dGTKssD9EC0mKfcdXnr94pc1btlO37DkuekQTFxkYyGkwJg3yJiwiR5KaxMqh7C2ltpBFGc1nb/XMdOUZCLN60V2Yt3arFD+lH8qTQfA9iCmOez9ULDZRWidFysbG/Ghl77tMpy2TCgs0SEeInd1zaVS7v1cqMU5F8MHGJBlR5Ts6A+4SMReb7bhzYWZKbNyj5iw21pkgBwxgJgx1H0/qygpeENVjPY3EYVYXkq0pgR2Xm5BuVUWRU0wnJNj+j0vz9vDUJD5urPMbyUUPKQ0dyjfQpkKzs3zzXECOtYsICtXrGyuxETb1mvMRJRsIlG5tszO39pV545ReHmez2qDWEQmo888wz6uWhyrBnULMWkCxE91nvQ+USN3I08ms7aNg/xxj89Y0th5q0V6cVRa0lFMBQhkzYZKgysiAw0lHBrB8iobCdCKRibJ+NwGhHybqCTKBWEwpAGgKseIYY7HiMgDVGYmUY5o4PwYOKo9YTyoOqhSOhXBLY9MADCx5CeeBSeAjlgUvhIZQHLoWHUB64FB5CeVBhlLXc5CGUBxWGh1AeuBS/J5TI/wNgoG91ozrz5wAAAABJRU5ErkJggg==;" parent="1" vertex="1">
          <mxGeometry x="383" y="475.41" width="69" height="74.59" as="geometry" />
        </mxCell>
        <mxCell id="j9wAFBM-4F8-QUCNC5Rh-10" value="" style="shape=image;verticalLabelPosition=bottom;labelBackgroundColor=default;verticalAlign=top;aspect=fixed;imageAspect=0;image=data:image/png,iVBORw0KGgoAAAANSUhEUgAAAMYAAACpCAYAAABwOULSAAAAAXNSR0IArs4c6QAAAARnQU1BAACxjwv8YQUAAAAJcEhZcwAADsMAAA7DAcdvqGQAAEebSURBVHhe7V0HeFRl1n4zmZlMyqT3QEIPvYgFFUFFRRR17bJrXXtZ9ddVsWHvirpr2RVX115XRREbRUVFqkivgfTeJjPJtMz85/2SG4cwaRAgyn157pNh5vZ72nvO+b4b4hegGV6vF42NjQj4SoeOPzxCQkJgNBoRGhra/A1gaP4Ln8+nFENXCh0HGijzHo9HOQUNSjGoFPxBh44DGXQM1AVCKYYePunQ0eQ5NK/R4jF06NDxmy4YdG+hQ8dv0LyGUgwdOnT8BnoNg+4tdOjYGUoxmj/r0KEjALrH0KGjFagTusfQoSMIdMXQoSMIdMX4nUIPgfcuQhoaGvQ7/DsBWxY8sni9PhgMIYiMCG/+RUd3Q1eMHg6mDl1uN5wuN1xOF5xuNrs1KUZWrzT5qzv9vQFdMXogGCaxqbPOXg97fQPcVAZfIyLDIxBtjUBUZAS2bs9HZkYKwsN1r7E3oCtGDwK9Q4PTiaqaOtjqHGiUsMlsNosyRCI2OlIpAccOEDm5hYiKsCA5KUH9X0f3QleMHgB6iLo6O4rLq1Brq1PCb42KREJcDKLlr9lsalEIDcUl5ai1OzB4QJ/mb3R0J3TF2M+osdlQWFSB8spqGE2hiI+NQUpSPKwSLlEh2kJNrQ05eYUYIoqhh1PdD10x9hPKK6qxZUc+qiVsMoQa0K93OtKSE0TILTCZjM1rtQ2XkPHN23IRFxuNXukpzd/q6C7oKY19DJvNjqWr1mHB4hXIzS9GncOBJAmZYoRDMFpitqkz4PjkyMhw8Th1+ujLvQDdY+wjsAaxYcsObNi6AzZ7PWKtUQgVJcgekKXIdoWEUj6fX3kLCnyMcIuY6CjhGBGqXkFPEpiaJVGvrK5BbkExMjPSkJwY3/yLju6Arhj7AI76BixfvREbt+bCJ0R7+KA+GDVsEMqEbK9atxlTjhkHo9GE+oYGVFTZUFlVgxoh4/QEJN0GQygiwsMQFmZGjDVS8ZAYa4TsOUSFUyazGdn9M3ea5ULHnkFXjL2M+gYnFq9YizUbtylvMEYUYsywgcoDEKvWbMLm7XlKOaxWq/pOg9vtRoNsX1vnELJth10Ux+l0N/8KhFvMCA8LUyS9V1oyosXD6Oge6IqxF8FwZ9uS5fhh4U+o790Hg/tk4JDRQ1VdIhA/LFklYVEtjjh4OBLi4zqsZjMsc7lcSunKK2thr68X4p6EjLQkvRLeTdDv4l4EhTTe50XGlvWIXL0CKSGNsMj/feIJApsADx49RPGKZb9uUlyjveHGVDaPtxF2RwPKKmuUF2JoZXfUo87uaF5Lx54i9K677rq3+bOOvYCwpESYbTXwvvs2PCtXwFlaCl9tDXxi8RubJ/kyGUW4Y6woKK1EdW0dIiXMskiIFGj9qUhM0VaJZyHhrpL1SLjZL0USX1VtQ6jsJzJiZ5KuY/egh1L7AF4JdYr/9xFyHn8C9RVlsPYfAHPv3ghLTERoQgJiszJhkf9X+oCc0ipEijINGjwQycIbQkwm5SHqxCOUllWqDFZMTCQy01MQE93ESRqcLhQWlwlZ9yI9NVFCtahdKuU6ugZdMfYRGoU453/4Eco+/hgRvTIQNXwYGouKULdlC9wlJQg1m2EWy18j5LoxNh4xoixpI4bCkpaGWoMJBfYGRIgSJWSkIUUUJizyN55Cb1JdY0NRSYVK8aYkx8MsCqVj96Erxj4EPUfl3Lko/EiUo28f9Ln0UnhFgN15eWjYvBnVsz+BX0IspmcbbbXwc34jsfw+owlOczjiBw+AtU8WIlJS4E9KhpkeJzYWhtg4NMp+SsWb1Ls9SE9OhFUIvu41dh+6YuxjUDkqvv4aBf/+N6L690e/O++EWbyC125HweuvA8I/4iefCG95OVyiMN78PDQWFsJTUACn3YYQpxNhDU74o2MQlhCHsOQEGOLiEZqUApd8Zw+LgFU8UmzfvipMM4pn8Ys30mscXYOuGPsBDKsq5s3DjkcegXXoUAy4/34Yk5NR/c03qPl8DrIeeBChMTGKoPtlXW9tLbxVlXBX1wDlwiV25MJTUgznr7/AuGNL07owwC+hmD88QniJBSareJKkWESI8jUmpcKYkYHQtHSY6GWSkhBiCddJejvQFWM/oVGEvnrRImwRjxHVpw8GPfec8hKFs15CgniMhBNPbF7zN6gUr9cjCuOG47tvYfvwPYRm9eEcSOBDNEuI5dmxHd7cPBgKC+CuLAN8XvEYYTCwA9drhCEiHKYsUZABA+HrOwDmgYMQ3rcfjEL4Q0zmpgPp0BVjf4L1jJqff8b6665D/KRJ6H/nHSh/+WW4ikvQ74knECIhUGs4hajbXn0Z7rlfIubee2AeOhwO8TK+7TsQN326cBQJs5ziaepscImi+cSz1G/dAuPWzbCv3wSUFopWumGwWuGPiEKjxwdfiAlh2aIgB49F2MhRMA0dhvBevZqPeGBCV4z9DJ/Xi+rvv8e2iy9GxkMPIcxiQcVrryHrqacQnp3dvFYTbAvmo/iGGxE1NBuJd98D06Bslc51zJ4Nx8cfIf7Rx2ASvkL4fT61QAg8FTDEI57G2YDG0hLhLvloWLcGDb+ugkF4jMHVgDoqiN+HUHsDQkLFswwZBMuJJyNp4gSEiUcxRB1Y7SZ6gW8/I0TifIvE/xEDBqD0mWcQMXoUHLU2+IUsR48apdbxCeGueHYmSu+4E3F/OhUpM5+FMT0DBqNRZZ4ahbi7crbCKFbe1Gzp+T33HSLrGFgslFDKEGWFMSUVYQMHwjJilHikMHjWrESICL1PPpsiI9BYUITGqip4G2Sfy5ag+t8vo+jNN9CQnw9TXCyMQvCDebI/GnSP0UPQWFeHoqefguPHHxCaLgIuApj56KPCEypQdM8MNMz9AikP3I/4Cy+GoZVgurfnoO65Z2AZORoRF14SNE3bxE+88FZXwT77E9SJVzJERiHmttsQKgpR99UXiJ12vkoC2Jctg2v5UpR88CFCC4vgi7HC1eCEp7wSpszeSJo2DQmnnAqLKLMhQsh+s4L+kaB7jB4CWnVjcgoqf/gRthUrYRYrbkpKQtkTj8H53SKkPvgg4qf9BQYJtVqjUUIlx7yFQkBcsBx5pBLUQKj2k/Iy1EnIVXH7bXAvWYaov/wZ8RKOWYYNh23+PPjtDkQcfKhSDEu//ogcPwHJl12OiMmT4bbGoLGmFkZ6oDAzKhZ+i/L33kXViuUIEYULjYtr8l5/IAXRPUYPQmN9Pareew/5992LkNQUVXswCS9Iuf4GxJ5zXlNmKQi8EvpUP/yweAUf4u6eAVNsrPreR15RWYn6RQtR9/JL8BWWwjr1ZJgvuAgRohAElapmxl3wS5gUc+kVKp0bDAzX6lavRtlXX8Exfz484uHcDQ1wl5bCKGS97zlnIXbScTBnZsEcbVVh3O8ZusfoQTAIkTZERsJTkA/3ho0IcdbDOnIUoo4c35RKNTTzBiHHgfBxnMaiRYDDgXDxGCTKVBanhEP1LzyDhjdfFoGPg/XOexF18aUwp6c3bwl48nJR9847CBs1GuEHjVVkPhgYvrGfK/6oo1Qq2dS/v6rMsxEyxGZDyZy5qPrpJ9TX2RBGHiIhllG84O8VumL0MIQyZq+pQcPSJapi7SopgXPxYtSLkDdu3wpXUTF84llYB1Ghi3gVtpEoxRDrH3booXCLsNtemwXnKy+Lpa9B2F8uR/QtdyJ8zEE7hVnMWtUvnI/6X5Yh8uSpMPcf0GEoRMUMjY5Whcm4iRMROXoMQsMscIlyuEvLUL/4J5T/8qtwo0pVdTfFxCiF/71BV4weBs1iO9ethUfifouQXcbxjXk74Pnxe9hXrIBn7Wq41qyGLz8PPon9feIp3CuXwVtZjhCvGw3vvgHv8iUIFTIefsV1iD79jJbwKhCNVZWwv/8BfAhRimFKCB5GBYJegh7KIyFUvZB+T1GReCo7PBLymSxhoqRueEWxqxcuhH37dvi9HpiEt1BJfk/hlc4xeiDcZWUof+wxuDZuQPwllwjhDkNjzja4tmyEMzcf5rISuArzYYhLgEliekNCAhpLigHhAWzz8EdHIeK0sxB+3GSYs7KUV2kNZqnqv1uI6vvuQfiUkxFz1TUwiicIBhUy1daiIS9PlGE7Gtatg3OHCL14H68lHBbxCubswbCvXAH72rVInDQJhXO/QMOWLTAKMU+aOhW9zj0HseJlWmfUeip0j9EDQa/RsH493Js3Ie6ss1SGyDR8JMxjDoZZSHP4kKEISUmFj124FRXwFeSJi3EilGGQxw1j9lCYjzkOYcIDQiyWoOFRo1j1+g8/QMPqXxF13jRYuM8Ai84BVEztNqxfh7r581D57tuo+OwzOMRToaEe5rR0xAnfiBMlSJw8GZbIcBQ89xx6XXU10qedh6iBA2GQEKtmw3rYVq1CfV4hEB6uWu7ZYt/ToXuMHgqmQ6tfnoX06bcjatJxzd82wS9cghbctXUz6l7/LzyLf4RRFMAvSkElMImV9plCYB46Cjj6eEQdNQFGseqBILeo+PvNokRDkPDwIwjr0zTVp89eh3qx+s5VK2H7bC4aRDkklgN6ZSL+iCMQOWIEzH36quwVEwX0Ri7hE5uvuxa1hUU4/PPPEcp2E1Espyht8TfzkP/2u6jfsAEhCXHoe+216HvWmTC3mvihp0H3GD0UfhFIEtkwCT8sg4fsZPWbQiMJhT6fC9cns2EKExJuCoOpd280wiAkuAQG4R3+klI4hJdA+IczLBxhvXop8u2pKEedKJ575UpYp01DxLjDVdhTN2c2yh95DDVvvwPHvPkwx1gROWUK4sWjJJx1NmLGj4dFPIFJQjfWXehh6Fm2Pfc8yt56C0MffxxRojjqHOU3U1SUaq2PHTlCZa8qli5F+eLFMInniB02rEeHVbrH6KFwrF6N4ttuRfzZ5yDuwgt3yiYxK2V78jHY3nwblpEiYP36wLdsMSKvvhEhgwbDMf8bRcDhkJAn3IJQkxn1fh8iRx+MyEuvQGNlBSqni7fo218E/2ThL8IbvvsejqJiOCWaij/+OFhPPBkRY8cKj4lT1e22Mkusa2y84UZEHH44Dnrh+aC1FnoPepVtH3yAjU88KXGaF8OnT8eAyy/vsWGVrhg9FA2bNqLk1lsRM/UUxAkB1xSj0WZD+a03wzn3S4SfeQZirrwKzvffQuOGNbDe9RBM4l18wgEaCwtQ98nHcL/6HNyGcBgjImEyGuCUMMwQGa1qJL4QA3weF3wllYBwFus5ZyNiylQJlYTQR0Z1aNEr16zF1htvgCs/H2M+/hhW8QLtwSNeLPfTz7D6zjtUMXPk3TOQfe01zb/2LOgjVXooWNBrPT6iobAQ1RdNQ/1rbyJmxt1IefpZMMCq/3kxQlJTEdKrtwqzQqOsMJM73HYHkn9ag6iLL1NC6ZXHbTRbYCAXCTUiVMIdQ/9sxDz/Inp//wMS77gbEWPGwBgX36FS0AMUPf4YHMuXI1usf+SgQc2/tA2TcJIBQsyniJcxiRdaIRxny3vvNf/as6ArRg9FKOeqZeVYuIUqxK1ZjZpLL0TdT8uR8PFHiLvsCiHbHgmDtsKwfaMQ7dGqmBYIpmRp+aOvvBphp5ym2jj4XcvC3ySUip08WRHmzoLtIXnPPIPK+fORfOaZiD/jjC4V8cKFp0z+4QfEH3IEfvnb31Dy/SJ1Pj0JumL0UHD4q9/rValbFvsqbrpeFfySP/4fYk6c0rROnU28xY8qY+Q/6FD1HUEha6SHyMtFzb+eR/WUSXB//hmMQoZVTULW4cRtqK2FY9aLqBFu4C0ubhq/0QE4tqPqo//BLqFTVL9+yLz22jbrH+0hPD0dx8/+ANZBQ7HkssvgLC5p/qVnQFeMHgqmZEOTE+DO3Y7q++6EJywc8f+ahYhxRzT9LkLM6Xfci75DWP+BiBwyWH3PqrR3h2zz+n9RfvE01D7/NBq8sq/oWFWF9oknir3pVoQfP0UUqCnTZX/zv6ie9S851g6lOG2BHsouYVvJrFngDLqZt92GyOHDd7uiHSoh27HvvYnY/oPw68OPqnCvp0BXjB4KP/ulduxA7aefwNinP3o/+09EDh3WIoScJMG54BuENthgPuUceZIGuLZugf2Dt1F76/VofP5xhPq9CD/jPFivvQkevw9eUYSI089G9LnTEDf9dsTNmAEjU8EWCyrfegMlM5+Ca9u2oJ6D3ou1iOLnX4CnrAy9broJsUcfjdAuNgpyPyTenC3FWVUNr3CdodP/Dvumzch5732lfD0Belaqh8L2yUcouv9e1fKRKkIccchhO7V2uDZvRs2N18GUnoSIW2bAvWEdGj79CI0rl6gReeHjj4XxhCkwDhoM25OPwPHxhwif+ifEz7hfTZpAUAidGzfA9vorwhcWoLG6GrFnT0PKzTe3rEMwNOMIvsKnZ8KxYCFSr7gCidOmwRgf/J0cir+Ix+M4EHoBt82mwkAvx6GXVcBZVgIzC4Nil72GEFFgP+wFhQiTyxt+y609Yhitrhg9EIzjK/71IkpnPgljZiYSjz8eUVNPhWX4CMU5iNoXX0DNP55B9PnnC0k3oW72R4DbhfBDx8F07GSETxBrHhEOu3iCqkfuhXHEGCQ89DjCm8dhBMIlXKT6nbdRN3cOGiTWT7v6GiQIYWf9gvAIFyl67TVUvv02Us46C8mXXKKKfITiKkwCCCFnNd5ZVQU3vZ0oEj2eSz67amrhaZTQTxUpDTCJAkQnJ8m1ZcEoCmhNS1WKGMlmQ3YXd4HI7y3oitEDoTURUlhNcVZEsEiX1R/WK65U7SGcU6rir+erUXUhcbEIra1Rg4XMx01B+JHjYcrIQIjRhIaF82G/73Y0OD2Ie/hJWI+d1HyEXeGtrEDdN1+j5LX/wrAjF6kP3I+Ys85tmslk7ufIf2kWYo87Dml//nPLeA/OQmIvKIAnNxeunBylFPXynZ9KIiGSWxQhqlcGItPSYOnTV83XGy6flSKQsJvNTZm3HghdMXogOPai4vnnERIbh9C6GjSu+VU4hw2GDBGqK6+FR4Sw7j8vqmGuxmEjEXW8eIhjJsHYO7Ol/uBkp+vDd6vWdNP1tyL2nGkdWmJmwup+/hnV4qko7BmvvAqIguVyXHh2NqKPPQbuQiH87K4tLERDTTWcFZVqBpLG8EiY+/VFWO9eSJJ1LX36IIQKkZiEsJjoJk9g/P0MfdUVo4eBA5Aq33oL9oULkHrrbSJMoaj7+it4Pv0Y/spy+OIT1bxRFmsEwk6W8Oq4yTCJQgTWIehRqu69E67vFiDm+r8j8s8X7NJE2BbIO6iYOf93M0xpKaoo51i1CiEJiaI4TuUlGtnJm5ioundDB2UjbugQmPv2gyUpEQY5TrhwDyposHb33wt0xehh4By1ZY8+Ar+EIumPP66mqvEKKS5/8jF4vpoLihozOokz/4nww49QkzoHgu0gjv+8BPuLMxF2/mWwXnoVjJySswNL7XPY0bBtm3iDtaidLyGYeAV/vUOFUqyUN4aEwpeWAcvYsYgaNRoxgwbCJDwhJDpGNQvSe/2RpvzUFaMHgTWEui++QOUzM5F4402wTp2q6hJ1H76P2v++AoNNwioW/mS96L9PR/yllzdv2QQSYdv776Lh2cdgOvo4RF9zYxPfaENgOdKuXhTA9eMiOOYvgKugED6TAV57HVx8W1NGOqzjj4L18MPVXFTGtHTVbsLpdpim/T17hI6gK0YPAt+TUfj4Y2gsLUPfF19Qg4lKpt8Oz7LFCIuNVgJunnoaHG+/oQYrJb76BkJjfvMYJNvV99wD0+jRiJ1+hwhy2k6eQhUFxfuwt8oxZzZcCxfCVe+EJ0y4R0W1mn4nfPRI+KecjBQh2pZ+/dSE0aqBUZRgdwt5v0foitFDoLzFl1+idMbdSH3oITW/U/Ett6BRQqnIMaPhfuttxD/7rHiRU1B7x22oefcDxL/5BqInTFTbO9asEV5xDywS3sTecafiHRp8djtq532jahnu9z8C+Dqy5Hi4ax1wCaewHDUesVNPRfTEiU1DYYVwH+jQFaMHgAUxT1UVtt95B8JNoYgYPwGlM2ciVjhExISjUPXP5xB9+p8kdLpMwphI1Ofno1TCm+jbb0P8NdfBW1aGGuEjjRICxd42HWESAjVW18CxYjns33wJ9ycfCqv3Ch+Ig79BeEOIKMb4IxAl3idc9hPJcOt3ki3aV9AVoweABLf6009RePddiD/maLgKC5B49jkwZQ9B+SMPI1TCppRb/g5TbFzzFkDRDdepl1EmzLgPtjfegEc8RvSNN8InPMQt3sH+2SfwFheqlG8I354REYWwSSfCcuyxCBs1BoboaDiZXZIQyfIHI87dAV0xegAYBm296koYXE7EjBiFuGuvgcHnFxL+tBqLHX/tdYpEB6L6vXdRLzzBOuUkON56HcYRo+HbzqzSajT6GhGakITQ1HSYDjkUkeOOQBjnf4r+LWXrFD5RX18PoyhXJMn0H5hI7w50xdjPYAU596671FDWpAsuQPxJJ6l38lW99hrCkpIQf+WVMGf+xhdUE57Nhrr5whmeehz+KCsaC3bAYAkHrFY1IbRh6HBEHnEkIkaNRmhiUlDS/JtiSOgWEaEURMdv0BVjP4LT+xe88Dxq53yO9BkzEHvQQXAsX4byN99U77lIufoaNYEBwdoFh6uyedCz+hc4vlsI347tMCSlwJgYj5CBQ2EWThI+ciT8ogycWofCbjabVJjUmkO4XE2KwRdhRvAtSz2gP6knQVeM/QTWHCpmz0bRrJfQ+/Y7EDtmjHoHX+3HHyFswAAkX3opTKlp8FZUwJm7A/XLl8Pz82J4Nq2Dp7oKEYMGqdeEWcYepjiIMykVIeIx+DpjKgEF3+PxKME3mYwIa9WT5BZeU1/foD5TMczNrSQ6mqArxn5CzdKl2P7QQ+hz6V9hnTgRJe9/gPpF38N60FgknHWWeqee85eV8t0PcPy6Cs6crQizxiBy5BCEjhqLSOEOVCBjQiI8snJldY0awx0XG91i/akYVABOcWM0mpT30EImXTHah64Y+wENG9Zj2yOPIHbCRCSOPxLF/3oRXvEgSccdB0NiMuwrlqP+xx/VbISoq0NoVhZiJ01C1LhxMPfvr2YrV5yiGRTyisoaGMUzxItiBPIFeiYvXxgjCz83hVdmpSzy7OX7RkW+W3uUAx26Yuxj1G7LQfk/nkFYaioMWX1Q88orMI4YgaRxh6F+0ybYvv8evspyeOvssIj38B1+OAwDs5F58MGqSY9EujVfIJEuF8UIt5iVxwiWYaJSqGk3Sd7lL9ehR6FikHxbLLpiBEJXjH0IT3k5Ns24B/66WlhiY+EUz2FITUd4agocEjJ5ykoRKgIaeuR4GMdPQPzYsfDGxKCq3o2MtCThD9ag9YYGpRjViBLLHxdjbbNYp0bWyULFoFK4XG71f10xdoWuGPsIrGzn3H8/yr78Us0zK6ZaCaV6xVhpKcwRYYicdj4iJh6NUrNFze2U1ae3hD6hyC8sVRa/v/yfRLo1HMIVSssqlbfg0hHoNZiRorcgdMXYFXq5cx/AY7Nhx8yZKP30U4iko5HhDH/Iy4PZbkPGXXdi8LeL0Hv6dHgGDUat0YJwa5TyABZRHGtUJGx2B6qEYFNBAqHaSTj7h9D1jop0XJcKwYUEXa9dtA1dMfYyvHY7cp95BoXCJdTs4BLmuIuKVBvIoOefw8j1G9UYa3NGBlwi82VVNaII4YgRxeC6XJL5mjDZtri0Ugizs3nPTWBY5HK6EWoIgTG07cfJ0KlaFMvt9gjZjmzOXOnBQlvQFWMvgdbZXV6B3CefRP6LL6oZNRhOMYwa+thjOGzpUiRccGGL1aaAV1RWwe5oQEQ4FSNSfU/QE2SkJqiwant+kcpCaWhs9KFBuIJJ9hMYZvH4Pp+cg6xbVVWNqhobwjmnVGyM3v7RCeiKsRfAcQ8NZWXY9PRMbPrnP9FoMsPHuWin/QWZr7+hindhQr41kkwhdopw5xeXwyyWnEW61pXo6OhopKUkyr79yC0oUTyB2zXKsegFKOxc1HeiZPyutrYWxcI9eJyEuBhRjF1nIieZN4i30bEzdMXoZlAp6rZvx6YnnkTRq68iacwYxF14EepvuxuuqWfAlJy6S2aJwl1YXKYE2hoRjviY4PPIJsTHIjEhTqVnqRz8y8wSvQYVivuxO+pV6ra0vBLeRj+SE2KVl2jNJ8hV6FF0BIeelepm1K5fj83PPY+6FSuQesIJSDv3XNijY7F2Wy6EMWDsyCFIEmENRHWtDWs2bFMK07d3GjLSkpt/CY4S8QIk4vQqJgmv6htciFVpWqjPDKuirRGKtLcVNumV7/ahe4xuArteS39ajG2vv4lQtwvZDz2IwbdPR9zwYXCL6XG7gk89yZAoN69YpU6tERZVue4IqckJsp5VEXGHLH75V1tnV+GYNSpCkXXWPDriEgy7qExaSKfjN+iK0Q1g5qnom3ko+uEHRI8cgRFPPYUMtndENM3kJxKo/jDUoTAGgiFPaWW1+pycFK8Icltg+MOaRWV1LTxe304cxRBiUJkscgnWJDoS9qZQqlGtpyvGrtAVYw/BmsD2n36WcKgW/c85GwP+PG2X91SI5Kk/brHobo+nRTlsYuU35xTA4/EiKtKCROEQrUEBpmcoq6jCjvwi5OQVYnteASqrahW3IKyREUq46TW4T+6vI/jkHBoVx9AVIxh0xdgD0Hqv25QDb3QMMqeciOjmN5+2htlkRKhwAY+ETSTHDJtItHNyC9U+yC0yM1J3ykQxq1QhnoTpWSpDflGJyjCRcFujohAf1xRyGSVcShJCnpocD0uYGTW1dSirrEKdeLHWxUANVExmt5o82c4eTEcTdMXYTdAyr1y7WWV7MkcMg7Wdl6ewYEerTgvNjJHT5VIegIJOBUlNjlPegnyDpDontwCbtu7A1h0FKCwqVzUIWvVeqUkY2Le3UiIKvafRi3CLRYVfJNqJ8bIfURKznJPN5pAwrUr+2nYJ37gtj0uvQegeY1foWandQL2ENktXrRcB8+PgEdmwWpsq2m2BQrh24zZsEGFnxmj0sEEoKq0QJahVQj24f6Yq0lHZHPVOFSJxf/QkCUKyyT04sTM9AhWRVewNm3eIYngwSBSFNQ4NVAIej16pwekUz1GvSLg1MrxlbDd/tzscEqK5JITj9+2f/4EIXTG6CIYyVIrqmjocdtAwpIjQdkaoSsoqsHz1RrW9MZSTGzd9z5k+WGDzNfMFhlyJEialJiWohsAws1mEuanVXDtOSUkJtheUqczT4AFZu9RFNCjPwEWUhCP6nG6vah0xm0IlVPPCKwpCxYjqAe+j6GnQQ6kugJZ2wxaGOIUY0LcXkjnWupOWVnW+iiBTUH3+37JTDna5igdIiI/B2JGDMfGw0RgzYrCqZUSqsdhUnN/GYDDcolJQmRJlm7aUguBv9FBh4mmi5disn8TGRCtWwfdVcGxHe9sfyNA9RhdQUFyGuQsWo39WOsYfMrLDUW8sopFL5BaWKhLN0CvM/BvBHpDVC317pyJeuEFnweLeNuEgYWaGZNm7VLTbAhWxvqFBwrX65m+gioOse+ij93aFrhidAIWK2aTFK9Yir6hMWfWB/Xo3/9r0exOh9SnhyxfCXFBcirLKavXSFovFhFgJVzjfE8MXDQyXjhQF66xwM1O1cs1G5XUy01PQW0h4W+A5aYtD+ERFdZ3KYKUkxak2kvKqWvFIFlX3aN2XpUNXjE6BIdTWHfn46tul6N+nFyaOG61if5d4BJfE6jW1taIENSgoKoVdyDM9AyvT6SmJKtxiyFNrs+OXNZskfAlRJLhGOIrb61FV6kNHD1NhU3uggG/bUSBKV6aGsB4kpD9YGwcVlMpHJSLxZqjGc2UYxRkH+VtVVQ3qHA2qIMi0rx5O7QpdMToABZKt4IuWrMKmnDwMy+6HIUJ4WS9g6rW8qhpuFuhEsFPEAyQnxCElMUaNitNaMursDiz7dYNKn44V/pDZKwUbNm9HTm4RvOJF6DnGDM9WYU1bnIV9Tb+s3SyK6EGWbM/RfBp4jlRengfJfZ14N3oFpnIT4qyqq1bbLwuMJaWVKlXLZsXoaJ14B4OuGB2AQse2jTnzFythi42OVJZWJE08QbQoAj1CtBpDESwkouXesGU71snC1OrQQf1U6pX8Y/WGrcgvLFNpVyrV8Oz+ahxG6/1Q6FkMLCypULzg4FGDlbdQtQwRdKZ67eId7M1NgVGilHGxUeqcAr0Br4Xjw9nJS67DhADrHzp2ha4YHYBCuT2vEJ/P/1kENhSDhFscOnqwssaMzdvLSjFs4XhtWnqOsThEBDqaStUMCvXmbXmqss0GQIZdfTPTREkSdyLp1TU2lQ3jOvy9t/ALehCGQ/RGrFfQOzF9y8kQGJYFayCkItXU2lBaUa2UmyGe3lUbHHpw2QFoNZwub0v/ESctixSLTIFqTylonRluUaBZmBs1dMBOSkFQsYYM6osRQwYIJ4lR66/fvANbt+fDZqtT+6BnoXJRKbR6Br3HZlknTzgNCT+r3f0yeymF4TGCKQXB/TkbmrwK1+ks6T8QoStGB6DoMzWqDRutFYGtESLdEUjM6Q3Y/jFicD+V/QkGhjqZGWmiHP2RkZqoKtZsCVknClVYUq4q5BXVtSoTRcEuLC5XrSQMk/r0SkPfrAwh+UmIEn7SHonmtty3o8GlZizkNemku23od6YDUHiY1jTyre2CsspaFInAMixpCxTA7XlFyqKzMp2anNiud2Gxjo2Agwf0UR6EcX+5hDubtuZimxB0Nh8aZHuVXZLwZ8jAPmpAE6vu6h3gbXiI1nC5nHDLuTEkpBfT0TZ0xegEGLOniOCSSJOAc1hpVbWt+dedQctca7NhzaZtyOqVin5ZvVq8TXvgdhwfwal1+JlgTxa5BBWN36UmxSFTvAS5CHusumLxuX19g7vJA4pS6NyifejkuxNgGwbDovk/rlDCSCFjI+DBI7N3maiMXOSLBT/BLMJ39LgxHU5kJvdf1UBy8opRx7EUyjsYlFXXvAwVi1yC3zFrlZ6ahJTEuC4JN5MIm3PylGIkiWK1FdrpaIKuGJ0AFYGdr4uWrMYWIb2aBxh/yAgMH9x/JxK7ZOUabMrJxxlTjlYTpgUDhZQ1jU2ibCTctQ4HwoSIR0sIlZmWJGQ6FsXlldiRV6LCpez+WaIk/ia+UVWrioo8h6S4aFX9jhZl6SicstsdQuoLlLfom5WuJnLT0TZ0xegkqBwUzK+/WyLCbFeCyU7YEyceKiFTmvIk7GN6/7MFmHbqsUgM0mDIguCmbbnYUVAMR71LjdXOSE5An96p6CUKERUZpfgGJ1ZbtW6z4jGjxDNlZqSo7fl/FuboWfKFv9TWNdUuqFRpKQmq0t7UeLhriwd5UZkoY5Q1Av0lvGuP8+jQFaPLoGAv/OkXVSjjyDzi5EnjVGbp32/NxviDhmPEsIHqe4I8gWEYBzVRMdiCwcbBAX16qQFHrXkCe7LWbc5RKdnhg/opMt5WWpXKynZyrQpvk20JnhcLjzHRESp7RUX5VY7PdC+VLCam4wkXDnToirEbYM/Sj8tXi0A6lIU3iMBxQBFDp0lHHgyn2y0WukIJeFWNHUnxVIZ08Qxp7YY95DIctcdGwdSkRBw0YpBqE+8KuA/1GrEGl2plYZrXIX+pRKzBZA/I6nQW60CGrhi7CbZV/LxyHUokPCHoQVjE8/t9qKi2IVHILa0zawxUho5AwS2rqMbPK9aq1OxI2VeWKFJnwe0ZarHaziwWlYOK4VaK4lYZNbadkLjr6Bi6YuwB2F6x9NeNSkkohAyL6D3GjR6K/n0ylAfpTEq1KSRyY+mqDcgrKsaI7P6qWbGjyjS3o0dgJqxpAjUn6oTIc18msxnJ8bGIiLCohAELjiOHDNTTtJ2Erhh7CAoks1Abt+5AtZByjqM2h5nQVwj54AGZwiliVOdtewpCS58rhPznlWuRmZ4qhHtgmxktrsusltPlUVV1chKOE6fgk09HRUYiJTEWnEmEx+TkCuwKTlMkf+d3hetoG7pidBPYzMd06DYhzZU1dar9OzIyHBkpCarQxzCGjXusRbQG20wW/rQCYeYwHDpm6C41BioCvUC97JPjOpxOp/rMDBXbO5iJSoijMoSrNKyWcaISMVnAcxs5ZIAaj6Gjc9AVo5vBidDyCktUi3hpRZV64Qs7cdOT49XrwjjFDds6WLnWBPjHZaslhCrBxMPGKA7AEIkkWg1FtTcoZXDIZ19jU+gUGW5W4z20Tlq2dwQj1Kyas7U9Tgg8SbeOzkNXjL0AWmpa6aLSSjWWg01/NTaHmgSB09ikJMYjNSleKQEHHi34cTkOGTlYtY9wkBGn4HTIXw48IhgShVvCFIlnWMb+KBbqOuIvRcJ9tkuIRs6iD0jqGnTF2IuggjBbRa/B6XZKREmYxrXZ65Vgx4uwehRfcGGkkG278BN6C07uTI+iFvE2FuEsDJEC20Q6Aj3Ouo3bVGvKoH5M0Xa+r0pHJxVDSwXyobRnpRgL06Vz/ZqaGjX/0cCBAzvMruwr8LyqqqqwYMECuCROP2HyZCQntz/lfneB94ZKwkq1rU4UhQOGyqpRU1fX1OIhQs+x4tZIixpwxIwS34fBOW21anZXqtXkLeQXbCfxNXpRVlamJmbjfmL5xtjmwU3BXiajoxOKQWEqLi7GvffeixEjRuDyyy8PSuJmzZqF//73v/jss8/UA5gzZw7efvttPPvss0hL63w+fm+CwvDEE0/AJkp78imnqOtJSEhQ1pVCt68KXzQyqtYgYVSjCC2zShzjUSPCTM9ir6+X75vaP2jpI+V+c7wFw6iEuGilOBEWs3oObZ0zs2ScFYS1kHqHA3M+m4NDDztMns+nOOecc7D6118xZOhQ9O3bt3kLHYHolGLk5uZi2rRpsFqtePrppzFs2LDmX5vA3p0JE47Cxo0b1bpJSUlqzlQq1IABA3qMx8jPL8BVV12JRx99FIMGDVLn9cYbb6C6uhoXXnihUhJix44dck116nr7tDFRc3eCikJvwel1qBD0LkwDszbCMIw9UcxKcdZzdt9yXVbcaf2buEcEYuRcmQWLlP+Ty7Afa0Cf3mpsB5/h52Kojhw/Hv/73/+QIl6SkyKMHTtWV4w20OnAk+43NTUV3337rXpwgZj7+RwccsghLc1rtL70GprwBUIN3meGRYShI3AdTrPPbVqDD5segBXe1uD5cS4leoJA8Py4T3owTjJGa1tYWIjKysoWy7t27Vr89NNPWLFiBTZs2IBt27ap7/cmGJ6SP3AgEok1axjxcbGqc3booP4Yd9BwTDh8DE445nCcfNx4HD/xEBx12CiMGMxRf0mwmE0qA1VcUoYN23aoukVi7G+ZL+7f3Hy9WZmZiI2L28W46dgZnVIMChMf2qEi/OtFWPLy8pp/aSpwzXr5ZeWetRCLgvn111/jvPPOUy9IJOg9pt92GzLlwcTHx+PUU09FeXk5vv/uO5w6dSrekbArPT0dTz31lBLqt996C2NGj1ZWnEr24osvwm5vGlJKhbjkkksQJw+YHunNN99U3/P3f//rXxgo3yUmJiqLT49ABVkwfz769euLXyWEoMJOk3O7/fbb8Y9//AP//ve/lbI8//zzSohi5Hg8h1GjRrWc/74EhVkTaIZSVBpOtcnmQPY7Rct1JSbEqzBp8MA+GDF0EEaPyMbBo4fh8LEj1ZLZO11to2Gy8KmYmBjFqyZMmIAhQ4bo3qIddFox6HqHDR+uyCrJK4WfVvuLL77A0MGDkZXVRz1MDdyGAkxQAR577DGVfaE1JgF+8IEHlOAS34jQbsvJwc8//6xCttdffx0fffQRXhQhp2AuWbIE7733nuIt9BCPy75IGmnpKehHHXWUGm/wz3/+Uynk7Nmz1Xbff/+9Enz+nTBxIubNm4/Bcq5ff/UVnn/hBdwmikrOdMEFF6hjMJwiKTeIZR0i623fvl3VC3QceOhSDi8lJQX9+/dX4QYzTrSqjFmPkNiVs+sFgkqihVHr1q1TPToXX3yxslIU6tFjOLqtycPw77XXXqu8CRUuXzzSKUKOjzjiCLXdyJEjcdFFF+GHH35QXoHTxXDfVDAKblZWlnixXMUVzjn3XIyQ9bkdwzt6FioZwwh6JG6XKt6BXovhIY/NECsjI0MparYoRJqEjPHiqWhxmVXTceCh04pB70DXPkYEmu9ToIVdtnSpitUZrwbLjlA5ZDMUFRWpbSmYwTBIhE+zzOQU9Aqt16XrzxNi75bfKOzr169XXujTTz9VCsL0MIW+dXgwVLbLFTJNhfN6PYqvtOYegeB5UGmZsWIWJ9h16fjjo0seg6BVZzxOcvr555/j8HHjlMUOBioFFUojvVpo1R4o3FQitkMEgmFTlFh0hjnkCAytyEFeeeUVfPzxx2o7HoPZpEBUitIwSxYY5nUGukIc2Oi0YtDiEnzJCEMcWujtYonJO9p68UjTW0GhyHCDeIJvv/1WWXf1QkeJ34Nlm0iok4THLBG+wbQpsy1FhYX45JNPcOSRRypvtXnzZqVsfzr9DEwV4k6ekSphHr0Xs2Zcn5kvpo4Z6h07aVKLoFN5AsFQih6K18O/VGQdOjqlGLTGzPLQkhPkGf369VMKws/a90kB6zA+T5Q4nf/vL4px0EEHYcXy5aoQOOull/DF3LlKeI0i4IznNTBzMlGIMsWTBcNZs17Ca6+9hlj5/vjjj1ehznwh6yTar8nvJcXFOPbYYxVvOProoxXBf+XVV/GSHIMknnyBvxO8DubwA70B+QsVgudFBWsvzNJx4CD0rrvuurf5c5ugQDF8IhGlhSWxJREnt2CWisLPUIW8YPjwEWp9Wm8Wx7JkoTAz9teqzHy9FjkDfyMR7927t9o398OFoQ9DNr9Yd594ql69euHU005T+6NQ06rX1tpUqwQVbryQfx6D58h1lSeSdbj/M888U50Xz4/bpss6VGbtZSlUZpJuehJ+z2Nryq3jwEWne6U08t0eKFzaOsG24f8ptFyPyqX9FrhdIDSizHVbx/wc7yB7bMlsBYK1FYZ+rbdr6zqaiLlXKXTr4+g4MLFH3bUMQVgvYEjEz7Ta5AgU1j0RMCoKlYJknSlhCjo9Cwt93HdXibQGKsC+FHwqIVs5nM6m+0PwOrhQCXf3OnTsfXRZMVhHWPXLL/jyyy+xWAgyawcUZM3qkxSTf0wSwsuF4UlnwO1LSkrx008/YtGiRVizZo1SOm3fFGguDN/GCwk/asIEZGdnN2/dMVavXg0JG9XQT7ZEsC5y2GGHNf/afaAyMDP23XffqeInaz5Ubl4DFYH3iGEoj83CJBcqiY6ehU4rBh/4pk2b8OSTT6rqMjs2WWjjA28NKge5xxWXX45bb7ut+du2UVNTi5kzn8Jbb72lvA8Xeolg+2Z4RM/ETBjJ+E033aTaQjrCwgULcMqppyrBJN955JFHcNJJJzX/2n2Y9803uPqaa1TmTavJ8N4FggpOr0Hvt2zZMtWDpqNnYdfAPgj4YHNycnD1VVep+gFbPPhut2CCSzAMUiEQSXAHYHtJdvYg1Z7OQiA9EEOotvZNhWFqtaCgQPVBnSaknC0gHYHXwFCK58a/rYW1O8DzOfe889S5MS3N6wh2HB6fnreioqLN69Sxf9GhYvDB8gEyDPl5yRJFUukRmFJl8x7bPdggyJoDq+FMk54uwsoZ8PztCCAFnM17zBqxRZ3/536Zjbr1llswb9481dnKwh4VkZXuuXPn4s4771Rcg56D50KFvfHGG1X6lvvYX2AP2BVXXKG8BEMmtpv85S9/UZV5poFZe+H9YXvKDTfcoDJx9Bo6eiY6DKUofIyV2T1LMM355z//GXfffbdKjwYDrSCLa1QYxtKtCS/3Set6xx13KOtPsE5y1lln4W9/+5viKO2BisrmwJdffll5GIJcht2yPE8qWGuwu/bkqVPVZ67LdpKTTz5Z/X9PQYXkPWEnAMH78sjDDyvv0Rb4xqQvv5irio+8dh09Cx16DD50Vo8JWkKSRTb8taUUhBbHswAYLAtE68+RdJpS0LreIl6CwtqRUhAUJComW9RZdyDoXahstM57I0xqDyT25AqEWZTyXFHO9pSCiI62qoZHXSl6JjpUDMbJS5cuVZ/ZjjF0D4dDMmPDcQ8cIKSBIQiVjeFRZ0GvwDEdbB3X2td5nrTaDGf2Jdgur/WBcQZAFiN1/L7RoWIwxieRJMgbeqWn71FszFQsBVjjA+PGjcPNN98c1LN0BGan/vSnP+GYY45R/2c2i2MvGM/vSzBpwPCQoLdsz5vuDrhveld6xTXineih+Jnfkci3B/7Oe81FK65q4P+5Dw4hYNhL5W6qH7nUwoxaV5MDgdtq96Q1+D1D4C1btqhrWblypeKq5JKaXLQFng+fc7BjcFvut7CgQHFecldGD7xGXh/luLPX02FLCE+CPUuKVDaHSOMOP7ylpaIr4D5effVV1UzIB0BLz5F57JbdHTC0Y+jisNuVwvHG1MiNYdctW04ClY1Ni5ycgeBYDKZ6d/e4rUGPQWLN49OTsbGR5HpPQaEuyM9XNRF2EM8WIk++t2DhQnU8jrHnw2cyQvOarbF161blRVkXYgjLthx6ft4Pfs/BX0xl8/4xjCV/++ST2Vgvgrp8xXIkS6jKuk9nQAFkfxqFnEJPw6WNoycolMzY8VgMz5lN/FKu55tvvlHJC56f6qKOipLFKs9vV7tNwX/hhRewdctWOc56iTJMKhxlBMKJOJjsYOJmodwjNcZG9sUyw2ZZKH+chqitptdAdFhZYiWbgva1nDxTjIt++EFdBIt3wUhue6DW0pproQ4tPcd37AnCLBaMHDVKjbhbtnw56uQct4o15blSAfYFOHZDCwNpxf7z8suq90vjP7sD3qMff/wRn4hCcIBWjghyawvMwiAN1YknnqhGHw4fPrz5l99AIX3ggQfUu/1ihMsx60fLzEktKKClpaXNawInTD5RnncsHn30EWV0aLxcYhhvvOmm5jXaBxX4/vvvV/eCCQ6G3Rp4X+gZ3nnnHeXVqbCtvR29LfvaJh17LM47bxoOG3fYLtEJrT6PwQbVOHm+rGPRSDMR88EHHyjvp4HDebU+OCokFbxErpfd2zxWe+gwlOJFMuNC7SdoCXgStJK8cV0BM1Wc30jDCWK19/SVV3yALJBxKhgNtIZatmpfgEkGNjMSFN5PxXLRE9L67g6oFOwsuPeee/CWeLnNcs+5X3ohdgNzYBeLg/yOz4MenbyNHqQ1lBcVS14mysC/FCx2En/44YfKOtPwJYiA0chxmIAaC96nj3pOXP8Tseo0Mh2Bx6G3YLcC7z2Ngjb6kUpBr8CiKlP8tOBUCo7jOfjgg5VC0+prAvze+++rgi9D7tbGgGB4VC73ltEMj/WuKBsTL1QK7oeeQhkqWY/7VAon39E4dBYdhlLcaYoIHm8SBydRGXjydHtsEefD6kxYxROke/vqq69aBhPd/PdblAWjcO8peLNpiQjO3scW9MBRgHszlKLR4H1gaMKHRSFhKwitMTuCuzKpG6f0nzfvG1U3Wif3mAJEwbnqqqtw9dVX4/TTT8fJJ52kPK1XngXHyvN4vD6GlRzWqxkxgh6D50UB47Pk+VHpaEz++te/qsQHQz8OA+ZCfsSOBnY3EHzexx133C4jKluDodd9Ysm5PsOvv113HQ4aO1b99qN4vCefeAI/iAekklCx2R3A6znjjDOUx2ObD7uueb48V4ZG3BcNDrOWGqjYNDoEJ7SmXDK0pKFgm881sl/u83AJ9xlJ8P4XCwekrFKh6MkYSnYIuVH+jhaxGP5ffvnFLwdkHlQtEr/75aB+Ic5+URK/w+EIuq22iDL4p0+f7peH1rKPNWvW+sU6Bl2/K4vcHP/MmTNb9isP0S+x+E7rfD5nTsvvcnP8YjF3+n1PF7GU/pdeeskv8WvLceQB+CXk9L/x+ut+UZKg27Vefv31V/9pp53Wsg/xRupcJQzd6R6LtfeLwPnPPPPMlnUHZ2f7/9fqusSb+CUcUb+LAVLnJ5bcL17fn5+f7xeOohYJr9Q18HkIIW7ZJ5/X3XffvdM+gy0PPfhgyzbidfxiPNX3lI2LL7rIL4Krfhs1apRf+IW/qKio5Xp4TB571apV/osvvrhlP6IQ6vz5fLXjCFdq+V0U3S8Rh188j/+JJ57wS0SiroX7FQVS23HfvPfa0pGcakuHoRRBEst+JBFsnHvuueo7WjIyf4ZVzAx9JVYomNsLBImiHFR9pgZz/tbu8BY8PxIqzVIyDOiM++9O0HWzis/Kv9b7JA9BebFbb71VFTNp1duDlhoneSQYFtAKks/RagbGxbxWWkSOf+dgLILcauUvv6j7HAy0mNwHnyGfGffPEIoL7x+vgc+DVpZehODzIhdhiNQWWKx8+T//UZ9pjdmmwxCNMsJBZR8JT9LS2Zdeeqnqmgi8Hh6Tx6aMsVuAmUqC3oD1If4NBkYh9DLseTv//POVZ+a1cL/kJoxkuG8mJ7Ql8B62h86tJSDRY/xJ4nO7KIiWbeANI6G+XFwyWx3YEBgMfCi8EP4leAM7e5KdAW8C3SlBBdWOsy9BYeVDYsZFEyyGA8US+zKMo0DyN3KIYCAn4TxbVCiCCsHhvNp1tQafCQmuVtHndZPUkly3BSotiXp74QSFS+t04H2koWGo2haWLPm5hcST7NJA8Nky7GE6VlNUrZuY9ymYQaSB4/VoikEwm9SWohPkMWeffbYytN2JLkkmHwQ5wQwhhUyNBbZtk8hxYoK0tNSWgmAgeCMCb0Z3Cy+VjgvBh76/WrmpoIyLeS/uuvPO5m+bLC9TprRs9913n7pfgeC9IHdj9k8DiSlj4vZAA3XooYc2/w+KgLZl3algR0+Y0KlUMttltNieSZMPP/hAfQ4G9rDRABCjhONo2THyBAnB1WeCis5jB1MKDeR/5DraOebLPSHB1p5ta3DEJq+/vX3uDnbbZJP8zZnzOSS2V/nvwBObMmUK5jYTvkDQmmjpN1qh7lIO7oNWRXO58eLGtbBqf4HXeruETzQSDC0CExTs87pOyGlgiMCwg0KtWV4aIF4Hi4fCBdpcWnsHehstbGkNKsbI0aOb/9c+eP/YTU1wnxs2bgya6aPSsB5BxaAMXH/99c2/ND1jZs0Ihmr0CDxnZs84/WmwhdEHkwmaB6B35btCgikG16GH4X67G3sUy0RFRarMAlNwTCNqVpoX83833aTia+2C6FozxQoE1hZaT3Wzu+CNDAxPGN8yM7W/wWtmjYO8g7PFM7OjPUTOenKPeF6Nc1ExAoWc06BeetllymMwe9bWwricmaXOgOdDXtFZHH/CCSqsIqigrSMBGiTWtLRroPU+rDkM4m9UUM17kfOxv40GlQu9arCF06KSNzGrRzCLxTRyMPDc+Kz3BrolyOeFMiWozcZB0I1yUBOLegQfSobcuEDFoHWgQOwpqGCsEGvgJAgsZvUUkPSxF4x5/EALR4X57NNPlRBxCfSwtL40NF1ZeI+5XVthBb/vSjsPR0uOFWEl6Bm+XbiwJWQieN+ZgteM0mWiyBp3CXY9FGSS7K4s3Kat6+F9bIt/7Sm6jf0y1mWhiXExQYEnEVwkXoM3iaDFDNRwVkoDb/TugPumy2ZdRUO2WNKuWMZ9AY3Q3iyeNCOgJsCwigLGhx8YbrFIRSLPVvzOLmyqJLkNbMMIBI/BWkdnQSW68KKL1GeGU2vEigdm1mjVly9frjw2j0nSrYHHCgxxSPoZYpNjdXbhPMbMnnEocDDl4P4D71m3Qtxg0Dzu7i7fffttS62Ceehbb7nFX1NTq36TGNovF6tqIPxdbpbK27feR1cW5r9fe+01f3JystqnKJ7/1VdfVfnswPX2dh2jswvrBaw9iDVsOZ8VK1ao8xXC3vLdhAkT/IsXL/ZLXK9y8p1duD7rTtrxAusYYiz8X8ydu9P5tLeIJ1D1KxFMtT3rBbNeekl9zxoB6xsSAajfWKtovT3vsXadElX4haSr7bq6iFK27DOwjsF61QsvvLDTMbtr6TaPoYG5dS2jQEvCKTI9nqaOSZIlvqxEs+Ykm6yD7K7XoLdgdoc1FHoNghmK0UIwtdi4p4EklHn8wPQi42+GQYGNgOyeZZ2IoQItd2cXrh9oqfcEtNK09Kx8E8yaLV22TJ0vOQfbgsghGD6dfsYZap1AMISktScYipE3aZ6xKwvvzb5Gtx+Rsa4mlLwgxokGw28Pijc5MAXJHhe2iewOSO44+QCLSAQVjjynrbl0ewqY8Ql82BRk/p9CxOIaQY7GQVfdlaAgGIywQ7or4LmyvYZgeMwsE4WcDYHbc3LUdyTNNEatwfBKm6hCvFm7xbqehg7vEglUewWW1tAsHUGlYDWSFW4NVArG2hoJ541itoLV3q4QcXoZtmA/+dRTKG32FiwMse+GlnNfgha0rTx7a/B+UuC1Ih6tLXkXLSl5RWACg+/xoAB2dt8dQo7RVetLI0ehZ22BYC+T6nkTL10gykvwBUHBskPsuwrs+OXzYmaLmaaejg7vEquxTAcyVx0sjx0IKhBbnCkoBG8WCz6Brp0ehUSRTXx0kwTz2kxncgYSbdv2QOvDnnxW4bVBSazKs52gs6MLKSAUOCpjZ5b28P777+OZZ55RRqEjsL2CSQctk8PKttagRwvLMIvdrsRaEUJ6VE74oCUw2oIW2mh1kO6CprAnnHCC+j9DV05z9N333yuPzUQHryFY+MZQir9p83/xHNkF3JlsJK+D6f7uvp7OosPuWp7YjBkz1NgAukLeDHoCulj+JWj9+BuLOxyERKtIq33i5Mmqg7N1So3b0pLkiCBpD50cgd27zHJwUrRIicW5DwowbyIfCDs4OWCH+X9WW7VXnjH8+L//+z/VhtGWtwjsruWcuOQ+tF7sImVLdFsLp/chFwoWKmjgOABOPM2u1WKxopyomkIReN08f547pwliBVxLZbJAqgkOhYvGhF6U94LXzWvki3SoPOxyDhRAcjhm/mi0OL6CxTPWAQKzUoHdtfROzBx1NdTkc6bB4v0QYqoME40gn9s5Z5+tXvJDI9c6c8Rnx4jBJjyEGS16CirHqlWrVMTAuocmQwSvh/LAGg+zdZQFclKNpxA8ttZdS07G16axXNDd6LBvQnuADI8Y99IqaQ+dMT1vBk+WD5MPkTeL37GwdcONNyK6jR4WhlRPi5VNePBB1cdPIeCDpSIq5RDFCMxhM3TSCkY8ngb2/bNJjw88kLy2h1p5qAzdglm51uCDYxszm/naA8+J5JQK+NY77yghJMHmJNK8N0XNQyu5aMkGNhYyvaqB10qyy0Y71n84Go3XS8FeLorCgh6FgPef++F94jPhOvTmNAwdeZbdAe8TPTK9PI2Adv40cEeIR6Axaq0UGqjoF19yiRoP8u677ypPSYPEAUZUjmOEv3DgEI0P07+8bt4vLlTyjjzLXkPrNFXrRWLclvRY60Vuhlpaf3/aqaf6t23L6VSLrzxg//vvvecX67HLftpb5GH5J0+e7JfQZJfUbLAlMF3blUUsof/CCy8Muk9tufLyy/1iKIJuL1Yz6D2S0Eu1jgfbH++bKJj/+r/9TaW8tW24HzEWKgXKv633y/OUcG6nfQWma8WI+MVD7vR7ZxemxQNb+7mcdNJJqkWd6dtg22gLf5eIwC+WXqVYA/dhMhrV9UiIvcv1nH766f4NGzbstK99la7tcF4paiyLZ8wcMbYMNkpMAwtMnPyMg0S6CnoDhi30Hu3NLMgw4RoOcBEPwRdNdhaLFy/GjTfcAKtY266AnIhxMhMEbYHWm8NP35Bwao6EeG2BXuSC889XnpS9UJ0hwiTq5FPsytUIeyAYZtCbMaER7BXFHNP92KOPqtcZ84X45IB8hdrugJ2yL8q5bJHwjS8C4mAjDpzidXUW9HB8xgz9gmXcGOaxsMcIgM+X9z8QDMUuuvBC9WZdHvccIf7dNT9YILo0qTOVhC6OcSBDHrpUhjuMI+lqGf6I1jevvftg/MrYmaEC3S9dr+ZSmQh4/PHHW4h7TwPjaC2lycQFhZHtKaztsEWa4cfugKHSxg0bVAaO4RLDNIZWjNN/j2CITjli6Ml3oLCTl608WiJif6PLs53vazDmZDxKsk1yRtx91124Xqw/FVGHjr2BTr1RaX9CyzyQ2DIdSkvDNB49Ezt6d9cC69DRHnq8YhCMJZnl0oqHrD8wzGI4xTi0KzGuDh2dwe9CMQim9thewMEsTAuTc7AqrKUSdeXQ0Z343SgGwRYDkk0OlySxJedg7psJAI4iZH5fh47uwO9KMQi2fLCwyPQuszzM9tB7JCclK6XpTNFOh46O0OOzUsFAT6E1KmpgKJWcnCLeY/9MgqDjj4XfpWLo0LG30bUeZB06DhDoiqFDRxDoiqFDRxDoiqFDRxAYuqPpT4eOPxKoE7rH0KGjFZRidGZMgA4dBxJ0xdChIwgMBgP+HwVYiwCufi3SAAAAAElFTkSuQmCC;" parent="1" vertex="1">
          <mxGeometry x="650" y="483.14" width="73" height="62.31" as="geometry" />
        </mxCell>
        <mxCell id="j9wAFBM-4F8-QUCNC5Rh-11" value="&lt;b&gt;DictionaryApp&lt;/b&gt;&lt;br&gt;&lt;br&gt;&lt;i&gt;Prices&lt;br&gt;Payments&lt;/i&gt;" style="text;html=1;strokeColor=none;fillColor=none;align=center;verticalAlign=middle;whiteSpace=wrap;rounded=0;" parent="1" vertex="1">
          <mxGeometry x="92.5" y="380" width="95" height="60" as="geometry" />
        </mxCell>
        <mxCell id="j9wAFBM-4F8-QUCNC5Rh-12" value="&lt;b&gt;SellingApp&lt;br&gt;&lt;/b&gt;&lt;br style=&quot;border-color: var(--border-color);&quot;&gt;&lt;i style=&quot;border-color: var(--border-color);&quot;&gt;Coupons&lt;br&gt;&lt;/i&gt;" style="text;html=1;strokeColor=none;fillColor=none;align=center;verticalAlign=middle;whiteSpace=wrap;rounded=0;" parent="1" vertex="1">
          <mxGeometry x="367.51" y="380" width="92.49" height="50" as="geometry" />
        </mxCell>
        <mxCell id="j9wAFBM-4F8-QUCNC5Rh-13" value="&lt;b&gt;IdentityApp&lt;/b&gt;&lt;br&gt;&lt;br&gt;&lt;i&gt;Users&lt;br&gt;Roles&lt;/i&gt;" style="text;html=1;strokeColor=none;fillColor=none;align=center;verticalAlign=middle;whiteSpace=wrap;rounded=0;" parent="1" vertex="1">
          <mxGeometry x="641.5" y="380" width="98.5" height="60" as="geometry" />
        </mxCell>
        <mxCell id="j9wAFBM-4F8-QUCNC5Rh-14" value="" style="endArrow=classic;startArrow=classic;html=1;rounded=0;entryX=0.5;entryY=0;entryDx=0;entryDy=0;exitX=0.44;exitY=1.011;exitDx=0;exitDy=0;exitPerimeter=0;" parent="1" source="j9wAFBM-4F8-QUCNC5Rh-3" target="j9wAFBM-4F8-QUCNC5Rh-5" edge="1">
          <mxGeometry width="50" height="50" relative="1" as="geometry">
            <mxPoint x="380" y="310" as="sourcePoint" />
            <mxPoint x="459" y="250" as="targetPoint" />
          </mxGeometry>
        </mxCell>
        <mxCell id="j9wAFBM-4F8-QUCNC5Rh-15" value="" style="endArrow=classic;startArrow=classic;tryDx=0;entryDy=0;exitX=0.5;exitY=1;exitDx=0;exitDy=0;" parent="1" source="j9wAFBM-4F8-QUCNC5Rh-3" target="j9wAFBM-4F8-QUCNC5Rh-6" edge="1">
          <mxGeometry width="50" height="50" relative="1" as="geometry">
            <mxPoint x="419" y="310" as="sourcePoint" />
            <mxPoint x="150" y="370" as="targetPoint" />
          </mxGeometry>
        </mxCell>
        <mxCell id="j9wAFBM-4F8-QUCNC5Rh-16" value="" style="endArrow=classic;startArrow=classic;html=1;rounded=0;entryX=0.5;entryY=0;entryDx=0;entryDy=0;exitX=0.546;exitY=1;exitDx=0;exitDy=0;exitPerimeter=0;" parent="1" target="j9wAFBM-4F8-QUCNC5Rh-7" edge="1" source="j9wAFBM-4F8-QUCNC5Rh-3">
          <mxGeometry width="50" height="50" relative="1" as="geometry">
            <mxPoint x="460" y="340" as="sourcePoint" />
            <mxPoint x="424" y="370" as="targetPoint" />
          </mxGeometry>
        </mxCell>
        <mxCell id="j9wAFBM-4F8-QUCNC5Rh-17" value="" style="endArrow=classic;html=1;rounded=0;entryX=0.5;entryY=0;entryDx=0;entryDy=0;" parent="1" edge="1">
          <mxGeometry width="50" height="50" relative="1" as="geometry">
            <mxPoint x="418" y="180" as="sourcePoint" />
            <mxPoint x="418" y="240" as="targetPoint" />
          </mxGeometry>
        </mxCell>
        <mxCell id="j9wAFBM-4F8-QUCNC5Rh-18" value="" style="shape=flexArrow;endArrow=classic;html=1;rounded=0;entryX=0.5;entryY=0;entryDx=0;entryDy=0;fillColor=#CCE5FF;" parent="1" edge="1">
          <mxGeometry width="50" height="50" relative="1" as="geometry">
            <mxPoint x="140" y="445" as="sourcePoint" />
            <mxPoint x="139.77999999999997" y="475" as="targetPoint" />
          </mxGeometry>
        </mxCell>
        <mxCell id="j9wAFBM-4F8-QUCNC5Rh-19" value="" style="shape=flexArrow;endArrow=classic;html=1;rounded=0;entryX=0.5;entryY=0;entryDx=0;entryDy=0;fillColor=#CCE5FF;" parent="1" edge="1">
          <mxGeometry width="50" height="50" relative="1" as="geometry">
            <mxPoint x="414.22" y="445" as="sourcePoint" />
            <mxPoint x="414" y="475" as="targetPoint" />
          </mxGeometry>
        </mxCell>
        <mxCell id="j9wAFBM-4F8-QUCNC5Rh-22" value="" style="shape=flexArrow;endArrow=classic;html=1;rounded=0;entryX=0.5;entryY=0;entryDx=0;entryDy=0;fillColor=#CCE5FF;" parent="1" edge="1">
          <mxGeometry width="50" height="50" relative="1" as="geometry">
            <mxPoint x="690.47" y="447.41" as="sourcePoint" />
            <mxPoint x="690.25" y="477.41" as="targetPoint" />
          </mxGeometry>
        </mxCell>
        <mxCell id="j9wAFBM-4F8-QUCNC5Rh-24" value="" style="shape=image;verticalLabelPosition=bottom;labelBackgroundColor=default;verticalAlign=top;aspect=fixed;imageAspect=0;image=data:image/png,iVBORw0KGgoAAAANSUhEUgAAAMAAAABkCAYAAADQUT//AAAAAXNSR0IArs4c6QAAAARnQU1BAACxjwv8YQUAAAAJcEhZcwAADsMAAA7DAcdvqGQAAAzkSURBVHhe7Z13jFXFF8cPHUF6RwQEqQIBpAdCQk+IEZCEhNDBRElgBWNCSDSGQCiRCH8QAgSkhk5wlaLUUAMqojQVZAFFmnSklx+f48773V0Wdh+s9+7unE8yeeWW9/bt9ztzZu7MubkePUYyALs9fPhQ7t+/HysZPNQwQiNXrlySJ08eyZs3rxae897TSNcATvR3797V8uDBA32fw8wARlbDiZ3H3LlzS758+aRAgQL6yHupzfBUA/A2wr9z505M+JjBMLITmIBWAAPkz59fH3nP8YQB3EuEf/v2bbl3754J38j2OCPQGrz00kux1iCFAXhKoca/deuWij+w2TCyPZigUKFCagRMETNAUPw3b95U8RtGTsSZoGDBgvL/YOgxxPmu5jeMnAo6d5V8zADE+dT+Jn7DBzAB/Vw1AKGPq/2TIyLDyPGgdzUAtT81PyYwDJ/I7Wp/mgPD8A01AC2A1f6Gj8RCIIv9DR+JtQBmAMNHcj3u/D5iysM///yT/FY4OOMx34gOeFgm5PI3F0KYF8JswdSTowy/iMwAiP6vv/6SX3/9VU6fPq1DUmHA5e8iRYpI5cqVpXbt2lK6dGkzgceEbgBqeS64HT16VL755hvZvn27nD17Vl5++WW5evWq3LhxQycr8Z3+izUHGKBYsWLy+uuvS/v27aVDhw7y6quvppghaPhD6AZgtOn48eOybNkyWb58uVy8eFEF+Pbbb8uPP/4oP//8s9SqVUsNwragAQhZEC8hTGrcHCYeM0r16tWlX79+0rt3b20VDP8Ivdoj9Nm5c6ds2rRJa37EXLFiRenWrZs0a9ZMihcvLi1btpQyZco8USsj/tatW0vHjh2fKI0bN9ZwJh4IvdavXy9nzpxRo4XRBzGyFqEbgFo6KSlJLly4oK9pffbt2ycJCQkyffp0bR0+//xzOXLkyBPXJjBL4cKFdSprsNChZWYfj/HAZ//xxx9y7Nix5HcM3wg9BDp37px89tlnkpiYqDG/A3GndzGOzioretKCUSRX4qFs2bIybNgwGTJkiL62DrFfhN4CuFAjdbiRkSvRHEOMn1ahwxyv+IFjCMsMP4nEAIaRVQg9BKLDOXnyZB3+bNKkiQ5FEseHzaVLl2TLli3y3Xffyfvvv68FLATyi8gMgPB69OghgwYN0o5t2DACNH/+fFmyZIkZwGNCD4GCIDaGOqMoJnQDIjWAYUSNGcDwGjOA4TVmAMNrzACG15gBDK8xAxheYwYwvMYMYHiNGcDwGjOA4TVmAMNrzACG15gBDK8xAxheYwYwvMYMEAGsi2YRP1nwrl+/nqKwOi+tBAHsu2DBAlm4cKH8+eeferzx4pgBIoBMFOQ/mjlzpowePTpFGTVqlHzyySeycuVKOX/+fPIR/xpg3rx5MnfuXDVARrJoGOljBogAWgByIh08eFD27NmjCYJPnDghJ0+elN9++03fY60ya5ZJGobYKWTSo9jdfDIPM0BE0Ao4IZMSktyo77zzjqaIbNu2ra5b3rhxoyYQJpmY8d9gBogYUsK0aNFCunfvLj179pRevXpJ37591QTU+rQAtApBaD0OHTokO3bs0DyrbCdEcjmXXB+DEGr//v2ybds22bVrl6abJOGwC58wIa2O20aKSD6P8+7du1dbpWBrw3lJY88xbOe833//vb4OK719ZpPncbz5KT9WWNnR+Eft3r1b7w1Qt25dTWobb07PzODatWvy008/aRjStGlTLRBGtgiER3oYQh3ETG4kMlW7u5eTqfry5cty+PBhzaVKKncyaNMBBpIEO2GTUZtz8RuWKlVKH/lfkl2b7Rs2bNDfm6zbCJrzFS1aVD8DI2CgFStWaI5UQjHEjyEwGLmTSFtP+kh+FzLw8ZuR2Hjz5s163l9++UXzvJKykv3SytydlbEWIAtAzeoK5qAgTl6nBSI9deqUbic8WrNmjSxevFhFz3EYgv7DnDlzVNS0MlRyHPfFF1/I119/rXmgOJ6K4MCBA3oOkpX9/fffeg4SGJO+nsLIFPv+/vvvOhL11VdfxURPRfbll1/KokWLYt/pad87K2IGiBjEghivXLmiNS4hCrUxtTXiJGlYiRIlUrRMtFZjxoyRGTNmyMCBA6VChQo6MkStTchC64DYESiJxyZMmCDjx4+Xt956S89JDY7AU0MINnXqVJk2bZreM4HWghrfmWL16tX6ukGDBvLhhx/KlClTZOTIkXqnHUKorVu3qnmzE2aAiCF2pvZFdIhv4sSJ8vHHH2vNS0eY/oELzxydO3fWWzxxJ53XXntNwyPCHozE+YjLed6pUyc9lpCnXLly0rVrV72XAkYjzAnSvHlz/SzusUCIVadOHS20HLQy1PjU9LzmHg2EW4RphG2EaLQSmC6sDIOZhRkgYqixSRO5du1aDS0Y+SGurlSpkrz33nsyYMAAFWSQYJxNjE5xUFMjVloWzBFMO0mMznlpZQh3gqTOlkfrgcEA0RPquNaK1JbvvvuufrcRI0bI0qVLtbXgbwl2xrMDZoCIQbz9+/eXsWPHyqRJkzSsmDVrlowbN05r8NThj8O9x2Na26FkyZIqZLedDjL9AcKU4OgOPOszgGMQNsdz957y5ctrIfzCaAxoVKtWzTrBRnxw37MaNWrotQBuDUXI8sYbb2hNTXgRbx5T9nemIXYPju5RO9MHYKSJ21JlFM7Jras4J6FPnz59NPan0Beg0BLwPq1VPN83aswAEYNYEKQLZdwtoKhJn0dIGIr+ATU/Q5VuLJ++AUO+DIdikDfffDP5iPTBAAifgokYuuU5fYSaNWvqd2bkif34/OyEGSCHQZiDuAlHEDxj/MToDJOuWrVK5yBxF046vBkFYdORJp09j+vWrdOpGowKcU6e03+h75Kd4n8wA0QEonIxOc/Tg9aAfVPvz/vUupyLR2p+BI5YaQm4UIZIESvXCapUqaL3RuYR3Pfg2GCLw3POxTb2YbsbRSKM4uYiTNjjvAy70nrRJ8jI35KVsCvBEVwJppZk2JDQhOFJfoP0rqLyP2IiHFeM6SsQgrA/5+BcxN70HapWraqjNwxNIkqeUzh//fr19apzmzZtNGzhe/A7AGP5FHe/ZBc20eFt1KiRhk2c75VXXtH/F/vRL0D0XBfo0qWL9mMwQBi/YWYR6R1imPw1ePDgFEN1YcGFI6YXR3GHGISHwJj/z7AlYkKkz6o9MYCbHo0YXUvA9AQqFSowOs2I1P0NnJvPIGbHLIQv/NbOaM4ADGE6UbvKKPj9OM4NiYLbhm5oJTiOfkx2q/0h+33jHAACRTBuOBFRpiceQhBGbihBsyBYhjtpSRBi0MAInVqacIdRJYQcbGXYl5aDoUxalGBLjMG4KMZ5g+IHt41zst2NVmVHzACG15gBDK8xAxheYwYwvMYMYHiNGcDwGjOA4TVmAMNrzACG15gBDK8xAxheYwYwvMYMYHiNGcDwmsgMQJYB1iCQwoN57mEXUoMwD97wm8gWxHz77bc6j50VTME56hmB/YPzz1m0weIOSkZhtRNJXVkQEvaCGCPrEJkBEhMTY8vxMgoLM1gS2K5dO11QglgR/enTpzVbMbkr403Nx8KOoUOHmgE8JfQQ6EUExgoqclZ+8MEHWhISEvRx+PDhumCb9arxwvcx0ftL6AYgdGEdabxhD7AWtlWrVtoSIFrORSE3Jgu3XaaDeOB7sJTQ8JPQDUDogpCfZyE8nVbCHJKystCbjMoUOrWk5ibpazxgHsRPP8Twk9DTolBzI1QyltEfiCdmJxsB6VRoQVwKcRI9kWaFPgV57uMB8dNycFui7JbSz8gcQu8E02ml1iap0uzZs9PMU/8sEClZCXikcD7M60aC4qFevXrajyCnDaYy/CMSA1DIK0PNTVpwbuzA6zAg7GHkh/SBdJwbNmyo4rfa309CN4CDGpuETmQwpkUgwVMYIHQ60fRDMILrUBt+EpkBXLhCH8Dlng8LBO9GkEz8fpPrcQf4EVdFwzaAYWQFdBiUWtBqQsNHcrtwwAxg+EjMABTD8A1VPeIn+7Bh+Ia2AMyHCabGNgxfiLUAXAxino5h+AKajwX+tAJcFHqeWZqGkd0g8tEbeyS/VpwJDCOng85TtABAKEQYxH2mbFTIyIlQ8yN+ChqPqZwNbkgUE1g4ZOQ00DYziZ22VfOPUk3CcS+ZrMY0Y+bgM1EtzLk6hpGZIHTCHcTv7qXs3n/CAA73NibAACyaoYQ9cS2nw29JefDogTz+d0ie3P/WTMaL4aIZanpEzzA/wlfRB37fpxogCKJ3q8bcwpN4VnIZT+fho4dy7eY1+SHpBylfvLxULVNVChcI/77JOQmEj8id+CnuvdRkyADAbm5XawUyj3sP7knS+ST5aOFH0r5ee+nRrIdUKlUpeavxPLhaPljSRuR/aVgCK7oN2wQAAAAASUVORK5CYII=;" parent="1" vertex="1">
          <mxGeometry x="130" y="104" width="153.6" height="80" as="geometry" />
        </mxCell>
        <mxCell id="j9wAFBM-4F8-QUCNC5Rh-25" value="" style="shape=image;verticalLabelPosition=bottom;labelBackgroundColor=default;verticalAlign=top;aspect=fixed;imageAspect=0;image=data:image/png,iVBORw0KGgoAAAANSUhEUgAAARkAAABhCAYAAADiFtUPAAAAAXNSR0IArs4c6QAAAARnQU1BAACxjwv8YQUAAAAJcEhZcwAADsMAAA7DAcdvqGQAADygSURBVHhe7Z13jCzXdebPTPfkNzNvXpg3L/ORFB8zlahASrIpSvRashV2Ja2xa9iwscFeCzAgB60BG1gDNgz7/10vYMmyjN21sbbWilZYBYsKFEUxZ/Lx5ZzmTZ7pMLPnd26dqts11RMeRws8ub7u29X13a9O3ao+9/QN1dUdSwpZIxqNhqV6vS7NZjNhS5Qo8ZOKjo4O6erqkmq1aqmzszPJWTvaBhmnFxcXLajUajVbsk7eOmJTiRIlrlEQZDxVKhXp7u62xHvnV8OKQYbAsrCwkLZcysBSosQ/bxBcaNHQuunp6bH3q2FZkGGVRHCZm5uz7lEZXEqUKBGDYEOg6evrs+VKLZqWIMNbukO0YGZnZy3AlChRokQRCCy0Zgg0dKHaoWUUhwBDC6YMMCVKlFgN3uMhXjCk0q7Hk7ZkWNCCmZmZsWUeRK12RtYKb1Ll7RTZbqdth/Xqi9DuGDeifKCdnbXaWG/51lu2EiWuBvhOb2+vDAwM2OxT3pcsyOCMtFyISPPz8+acntjAE+u0dmzDhAPwvszznhdPfRXZAK73gvq628jbdjgf6/Na18flKNKCtfBux2fbQKxfi42Y93NyteVzDsBhx7mYL9L7+S5R4mqB/2zatMmCTezDwIIMDs4gL8lnkdwBY+crCg5wBChlyAg82/MIJqQTLtKT0dHi2KpdZItWLbrFJfYZ7GY0ttVGwntGahttJxyJwKiWlbeDT7TBxmKwkWoTXu1Y+SDQm5byYbu1Qi4uNs0GOqeD7fCe40HPKnaDjcB5+YJey6e23Qhlg8N2a/mU1+NJbZBUt5js0Ci0Ziez21nJyu37A3mHAK4rUWI9YFxmaGho2ZeWBRlvxRBkioBDFgUYtpuamJGpySlzfAdKKgPubju0da8IScXBjq2FPJZphUwqgC/TfZouaIFVSqC8VV9dBq3u07RalsSGBS+F75PgRQnctpUh2SbVRryD4KNEK5fYMN7KEfi4ArM/tvEg5eWL9xn2mpWP0sbnJCjDMWAHGK/JkGiVSLlqV1W2bN0s/f19FqxivTtDun0Cs1GixFVgy5YtNq0d+5AFGbpIPnhTBL+6lw19Y7jJiSk5cfS0bqctmcRZY4fN9PChQrAauFZ9kTbwyUsLB5ktPQBS+9SK8WbbNgq6lEtsgJj3/ToHYn2qTWxmfMhjtcg2YmtJGZnw+iiyDVIeLQ/ljUv267qUX8mGgkCydduI7Ny9Q7q6qy28w/Vuw+2UKLFe9Pf3W2KK22GeRsDwQOJwxysKMPBUnGZz0fLD+qIl3jucR+d5ZLNtXp/ZCMuM17SMC2WD8/1bHs+EN31SuVs41+Z4DwSeH+udN67lWEjZ8Tjn+nBeI55noi20HfM8Iz4+lhYebcKzzj6d91Sr1aOWVDaeBFxTBpcSG4F4yMXRocTS9PT0sq4SIpwV5AOM501cmZJjh0+mTt3X1yN9/b3a/9cohj7RArUQOIWylgeCXRIctL7Y/izX+CIbrTwvvGpSzuwblXAKtDyseqU8NiBCJXMtCN292IYK7ckGVhIyjfdygFQfl4P1sIGmoA+rvNq7xEaej2wrl+zVsKx8Jg/6Rr0pszPhQkowNLxJ9l63W3p7exJ9AForC7YTPs4vUeJqMDw8bNfPpD6ljmhBhi6Tw50v74AxZ0FmfFKOapAhcoFto1usac44APULLbDNExvw8XhIqDf6otqUt4FORWKDRxjLgMy0tqZkVj5/CXywndjQloB9gycc8NZBrM32GcZJAk/XJGkJ8Ij5JMBSZh7GpzYYdIUzccqDZeXDhnLGJ2hXvpZxJuP1JbGBYG5uQc6fvWiBBm54eFD2Xb/Hgowjv894vyVKvBoMDg62zDJ11Gq1Ja6N4aIahzsgcOfLOyVBZvzyhLVkPMjs3D0qO3Zut8uM83pQxAE4X66kJznXTguKeOdIsRa4FqzUegNFXQ0AH9smuQ2S2wVuF+S1jna824nLAeJyz2hwOXnstExNThs3vHlI9idBxu0W2XYUcSVKrBU+le3jMm2DTIzYKQFLxhquaJA5eviEOTjc2K5RGR3bpkEmGWDUJwGoqflmg4qgJtDyAMpqnr1NvpRDDt/Wvs+gDzA7uoy1gQtGjIl5Tbaet6EJLtUmvL4ELXnGJTxSiJR3G1DY0ACT8LZRYgO18X7sPJSHQxdsZ1pgLZUiGwlvnCYAX61WWn4VOz09KyeOnZLpyRnTDG8eluuu3y3dPd1mI5Q7swHMtiLPlyixXqwpyAB3unZO2Wg0LcgcP8qYTNCO7dou23dstZYMwYWWzrmz52VhfiGtODYFbHD7tohsJzw2lQpTtYlIF1oafeNlSbS2CGW0jVr4AtuWgQ3WEr091Qbry2wn1DLb7DM6HnuSkSsfL3o8aTcwwerli3h7Li8fGB4ekl17duqHO2Dr01MzGmRO2xIb5O87QJAJLUy4zPby1lGcV6LEerGuIOPJnc6XcE2CzJVJOX7kVKqjqzSqQYZvTKa3n3nqeXnqiWftZwqh2gB34KySBMAHznNChdI3ahtkvL9mvHGUL681WaYFaV5iI1vnxV6VztlJliDlwgYJkbOToJXjNTAtNgrKF8oG8nrlbSXTb9m2Rd7xU2+V/Qf22udAcDl5/IzMaIsG/eDQJtl33S77XFj3zxH4Z1cGmBIbhXV1l3wJ3PncKfn2y88uEWTGNOHMJ4+flkcefkxefOGQbQdiGzFW4zVH88K7uBLE+vVoQX6fYXVl26vZAO32uR4tCHnZsYAgX26nU1tI7/n5B+S2O242nuBy6sRZCzag3exS3IKJ+RIlXg3WHGSKKoPzrLMMYzLZwC9jMgSZru4u7Uad0CDzuLz80mHL47L23r5em0JOTatZd+3A8cI3Le/DWnhRxNr0RVFkIzHAq8v8TaFthfMgHLsSCWd20g2y8oH0PCnptFOGzExh+YDToLB8sQ17CUF+YSH88pX0np9/t9x+5y2mYVbplLZkpjTIkDe0eVBbOcWzS/kBZFAGnBKvBusOMvkAA3BMnJwgc+SVMPALbHZpbLtNYR/TIPOjHz4hhzTIsLPNI8Ny7zveLF1ccpxO92pSmz4ly55sjCPxcewGLtGCRN+hm9j4jtK2uU8xqy4e9zHbjLmyz8iGHQtm7SXwfoyspfuE4xHkSnn5qOhKwkOZjWx2qVWbtBrg42PHrtrggdbLZ2UjKdJyGMI+yR+/fEUe+9GT1i1l/Wd/7l1yx1232mdDS4YxmfzsUk808AuKAgxIz1OJEleBdXWXHO6YOJ87oA/sHtUg43k+u8Rsx/FjJ+XRR56Ul198xX7LMLpjm3zgX70ntGY6mQnJ7OrTtrfrPhTKpIErq3xBxwsLugg8WHM71uy3CmwyTSHwOB+2pMKHpdlQ20GLjTBL5r+JymxTDtUrH7Z0Pg4OQWecrnkwUTbSsj/06EgEnkRrNsL2IbjqI7URtOQ5zp45L1/7yrfk8sXLdjzvfd8DFmSABZmjp6wlA5hd2h8N/II4wLSWL6QSJa4W+SBT+FUWO1k7B3RnbeF4UEGMi5zYqkmHtnC6bObJp1w9MeVNogVU0TwqgN9H1PhU32n5gQvazEZyR3VsuDbi0bLENtt3a5fO+FQb9pnaSGyzHsqnettv6z7z5eM93UWzvUwLn2lZBptejujYW2xkZTM71S7T5kOBfw7W2rF3yeejS/tsks+xKMAA375EiY1EYZBxuAOGoJEEEl3nm9Z4HnEeLYRkPaECQoxp1eZsk9w2WE1bxMdcngfWQog4lrGWyud5zoM85/oibVEFjrXAtXnej91tkBfbTvX6DLyxlpdxkLpPHoleWePT7RO4Hi7eZ4kSG4nCIOPOFzumOx8cCJy9TbU4eqGTwvOicC0ptp3aUDgHVuOda8c74uDl8GCZRz7Q+TYr7ROsNcC4PubzAQbEWhDvz/hkc+N11XlbT/LC9srpa1E54OJUosRGozDIOGLHwyG9UsKl93JRBEdO9PYuc+JWBM5teGI9th3zwNcdeRsxB4r0MceynT7PA+dIee1KwcG1sR60s+Ecy5VsoDfOxNn+XJ/QBjiQDYYvL4dvU6LEjwOrBhlH3jEBTAuvD+ecB66Ggm+xoetxJYt5t1HEO9dO78jrY05ZaS51ynyjQ6bmO+TSjMj56Q45N9Wpy065MNMp43PkiczXtbVhF81lttcSYGKOBPLlA3l9jLydTKspkrbYIKV2AgfcBojtcixxXokSG4XCIIPzUXFiJyS1OvFyZzW4Vt9mdBZ83AaJ9dUCTAzni7R5HsS8g3X2OVcPweSVixV5+kxFfnSiU75/pCrfOdwl/3S4R/7plW75zisV+cHRijx6siLPnavK0ctVDUQdstDIyr2eLlKej4/d7biWBFxfxMVotR3Orb2D59PQVbfRql2+zxIlNhJtWzKx45GKHBPEPJxf86JkcG6FafWZ1xbZAM6vFuiAfwO342MbjabI9ILIWQ0uj53qks8+0yN//aNu+etHuuV/Ptotn3myRz73TK988dlu+fwzXfIPT3XJ/368S/7Xo+h65X+o5h+f75Lnzlbk0myH1Jqderxmum352vFxgCGhAb6M9W4DpMfDunGBj2FT44p0e3+oPrYL3HaeL1Fio1AYZNyhiyqwOyW+HXO+hPGKkLq/km7Dt8lXMsD2Me/wfcZa4PtdiddXe19raFdoSuSR413yiR/0yycf7pNvH+qylswF7RpNLXTKnAYNdI3mkqWaBqXZekUm5itydrJTnj9XkS891yX/9Ts98pmneuX5CxXrTtVp2bQpHykOdCA+RvIAOueB690GcC1wLkVi3vl4f6CId9teDpb57UqUeLVo25LJB4HY+cwx7UKxDO6s6fUx+HSuHjja2faKEFfKuCLEWmzA5yuH24b3Sjmz0CH/dKgi//37vdYieU6DxZz9tRRaL6SfirjgcGo3se38VK1q3an/9t0++dTD3fLSBQ1OGqDiclA2yuLrjqLygaJjjI/djxPYsVMWVl2vq7E+kRrQ5m20aiNxiRIbjMzLc3Dni50yriDwocoFZwVIE7k5Nq9ArdgS+O+cYtvYddvx/ooqgnPAOQDnNhwNXT07KfKPz1Xk/zzVI4cvd9kgb9gcbbCjEVN6qksyOrAo/V3Od8iOwSXZqlx3J5zbDqeMa4IYEH7yVKd8WgPX9450yRVt1fhl/6S4UoP4/AEvc1zu/HEWHXvgkwCoRWU9voev6ZNDgwPFNoptlyixkVg1yDioCC0cvpg4eAyj3VmzzRXZN3tsx7WvlnfbXrEXNJi8dL5D/v7JLvn6y90aADqlrvFNN0Vt21BAtGODi3L/TTX5wB3zFlTCaemQ28ea8sE7FuSNe2vS382G8QFRjkVrwZy8ot2o57vlay92yfFxDTRR+RweSDzAgPUeY8a3Bi+gqpag5p8DIM/VedsO50uU2GgUBhl3QHfCZQFGoS5pD/fekEcrIftGNff2bRL/je3kHb4dH3NFfL58S0sdckwr+7cPVeWJ01ULMLqVVDqXpE9bKp38utLQKZv7RF63uy7vuL4mu4ebUq2oDezos797UW7a3tAA1JA7di5KF3mGRamojcFetaDa5mKHnJvslO8drsr3j1bl/HS4S53DA4xzLONjcQ60O8ZWXknL4jjCsbgWuBaYXh+sttrIbHv5SpT4caBtS8adrzDAJM4KzIVTh1VnVTrvxJBcYhK4jE9tFNiObYBYG/P5CtzQCv/yhQ751stVefxUVbs04dt9i7ZQ7r2uLlv7NUB0ou2QPm2d3DzakLfur8uuoRBEeFgZk3L0dYm8Zrtue6AhN+9o6Lbsb0mqauOGrbq9tnawwy1Gz011yMPHujTQdMlZfc/2Xr64lQFXdDxwpJgDhTzbBxMtSLX6PtVrQIyDv9twLYj5EiU2EoVBxh0vdkBH3jH11d4bB13grEbzsLwiGwHOB10r78jzsZblhWmRx05W5EkNMLRgCCh0gd52oCa3jfEXIVR+1auWwHLHzrrsHQmBJ7Vt+8vK11MVuWFbU7tPdRnsIWhol0hTXQPa3XsbctuOugz1aNk1h4v4Hj1RlWfOVKQe/pGkpXzxcaf7U/ixgyJ+md7nzrUcDt/ekGh9e3JiG84D5+P8EiU2Ciu2ZEDRGAIwh7R3kXPHTgrldK4ikNC1jCFEvKeYB86BvB7Um0vaiumUZ88ytUy5O7R1siRjm5pyYEvTrm2ZWOiUhgYZujsjfU3prS7JRQ0MpyYqdnEe09Z0h8B0rVPOTFbk5JVOmZwX6VZbA93kdFiL6fh4p7ZoluT6rU0Z6V+yQEXX6fREhzyhge6EbqeFS8sXHwso4lcas3H44HKMeD3cBiPAeH3GNtwucN4550uU2Ci0DTKgXYDJBwcHFMm1PFoQ2Yjh+qKKkOdBEc9g64nLIo+frGrlrup6old+QVsUj5ygG9MtszUrIBkaXDqM/+LzPfLF57jCl9aPbaSJq4Gr8o2XqnZh3pef65InT1dlvhGCFyam5pfku4crcmy8okGn08Zn2HauLhbsHtKu07QGtaBvHfvIHydYS4AxTpemjXhH0Or+9NXtoivaH5zvM+ZLlNhIZF4dwZ2vnWMCVt0n4Vp51Zubx8hsFNmObQAft8jzrncbvs51L9872iUvXKjaTwYStQYFrfAXK/L9I902C9S0bgZjKCJHx6vykAYeLsp78JUu+/nA9ALbhpvt0BL5wbGqfPuVijx4uEueONUll2Y4ZdggYCzJi+e75OFj3doSYvYq2CZNLFTkqTNVOaT7JgDGx+LH42UHXtmB83ltek60paIZxjtatJaC3YDl+3O9r/uyRImNRmGQAe6QnsCy4JA4curg2nqw/xdKuPROd2ZDlwnvcNumzVUykNpVuNb1DtbpPlDJnz3bJeOzwU5nx6J0dTKYK1KtUG5TW+ItXRsGesnv0i4PWro+WhJ2jNhsVLGhVNB2qC3d1manSOyLsus+Iht2Bz09F1w38+RpriLW4IBB1LnjYZ0bUDmKgqtrQfwZKMlLeB8hDMDHeiNbbPj5hvMWVmq3RIkNRPC0FeCOGTtgcHqGPtP6aAi/W8paQan7qwZdXEGCjdbKBJx3bawH+QpiSd8f0y7SVI3KbTmyuW9RbthGWpL9W5o2dQ0PGMjdOUReU27c1pAbtzf0fUP2jmhel0kUwcZ1WxY1f0mTLlVz/Za6btvUQEO5Qtm2DyzKgS3Yaeq+RIb6jNbWVYccvdQhM1qu+NoWLzeIjz2u7J5ibXz+8nA+6I1o0YbPpnV/ILYN2tkvUeJqsWKQcaePndudnm/rwIWKELTqsG19NMtwG2yft4ud2NFjLuYBeaCx1ClHL1dk1n4qsCTbNjXlPbc25OPvWpDffeec/Ls3z8vYYFPLbLVPrtu6JP/29TXNm5XfuY80J7/zzgX55TctyE7VqWHVLcqb9zXl1++tyX9+17x8XO38rmo/9lNz8m/eUJfhvqwsb9lXk/9wj2ruX5CP/fS83HdjXborXKi3aNfMHNcASBsJ+HFyLHGwzAcYAOfHmA+sri8+r3yw8f7CF0L+c3QbbrtEiR8HCr3LnRXEFdv5uCKAVKtdkKyL5C+t8IrjNtyO2/aK4Hxc+RxwMT9vt23o0G4JwY8Wx6LcNsZPBEKrhTYVVwBrLlvI6KZFGelflL6qpq4l6e/mmhm0lIsyM8VE16hDetUGM1C9qu1VLRfgbRlYkoEeP7amTC3QhVIbqh3uXZI9w00LatiY1VbMw0e77AeXfox+fH5McCDPOR8HATg/dhWzC0PLeXVSYTb06Tetcvv58xrv+1pCo9GQ2dlZmZqakvn5+fScOeCmp6ftRvnpeVOg408H2Y6Enfy2RThz5ox86Utfki984Qty6NAhqdfrSU6JdljxKyx2PD4AUsrpk48k/mBMCQ/XwrexEXFFPE7BuleyOA+4nqlnbjjFwGu/BoudQ9qasZ8HLAn/2c1sz1wyK4QJgkz4jZJ/u1uxMZzYZi2UmtW4AjM93FMhmLC9zXfL+Fwl/YEkF+tt6dcgo2XARq3ZIU+cqlgZGDvyMgNseiriWc8HmLzWPoQEzpOg0SYZ4YjglYsDDAm47XSbawSXLl2Sz3zmM/Inf/In8pWvfMUCh4P3n//85+VP//RP5ctf/rJpHQSm73znO/J7v/d78md/9mdy/vz5JGdlnDt3Tr74xS/K5z73OTl8+HD6W7wS7dE2yBQ54EpOGXh14vQaDk1BqgjreRvAbeT5/DctgCuqIPxeiErM4dAqGdLWBNe0MA7BjyQXNMBw/Uoo0pJs1gBBqyT+RwXMMl4aEAKSlTol2ZfuU1/5eYIHKbSz9U5ZUF9j5opj2dS9pIGGPH7HJHJlfknGZzV/afVjb3c+Wvms2+OI9a4FxuuD1XbnDy28b3MtgWM4efKkfO9735Onn35a5ubsGgQDrZinnnpKvv/978vDDz8sp06Fv1T2vCeffFIeeughO3Y/F6uBwHXx4kVL7OtaPGf/v1EYZOIT3uKsSQKBL6ggurR145wPKdCBA+7YsQ3Qjgv7DDY8D46L5eraHWJ/XCR3StcfOc5d7ap2Hcyz56p2rQylM/1Ep01HMz39kGoeOlqRh49xh7yqzGjAUONYtovqHjtZVV2XPHycqWreV3XbTpmYRxOCEbNIT5+uyENHsMP+uuRSMsulR2n7pLUTRkYC/Hjyx0IC+WMHro2yFCHPEdsAZoefFSTH7pzbd33MXUvgP36Ghoas8p8+fVouX76c5Ghwv3JFTpw4IePj4xaILly4kAZZgsyLL75o3ai77rpL+vv7r8njvxZQGGTcGd0BQeyUITgoxyP6YGJt/gNjNT/DAvLaosDDepHeOS7l52I4wO0XHtcg8Plnu+SzT3ORXY8FEm5GpVtYlXz0ZJddfPfZp7vlH54Od8D77DPddo8Yfoqghk378sVO+dqLqnumR3VoNT1Vla+90KWBSvtMSTkuayvlO4cr8jm1wT6//lK3XYxHgMGOCmVqgVZN6/HExwL8eIq6SCB/PgLfun2qTT6blHM+2qfnxZwvrxXwJ2LXXXed7N6927pDBBXH0aNHrXtDACLAkE/3hkQAeumll+zygdtvv136+vrM9whIzzzzjHWlvvvd78qzzz5r27KNn1uAFp7WEzpaRIzR0A0r0YrCIAPyDkhi3b8JGOCNHdK0uix0USNDjtuNbTvgQMy7FuR5B1fx0hVR1sZluA/v8fFwJe6J8U67sjdM4ZI67U545B+93CHHLneajvUzk+HOeEG3JJPaWuHnBscuk5jB4tfdnRZgmJYOYJ/aV58Kdki0rLIrhykXF+ppGfTU+fHExwL8eFYdg1E4HyPmgt7eBi48W+y43rk471oC5+vAgQNy8803W+B44YUXkhyRJ554wgZ9N2/ebC2Xs2fPWhDw97R6du3aZYk/ziNAPfjgg/I3f/M38pd/+ZfyV3/1V/b+a1/7mo3Z+PkF/Ovqj370I/nbv/1b+Yu/+Av55Cc/aWNDP/zhD9MvyhIBbYMMiB3PnRLYYClXnSZw3u6WF+n1xd7Hrut28k7tvNlW3tdjreudB3AW8KwaoQ0XzvV2hZmhnq4lXQ9av5K3u8qM0WKYNdJ813Yzu2R2CKThx5XMOJkmmV1C26NJd5EcX9hnt89EqaZHtVyUF448DhrFrTR3yvUEmGW8lTucj2VQKv5SKLLhHOlaA0HihhtukImJCXnkkUesC0QwoXXB8d1zzz0yMjIix44dsy4Vs0kM2vb09Mib3vQmW8IxmPvpT3/axmr8XBBIPvGJT8i3vvWtlpkkWkUEtOPHj9vnR8BikPnP//zPrfVUDghnKAwyfDA4vFd44C0YX8en8Ud3ytRZeSQfEAg8KePhUn3COe9wDhTpgZePi+b8FgxMI+8eXpJbRptyy46GHNxWt/vEEDAAZvYMKz/akFvGmnLrjiVNqlU9P6LstQFdTgu/3l6SG7eRV0+0i5Zes23R9sn+QK8GrX1bFsM+1e5rtjVkdJPmpQPLGngqYURmpWNxxLxrgfNmIwryQJmWz4yt3YYdT26fcTmA89ciaKns2bPHujxUcKaZjxw5Yq0VWjj33Xef7Nu3L+XpEtFV4i9/b7zxRjsPzz//vHzjG9+wFsqHP/xhm5H64z/+Y/nQhz5kA7zf/OY3LXD5OeI8E7x+//d/3wLLxz/+cdm/f791mb761a+Wg8IRCoMMcKfzxAfhTpzPz5yVFkjIcyfmPVClvl9MK4HD84tsg7yWBIfW10cHm9pyQNGpgUHknTfV5dfunZffuHdW/v1bF+TnbuOKX7NACeWBgzX5j/csyEffXpPfeLvq3jYvv3bPnHz4zjnZsUllSXB4/e6G/NIbQ/5H37agWtK8/PLd8xqk/FutQ8aGRD54R01+/d45+U+afunumty9T4OQHQIvISh1VdceYPwYHTFvNlLbwYbzpuOhy5TnTbJ9i40EPwnN++HhYRuXYfyFVgpjJbQ8qPjXX3+9danoTjHbxFgN4y4DAwOWx7Ez+0T+3r17ZWxszLpUtIjYDru+HdfTAILaG9/4Rrnpppts8PnWW2+Vj3zkI7bPT33qU9aqKhGQeXEbtHNA57huxAFHyjuxaZe00nRkv9EB2M5rgduO89w2iDls7NWWSrdWYCo8s0j8+JErbrllJhfPcYEcvzmyreiy6Lse1W/qFhlQDdPRA92q76FiZ2WpdhCcuPBOdZrQ9+s69/wNvhb2iWZQt99EUh2tphoNnSgIbB+kG2dvW45lxUCSIM+necHEMthlBBxlaoPtg52W7RVwIOauRTA7tGXLFmtt0GX6+te/bsdESwZ+x44d1tKhy0QrhmABv3PnTuvaTE5OGvf444/LH/3RH8mv/MqvWPrDP/xDC1qcJ6bAvRvE50by80aXi30QcOg6EWTKLlPAikHGu0jxyYRzPnCBz1cE4+w1wDiekR3g6wDOP5jYDrzbzldKcGAbwUTzNYtfUU/M8bcmVHbu99KRBga1RNWzH1FyQ3ErodlIbHtZjGsm+wu8qQlQlFGzZxtEjKAf6iXI0UoLZZ6udcjlmWCfsRl+PzWkwcfttzuW/PkDRbxxyfnzMrCA9/Pa8jfCyWM123HetYbBwUELGLQ+fvCDH9iUNTNPcAQgWicEFYLMo48+ai0eWj9wHLf7GEFidHTU9CRaMQcPHrSWCkEqPkf580X3i2ATfw4l2gQZdz7gJ5JlC28Vyt62aFtOfKA1I1kq0PIBoPNK5tuQ5zZiDuQ5/xDhhrS1sn2AQLIk8/UlOTvZIRdnQ7OB3yvRqunTVgZa3YNcnOmUmZqGHLUT7zMrZ/INlPCWp0BLaeqL/E8TevhF2apdIQZ90RGAmN2iDLqFDRLfva9prRiClB+72wRmNy5HgiKe9dSB4Xiy1P3G5yQ+5yC2AfK243QtgiBDQKD8fk0MQYKAQbAhj5YGF9HRkuFc0VUiqDCzRABhOvvOO++0FszHPvYxS7/1W78lv/3bvy2/+Zu/KXfccYcFkiLw5UjrhS4XYJ/X6rncaBQGGUe+BYNTAnNGfbDmHEDqp9Wc2BRwgXXHBvEHgO24gnhey/4ifZ5nBojBXWaAuML28KWq3SPm269wn5iqPHayUxbq3Eycw+2QI5c77e9nHzxUlQcPd9u9YkjcNnNqIdjm1Jy4Ei7o4z+bSNxz5tuq/+Fx/v5EbWnQ0BcLWo+dDPtjv4+f5A/j+IlBuFH5bWMMPC8PGMDPyVr4lON8ulaL6zxwvf0ESxH4tdsO+msPBImtW7daEGDQlRYNQYFBYfx4+/btFnAA09rd3d3WOiGwkMiHI0hgg9mqW265xcZ02J7B4rglwwAxM0wEFsZvCGpMmePHd999t10gGLdU/zmj8gd/8Af/hcGqfP/RHZDkjhdz/M/P3Ny8TIxPaH7I2zS4SQY29dvJnbgyKWdOnZXLl8ZtfZPyt95+k31rxCc/dmy3DfJBx/misihrf+D28oWK/RMkd6+jkvOPBfzx2uHLVRmf5+51QctPEM5PdWgwqshLF6u6XTXoLoWrd/kTft2DzNS5Tga7nZqvWtWhPXKJK369LB32swKunTlkOg1O453WZerTVgwzUT91Q81+5hAfB/BjXwvvXICWbXpGDr18ROZmwyzGaw7eIDvGRk1fr9XV+Se1ooXf8fCtOjIyJJVqpdA2KAry1xLwKaahn3vuufR3SL/6q79qwYKgQSIQ0IohkBBUfvEXf9ECE8dLoGHshSlpAgcB5JVXXpHHHnvMLsxjPIbgwXgLP1Ng5sqDCzNKXB+DjkD10Y9+1Gat2rV6ftLBOYjreWGodSdzhySB2AGNsjpWXEH4siUvRVI/irRwFCizXbS/rCx5vkPTvpFF2baJa124z65YsOAevLRGuE/vAnfLU52+CH+Yzy0YuE3nCbsQr0OXyS+5m3pKkvEMrh7mpwXcIQ87JC60Oz/N4LIdvCb9lpvtlFNX2J821TU//OSgwwaVb9jasOtx2K+XGRQdI2h3jK16e5tguZ2gt7eBhyMldmItiG1fqyBIbNu2za7eJaj6rBIOD3B61hlfYVaJVg3X1wCOm1mi97///TZQTNDgmhcuruNHl6wzBY4t/JQl4zxMiXP9zGc/+1mb4ibo3H///fLmN7/ZxmZKBLRtyQB3PhA7pjmrfvPNa5N08sqUcYBWzMBAn32gk5NTcjppybDdpk0DctsdN6fR3R0etGvZeOCJuWXlSPiBHn4k2aldlw77U/2Etts10GWxWzMoyQ8m1YrNADETxL8MMLNEQCBAcW8aix9aLbnRFeM9m9T2QDcX25GBDZaUodMGnAfVBgO80Iu0gjRIMXtFgPnpG+v2bwlFxxgfCyjinQNwbofze+ilwzLLDwI1+yZryWw3bU1bMJMT01KvN2yb7t5uGd48qBUxnE+3Ddy+243zrjVwDPgXx/D2t7/dWh4EHAfBgTzGYd7whjfYFLQDn2W6mpYNOgIRg8Jw6D7wgQ9YF4hAQqKFRMBinMenz7mwj0AFdy2fx1cLzl/ckumo1WpL9C/pwzrcqWlCc7LiE+ZOSd6EBphjh0/ae7gdO7fLmKbunm45fuykPPLw4/Lyi69YM31sbId86Bfep/3a3tSG2/VlzMf7bNeUd94Phj+//8IzXfK9I5UwZqKBgLvU3baDi+Oa9rOA5891WWuFgHFwtCn7NzesK7Okdid0G37XxC+mqbkHtzdtZojpay2WdZH4V0p+OkCA0S9Pecv+uoz0LpptumXcP4bicPe8n7mpJve9pp5Mrwfkj5HkXP7YnQMxz3GfOnlGvvqP37Qgzvp73/eA3H7nLaafmZ6VUyfOyvTUjOkHhzfJvut2a4XrSW2AeJ9+Dq9l8EXJeAzdJsZP8uMi5DMeg4aWBlcB54GG+kDivBJsSP7lyLbYAAQw9Eybcw4ZfKaF85NwLl8NCOKcG1qXoO3ZcOeOkXdKd1fXxj8riBEzbgOgjfXOm23lWV9rgAHcwuGuXdxKM/xRG3vmlXu/vPPGmrzrpqYMa9DxTfaPNJSry4deq+mu8J6/SdGSWP7B0SV5763kLcgH75zXgFKz625oqWijwP47+361+6Z9dWvtLFkrhtbRotw+1pB7DoQA4+X2Y4+Pxbl2POAY4+O0Y0/0ebgNzzEb+ox/VgDcfnyuPV2rwKlxcKatfcA3Bvm0Oph1KgowAA3BCRu0TrATj60QvBjPIRFUyKfbhZ595/dZQn0vWRbCHRC4A7oTG2cpc8rY5bP7ygBygjoOGo7YNvv0dd8eLv7w4gCTL9+BrU0NNIuyY5BW2JJMzi3ZrRy+e6RHu03a2lKeG4cz1f3i+YoculRNBnrZPtgJ8GMMdhmfYfzm9ETVeGa07tpVt39J+NLzPfLMuarMNbgIkJ8iNOSNe+oakFrL5rbbHXueB36Mvp4ee/It4YjPq+n1fby/vG1SfE6dK1Fio1EYZHBId25z2MQBfZ2UeLEFk5SD0oTDs4x5sNjM2VDEjl3E+7pjpQDD+pBW7Hfc0JCfvaVuf6SvOdrNqcjnnu2Wv3uyR7b0M9YSWitMdTP1zIAvu2PGLIDTgm1NymObX2I/cVq7Utolqyg50tu022z+/dO92sWq2kWAVO2D2xvybm0R3bozlMfh5WtX7lgbBwwHuvjYkxiYIv68DMlpNS4St9hI4OUoUeLHgcIgA9zxLGDoMnZgy7NHriKoM2cVJNQDt6PP1EZsxxFzvs+4QsLlK0isje0ym3OHdlfuf01NRgdhwm0wnz9XkWfPcN9ddJ32N7PPKcf/Zp+bDDqfWQIEnZoGRv476cEj3aqt2r54MEX9d0/22owTU+O0jvgb23e+pi4Hd/Ar7OzYs3OSHaOnuNwgPkbn/RhBqmfVuOwcgtS2hPE0B9Ki/bk+z5cosVFoG2RAOweEw/FhoNO8lAv6FvdHF43ZYMPheuC8r5udpBy+7nA+3j4g/AUtV9oypsJflVCYenPRBoTrTFNbScV+gvDoiYp89cVuOTWZdEHMVqjYz52tyv99qUee1SU3KscQs0j8ha395a3GBLpIr9fu0c/cXLcbmIcfY7aWr6jlkC93PhixdK2vZ/rApUjo1Hby0ZoNK3OwHSNvO16WKLFRKAwy7nzmrC2OneXl/xKFBPJ6g646E2uBa+H8G7vdt3jMu538/pznF8/bNy3JW/Y35YO31+S1u2s21UwYpAomYrve5dx0+EvZLz7bI+en9JQshe7U46eq8hUNPvz1LcEILqTwn9eMLTNr9e6bFrR7xh/6M+UdyurlAEXli8vNugeYVVswCvhFLgay1cS2yty2wWlb54jD9vE+Saz7Pj2vRImNRGGQceQdzx24Ha+RJ+WNc94Q8QliO3nbJDjn19oSiHlmgIZ6F+WWHXX5WW1lPHBzQ27f2ZRNGmzCX58E2wQMpq+5eG+m5uXrkDNTXHzHVcRxucPM0tjQorx1f03+xc0L8tM31OX6reGfEihOXL7VAqNzwDmWeT6v9/U4mLTo7V3gQXz/mdhGbLtEiR8H2gaZvPO5swLnYVodm1ZC5sQOeBB4e5va8MBA8n36OgmsFGDcjmtjzqDdBG7FcPuuRXnXwYa8T1s1771lQV63u24zTXRtuDAvbEJrAjushL+a5UdABCQutiM4cWXxWw9gZ0G7YjV5+/UN2bM5/L8TyJcv5trxoCgYgSK9cRY0NAWZAd7OlS6h3YbpErTYiOzGn0OJEhuJwiDjDhg7oTtfyvHIccC1RmV0C19km3UPJqzj9GClABNzeR64DTgGYrf0hQHhBw4uyHu0e3PfjQ15y3VMeTfk5tGG3LC1KftHlmSvpUX7e1vujMed896wtyn3HtCu0cG6BimCS12u03xms7yIlAHky1FUPudAPsDE5c7rM87tF+1TtTGfBKPlNgKcJ5UosdEoDDIgdjxSkWMCqDQPLuFDJQj6TJvZcLsAjorm675cLcCAdnxcUePgRaJbc9vORfsr24+8dkH+9evm5UN3zcsH76xrC0VbKbfVNC3I+zX9yzsWVFOTX3gdF+URmGpy3UhDqtq6KSofWK18eS3J1/M8cL1zMV8ELisgqKRaLas91mC7RImNRmGQcWds54BWgXFiW1vevSlyWNacR4eN2LZv68FhowIMyW37Eo4rYLmgbqRvUfZtDq0VZqPepi0UWilvO1C3nwy8fk9Tbt6xKLuGF2WwZ1EqNpZz9eVzDjjv6/lygyIb3ioJSDjPSm3bItk+LIvs5vl0HyVKbBAKgwwockCwUkVQYpnewGrEmVZBRY0raxxg8rbzdtvxcfncNroVy61oDRpoaamsRbv28jkHsBHbWc+xZzfb0hWn1WyLPslIOR7K+z5btFEqUWKjkXl5AWKHBy0VNZqtcCB1PjTZQ4XKlPw3dfi1d96h11LJ2vGOokAC0ALnSW4DxBUvb6NIC+dw3rXA9c7FPPB1R3zsgPyVbBAEw3pmJ28DpPvjURAw87ZLlPhxoG2QyTvesgqs/osPh2/9DIHDuYODB2BLHZvAo4grKnbzFYTt4eKK4LynmAexjSLbsT62XVgpC7QgLh+JvNiG86TYhmvBSuVz+D7zNmLbaXxJTnOsZRmffbTkeDmKbDtPKlFiI1EYZNwB3QnjipA6ZvII7hvyeJ86qq626JUydXLZPnzs1PnKzj7j7YHr87yXz23Eea51rsiGc6Adny9frHc4n7cRnz9f5m3E+rwN0Mp7oGL79uUAprfPZfXg5duUKLGRKAwywJ2uMMCQl7RKoPIOG7TcUzd2+LD0m2nz9xONRjN1fJYkulPwbOIcV7c2lSPPtbyHb9Qb+r7VRrANH+x7ytswTtdJ6Fu0Cc/7eJ9FvOVh245nuW1Svnyxjdh+OCexjex4nFtczGymYSGJMW4PpJ8Zs0tJizPlIqCPW1glSmwkVr1pFYgd052YvOU3rRrVtE16cjetwoEHhzbJa99wp3RVw1Vrvo9Wx8Z2eJfyLGyf4a1mpFxaw5ZpI9skW01smBSepcL1msEjz3vLK8Btcz5YJGK3YXxiI91nCLpGOo9eHylvQBverXbsBHjuofz8cy/K7Ey4x+9KN60aSm5a1RPdtCqUNyzh4pZaiRKvBvmbVrUNMp5wQE8eTPz9xPikHNUgw7cqGNtFkOGu711y/GgSZF56xfTVakWdfch0VndYhprDCzs1DqDPUFD5CrkAyufwvFbOXu09djK0cmwSpAmvhKvXUr5MnL4EJHYCnfAttu3V3mdGQMaxP1pw09y9LWnFvefn321BhjKEIHNGpiZnLG94eFD2X7/HgowDnoTeU4kSG4F1BRngzhdzfOsRZMYvT2iQORF+rKfYuXtURse2S1dXVU6fPCuPPvKEvPD8S7pd2P7HAcq3HttF+vXaWA/i83e1WKl85BHUH3jPO+XW2w7aOkHmxLHTGmTCbSKHNw+FIKMtTIAtElo+y7xtL3OJEleDNQWZPLwFA3BAEmMFVy5fCUFGm+9wY7u2y+iObVLVIDM5MSUvvXBIXtRUq9XD9qTEgVkEk7xkTm0Orhmmj7Qgr/fKEMYbEtEKSG0n646EDi9r2qfaYEzKRYrURpHW+AyBBZ4R6VUcSphwyUuhbSVZjmwdkbvf/DrZs3eXrdNNOn7slExrSwYMbx7WILPbghHwAGM2EuQ/3xIlrhZrDjLudIAgA2IHZIDyyvgVOX7klAUZwE3Et+3gbu/BmWdnZu1G1zOzcyEQKRc2DzasMiX1JnVsKN03jxaHh0uKZBx0ss69Ulq1PO0l0zofVSbnjQv0Mp6kljPepAmvnPEmDnoQa8HK5dP1AhtwKQ2X0komPDe26ax0ysiWzZb8XrQEmRMEmalwg2u6S/sOaJDRlsyyciv88/VxmTivRIn1Yl1BxhOIHROOcZgr45MaZBj4DRrGY7ZrkKFZ7s3w2EY8uOh83uHb8XGgi22DvD7Oi/dZFCzbaVfjV7IB71zMO5yPbYCi8gHXr2SD5BzdJMZkZqbtJjgyRJC5bpcFmbztMsCU2Gjkg0zmtQXAYUHsmM4pm3AZTyq6Kz7wykdyra+7Hg6njzmwUuUDzpNiziuO2wV5reu9fA54t+G86337mAe+7ohtA/JXswFiPh8EgNsAeRtmmzJHes1RvvXYQWw75kuU2Ei0Hfh1B2QQ8cyp8/aXtGGAF+dWZ9Sn6ZLZDUDT3RzW1oIS746dN0jN41MdcC1o1aPlGXH2UqS1V3sf80xDbxrsl937dtr/7ZCF3bTcbSpwEY9djvnK+IScOX3e/kBNM9jJsuO2UmfFCJTl5ngSXZ/cTzW8HPGxgFAO3mV8ZhuE2T//DJFVK9XcPpfsD7hGtm6WMQbrky5uiRKvFuuaXSIxS3Txwrj9v7LDnd4rgQOe5NvmOVDEZ5y92nvQqrV3Of1yGwAOxByD0Vu3jcjOXaP23vPaBRK3AWKeJdemnDx2WqY1AMfIlyW2k+eBrzu8LEU2WrnYRqsd50GeJ6WBR8GXwqbBAdm1Z0wGdemIbZQosV6subvkjlavNdMpamAtFfIiP2Q9/GI5IRRwntTdA6kI2qwLAjLtcj7TLrcTSQ2t+lZwDEy5M15Rr2nrQ4HOK6lfZRsQ81GLQLn5uQUNupdlJrkIDrA7Urbux8MaXMZ7+cjLdIGPEWtjBD1a+Cwv1rOJl4XPJbPjLaCgp1jNRrhamWP0bUqU2Eh01Ov1Jf52s2jgl4rJFDWVEyekSd0/0GcDu2mFckdPFoEPjp6Bb+FEYhmk/Dd7sKRszkbCL2klYFXh+tQGtuE0JWxqm2Og5TE/H45vaPOgRtp+6yqwDVp7RmVx3m1j1Ozr+3ntNo6PT9r/TcMNDPRLX3+vUO+DiazcieFgIpC805SVz0qseQmb8JkN481GojdtUHPLB+NYz9sIZmyMjDfx+ZubnZfZ2fAf2vxt8M49o7J5ZDgtY1bWEiXWD1oy/NOmf3F2NJvNJf47mD8Rj4Gj8nuZ44dPypUrkxpklqwybd2+xS5TB+buiT/iwGxjq+bwrRXVKkfqu9pst2tbgo2gR6YPZqqM0m9fUwS7Zsf4YDvmrVLYc/k+mQWbmJiS82cu2vHQhKO75OMfSE2s8LIAq5SJjYQyu3zrM30PCFS79uyQgcH+oIO0JeVQqN7LF2wk5Utm4wKf7M9eOCe6bs+Ex4Y+wubBduBD0LD1RI/O9lnAs0/blb5c0u7vhXOX7Nzwme7eO2ZBBnh5SpS4WvA3v4x9pkFGWyg2JsOfhlvlVJhja8IJuQ6G38lw8V1/f5+M7twmW7ZuNmdMK0iiB244tgWcB65vZ2M13td9Ge8zr6UFxrf2iaOnbRA7j1gfo4iPuUq1IiNbhpOfUTA1XFw+5xze9Yr5WL+W8+TLtfKe57bPnr4gp0+dtVYeLdPde3dqkAk/+ShR4tUAv+P/xkOdCD6orWmtMPrt7oM0Mcjr1Mqkb8xRG81GOj6Trwwg5oA7/FoqjttwPcs873rgNvL7BLGWJVF16/YRGdBuUm9vj/2Gh2tGuGiQ9719gaMb2N3TlfDdgdNlpu02LV0MLnDjmiAugGNX8T6Bly/m2x0LIG+l8xTrY97XfVmkBW6bL4smv+j2z1G1tOrQeSpR4mpBfSCWxD7YoU61VK/XJZ5hckdjyTQtXQ00/MiRnw2M6rc3v08C/s28WiAB7fiib3cA7+u+dBvAgxE652IbsZbu3qS2yPiJA+/hkWW/sg4cj6yrppVPH5oR1hK7lc6K9G/qs1YAKNpnzIF2x+j6qz1/rPsyr89/Nkhnpmfk7JkLMn7pijpDmF1iap9WKsjbKFFiPch3lYAFGbpFc3Nzy7pMgOtB6GowcMqGw5sHZXRsm7YKBtQZgy5uBbFOyjtrOz6ufNh3Hcl518d8fBBxZUKbtxFrnY/tgpj3coDVbMd2nI85sBpfVD6wUeUG8ATY8+cuyuWLV+ySBLp8mzcPya69O+wbyLWx/RIl1griwMjIyLJekQUZHJBWDIGmVquljsqSi82OHTlpU780sXFMLlNnXIZvclo06vamZzCXbbwi8NAqYFzKozUnzqaMcW7jFab3wd9I6zZgw6BtqPD6YtuEfYYWCLwPLLttO6KEX7F8ER/KB0cxYh5rHhxglx870FXjTEuLyWywltmgzHRZbM3KoeXjwSUB+kDL+eDRUj60PKJ9Gq+P/HllForZsMsXx22mcEHfA7qH20a3ahqxQWzgZS9RYr0YGBjQFnF/Ui8ypEGGRJBhOtvXPXFfkrPabWLglHXADA3Tt7293erN6phUKK0M5qO8uK/Cs41RCcmd2qwehAoSNrLVxH6ofAayUh6pGTJOSf4WX7SaBi7VqnFd2k3N0YdNdZ9J98ttGBmOMVSuiE8rdkE5UtshK9jQVVtPePYJj424fNAWYNAnRKKnfKzEttPzxCIqd3qMbcsHF8SNWsMGvxfmsy8QLsRjsHf3njG7NMHLkpapRIl1gNYLA75+aUgMCzK8YeHdJhLTvSbQDRgs5BvwwtmL5qxo4e2bUpdWleB4pDsIFc88nhpgz7yW/KB3HrgdOIwkFhLb2bc4cC1wvUE5HsD1sdbUyI1XJPpYG+jMdr58wPnAGdVqN6e1TEXgEj7ZJ0//FnAtcqSuT7W2FtlOeFtTjofxPAiYGEqAIwyPDMp2bcUwGI4Nt1OixHqBP3FtDDNKIO9LaZABvCW4EGQYCI7F9OenJqfk8qUJmdauE4HH4SZifREH8jxLOOcBHMmb/avZcKxnn24bxPpXaxsU7Q9uJS2I9espX5ENR17PjBnjMCNbh+0amfxMQIkS6wEBhm6ST1kX+VJLkAGseqBhnAZnJ8ETWBbmF+x+JVxFS+Ch9WPfmuyA7c0InZjg2CHPDNvYAIh57EIjCZSJjTNrOS2U5hpn3QpUZiNpfdgz4elMmW19+MHrgm6JqY0Ky8yGMpahKcenZVFQBnjnYFNOYcdodhLeukiBM629BL0xPE2PNmwTtCEvlEOznXfb3q1LdLaE54HtRMvMIAGmX7u4A1y1rd3cuO/sWuDLEiXaIfhU1a7szc8m5bEsyAAoggdBxhMchlgyM8HgIcHIt3a3zC515yW4PBROn1BpRTAtNFyiBVYkeC13VmkSXt/5OAQ5xmjQsIrh+yNTX0xvdKtt8pGT6fpgu1gLnPd18owJz8iGV1ZSgI2foI5sF50nYPvUrGAi22fb8iXilvLpC7yVg6cuK/rZMY7W1V3V1kt2xTOIW4yeSpRoB1q/zEYSXGjBrBRgRET+H2HRlKKOn9STAAAAAElFTkSuQmCC;" parent="1" vertex="1">
          <mxGeometry x="320" y="106" width="220.16" height="76" as="geometry" />
        </mxCell>
        <mxCell id="j9wAFBM-4F8-QUCNC5Rh-26" value="" style="shape=image;verticalLabelPosition=bottom;labelBackgroundColor=default;verticalAlign=top;aspect=fixed;imageAspect=0;image=data:image/png,iVBORw0KGgoAAAANSUhEUgAAAMMAAABlCAYAAADwOldZAAAAAXNSR0IArs4c6QAAAARnQU1BAACxjwv8YQUAAAAJcEhZcwAADsMAAA7DAcdvqGQAAAkaSURBVHhe7Z1HaFXfFodXYjT2GrGhESs2LAhKREEHKjZQJwFBxIHowIk6U+E/0YHgzIkiTizYsIC9oFhQEcUaKxaMLdZYorE+v/XfO1wToyc+eebl/j7Y3HvOPfcczd3fXmvtc7k74+s3TAhhVZLh8+fP9vHjR/v06ZM3IaojtWvXtqysLH/MzMwMe3/NT2XgpS9fvnjHLy0tdRHYZn8VHBLif0pGRoa3WrVqWZ06dbwhR9xfGZXKwG4E+PDhQ1kkkADi/w0iQ4wS2dnZ/lgZFWSIm+/evbP3799LAlEjQApEqFevnkeKH0WI72TgKY2IUFJSorpA1CgQABGiEHFf5LvqAhGIBm/fvpUIosZB/ybtZ6Cn/i1PmQwciACkR8waCVETiULEfs52xGWIIsQaQYiaDn2dRt+PQrgMTJcSNqgVhEgX6O+pWdB3kQEphEgX6PO07yIDO35UUAhR06F+iEEgEysIFaoVRDpCqhS/VeEyKD0S6UoMBi4DTySDSGcUGYQIlMkQtoVIeySDEAHJIERAMggRkAxCBCSDEAHJIERAMggRkAxCBCSDEAHJIERAMggRkAxCBCSDEAHJIERAMggRkAxCBCSDEAHJIERAMggRkAxCBCSDEAHJIERAMggRkAxCBCSDEAHJIEQgo7S09CsLGvI79SI5/JQ5fzMeWVK1fv36P11jOBXec+PGDTt37pw1a9bMxo4dG14RfwM+O1YAlQxVhEVd7t69a9u2bbP79+/7umCsRN+zZ08bNmyYde/e/ZdSvH792nbu3GkrV660zp072/Lly8Mr4m8QZVCalBB+pfnNmzd2/PhxW7p0qe3fv98KCgpcjKtXr9ru3btt9erVdvjwYR/5gZ/7v3nzpm3YsMF27dpljx8/LvvFZwagR48e2dOnT/1Y8feRDAkhctLxt27daidPnrQOHTrY6NGjbfLkyTZhwgRr2bKlpz10+uvXr3unp927d8+jyKFDh9Txqzm1Fi5c+A+hP3XVQ1GR58+f27Fjx2z79u3WvHlzmzlzpo0YMcL69evnKVKDBg08bbp9+7Y1bNjQ05/Tp0/bhQsX7OjRoy5TkyZNPCrwt75z545L1bRpUz8PUYY6gujBqvXZ2dmWlZXl10Yq1i0uLCy0a9eu+XH8ezgXK92TppGucf0rV67Yy5cv7cmTJ3bx4kVPyRo1alS2Ir6oCGktTTIk5MGDB7Zv3z5Pe4YMGWL5+fkuRd26dT3nRAZGfjo1nbhLly62bNky75zPnj3zzvrw4UN78eKFH/vq1SuXgQ+BfJUaghSM42MHRh7EKC4utkuXLtnevXvtwIEDdubMGZeCc3FtjiXtOnHihG3evNlFO3/+vB/PuahjGjduHP4nojxRBqVJCaFeIE2i444cOdIloKNGEKNNmzaWmZnpozsjN89Tj+F5+X2M4kSbkpIS/0Do5GvWrPGahHMQUS5fvmyrVq3y2oPOzbWIEhs3brQtW7a4oNQpXPfUqVN28OBBT9m4FoMcEUT8GsmQEEZeOiCjfqdOnTw1SYWOTCpCRycKkCoxWzRr1iwfuRmd58+fbwsWLLDBgweHd5mP2JMmTbIVK1Z4QzTOTQenwEYI0i2iQbdu3Wzx4sW2ZMkSmz17tstHdKHjc00gpUKC6dOn26JFi2zGjBnWqlUrf038HMmQEEZeOmZlIAl5Ph2RtJPUKAktWrSwKVOm+HuJNl27dnV5EI+0ijrg7NmzXltQqHMd9vM+GpGD+oCIESF1Gj9+vKdqrVu3Vr2QEMnwhyAdQQJGZjpsVXL01CiDFKnbRAfqBeSiBpk2bZo3IgM1BnVKeRmITpxHVA3JkBBG5h49evji8bdu3aow4YAIRA/yc0Z40qSklK8rUrejZKRhpDuM9DRSJKIIM1nt2rWrMPqXP4/4NZIhIXTu3Nxcn+JkloYcPbUwZcaHEZrIwD0HvmbxJ+A83NPgcerUqTZnzhxvc+fO9TZv3jwbN26c5eTkhHeI30UyJITIwChMCsS9A1IXpjaRg2lSpjKZ16dmQBqmRSGmPEjCCE9k4XlSmDmiYOe91BEdO3a0Xr16eTFNtEDCGDnEf4dkSAide8CAAda3b1+fwly3bp2tXbvW1q9f71/DYIqT+X1Sl6FDh/77xa9vaQqdGUGKiop8ypP7BEzRJoWUaODAgV4DEJGYXmUqluvxb+BrID9K20TVkQwJISdnhJ44caJ3Tu4H7Nmzx7+esWPHjjIRSFl69+7tEQEJ2rdv76M4sz5Hjhzx7y4xwvM6Hbx8rs972EfjORFp0KBBNnz4cE/NuNamTZv8Kx5EKNI30jLOF8+p4vn30B3ohDDK08nI30lV4owRuXzbtm2tf//+NmrUKMvLy/Opzfge7jazHYtq3o80scCmKKezR7i5x2eBRH369PFzE5W4JoJwPhpFM18FGTNmjKdNiIMsPHJPg7vkIhmkmDR9hbuKxKKZvxkdl79bFIPUKNYIqVAjMDXK9CdicCwdnm0+BEb2CHeiOS8iIQznBK7LoEWNQI3CvQjOEyMItUh8L/8G3WhLDp+Jp7WSQaQ7UQbVDEIEJIMQAckgREAyCBGQDEIEJIMQAckgREAyCBGQDEIEJIMQAckgREAyCBGQDEIEJIMQAckgREAyCBGQDEIEJIMQAckgREAyCBGQDEIEJIMQAckgREAyCBGQDEIEMvkZQ5oQ6Up0IJPf6aQJka7Q/12GYETYLUT6USYDT/jVZgkh0hF+QZ3+7zKwgw0tgyTSEdbciIGgTAYMwQ4h0gUkiOtb+HbcSWRACiHSBaJCap//V4lvIENcfkmImg4BgKXFYlQAf0Z6RCNkSAhR0yEasEQYpQHE8qBMC6+mv1nCcj5xHTEhahqxj5MixSAQyfiausz9N9hk8T0WyystLa3SAt5CVGeIBKRGtB/VxxVkiLCyJIseIgQrSVZymBDVHqIBJUBslU0UVSoDu2lRirhWdNwvRHUmpv1EAyaHogSpBXN5KpUhFSRABiIEaRNNQvwe7z++t8JnhVb8rthyc3Itp1FOeEX8KejwNDo/MtB+JkEkkQwRDo0iSIbfo6i4yLac3mIFhQWWn5dved3ywiviTxGjQvkC+eeY/QcQPdDtWa+qEAAAAABJRU5ErkJggg==;" parent="1" vertex="1">
          <mxGeometry x="585" y="105" width="146.73" height="76" as="geometry" />
        </mxCell>
        <mxCell id="j9wAFBM-4F8-QUCNC5Rh-28" value="" style="endArrow=none;html=1;rounded=0;" parent="1" edge="1">
          <mxGeometry width="50" height="50" relative="1" as="geometry">
            <mxPoint x="210" y="200" as="sourcePoint" />
            <mxPoint x="660" y="200" as="targetPoint" />
          </mxGeometry>
        </mxCell>
        <mxCell id="j9wAFBM-4F8-QUCNC5Rh-32" value="" style="endArrow=none;html=1;rounded=0;" parent="1" edge="1">
          <mxGeometry width="50" height="50" relative="1" as="geometry">
            <mxPoint x="210" y="200" as="sourcePoint" />
            <mxPoint x="210" y="181" as="targetPoint" />
          </mxGeometry>
        </mxCell>
        <mxCell id="j9wAFBM-4F8-QUCNC5Rh-33" value="" style="endArrow=none;html=1;rounded=0;" parent="1" edge="1">
          <mxGeometry width="50" height="50" relative="1" as="geometry">
            <mxPoint x="658.87" y="200" as="sourcePoint" />
            <mxPoint x="658.87" y="181" as="targetPoint" />
          </mxGeometry>
        </mxCell>
        <mxCell id="j9wAFBM-4F8-QUCNC5Rh-36" value="" style="endArrow=none;dashed=1;html=1;rounded=0;strokeColor=#4E89E0;" parent="1" edge="1">
          <mxGeometry width="50" height="50" relative="1" as="geometry">
            <mxPoint x="760" y="210" as="sourcePoint" />
            <mxPoint x="760" y="80" as="targetPoint" />
          </mxGeometry>
        </mxCell>
        <mxCell id="j9wAFBM-4F8-QUCNC5Rh-37" value="" style="endArrow=none;dashed=1;html=1;rounded=0;strokeColor=#4E89E0;" parent="1" edge="1">
          <mxGeometry width="50" height="50" relative="1" as="geometry">
            <mxPoint x="100" y="208" as="sourcePoint" />
            <mxPoint x="100" y="78" as="targetPoint" />
          </mxGeometry>
        </mxCell>
        <mxCell id="j9wAFBM-4F8-QUCNC5Rh-38" value="" style="endArrow=none;dashed=1;html=1;rounded=0;strokeColor=#4E89E0;" parent="1" edge="1">
          <mxGeometry width="50" height="50" relative="1" as="geometry">
            <mxPoint x="100" y="210" as="sourcePoint" />
            <mxPoint x="760" y="210" as="targetPoint" />
          </mxGeometry>
        </mxCell>
        <mxCell id="j9wAFBM-4F8-QUCNC5Rh-39" value="" style="endArrow=none;dashed=1;html=1;rounded=0;strokeColor=#4E89E0;" parent="1" edge="1">
          <mxGeometry width="50" height="50" relative="1" as="geometry">
            <mxPoint x="100.08" y="80" as="sourcePoint" />
            <mxPoint x="760.08" y="80" as="targetPoint" />
          </mxGeometry>
        </mxCell>
        <mxCell id="j9wAFBM-4F8-QUCNC5Rh-40" value="&lt;font style=&quot;font-size: 14px;&quot;&gt;Client&#39;s&amp;nbsp;&lt;/font&gt;" style="text;html=1;strokeColor=none;fillColor=none;align=center;verticalAlign=middle;whiteSpace=wrap;rounded=0;" parent="1" vertex="1">
          <mxGeometry x="103" y="78" width="60" height="30" as="geometry" />
        </mxCell>
        <mxCell id="6WdtDNboNjmR87L2nlDf-1" value="" style="shape=hexagon;perimeter=hexagonPerimeter2;whiteSpace=wrap;html=1;fixedSize=1;" vertex="1" parent="1">
          <mxGeometry x="322.5" y="640" width="190" height="50" as="geometry" />
        </mxCell>
        <mxCell id="6WdtDNboNjmR87L2nlDf-4" value="" style="endArrow=classic;startArrow=classic;html=1;rounded=0;exitX=0.555;exitY=0.037;exitDx=0;exitDy=0;exitPerimeter=0;entryX=0.57;entryY=1;entryDx=0;entryDy=0;entryPerimeter=0;" edge="1" parent="1">
          <mxGeometry width="50" height="50" relative="1" as="geometry">
            <mxPoint x="415.95000000000005" y="641.85" as="sourcePoint" />
            <mxPoint x="416" y="560" as="targetPoint" />
          </mxGeometry>
        </mxCell>
        <mxCell id="6WdtDNboNjmR87L2nlDf-5" value="" style="endArrow=classic;startArrow=classic;html=1;rounded=0;exitX=0.375;exitY=0;exitDx=0;exitDy=0;entryX=0.5;entryY=1;entryDx=0;entryDy=0;" edge="1" parent="1" source="6WdtDNboNjmR87L2nlDf-1" target="j9wAFBM-4F8-QUCNC5Rh-5">
          <mxGeometry width="50" height="50" relative="1" as="geometry">
            <mxPoint x="425.95000000000005" y="651.85" as="sourcePoint" />
            <mxPoint x="426" y="570" as="targetPoint" />
          </mxGeometry>
        </mxCell>
        <mxCell id="6WdtDNboNjmR87L2nlDf-6" value="" style="endArrow=classic;startArrow=classic;html=1;rounded=0;exitX=0.625;exitY=0;exitDx=0;exitDy=0;entryX=0.5;entryY=1;entryDx=0;entryDy=0;" edge="1" parent="1" source="6WdtDNboNjmR87L2nlDf-1" target="j9wAFBM-4F8-QUCNC5Rh-7">
          <mxGeometry width="50" height="50" relative="1" as="geometry">
            <mxPoint x="425.95000000000005" y="651.85" as="sourcePoint" />
            <mxPoint x="426" y="570" as="targetPoint" />
          </mxGeometry>
        </mxCell>
        <mxCell id="6WdtDNboNjmR87L2nlDf-7" value="" style="shape=message;html=1;html=1;outlineConnect=0;labelPosition=center;verticalLabelPosition=bottom;align=center;verticalAlign=top;" vertex="1" parent="1">
          <mxGeometry x="228.01" y="600" width="31.99" height="20" as="geometry" />
        </mxCell>
        <mxCell id="6WdtDNboNjmR87L2nlDf-8" value="" style="shape=message;html=1;html=1;outlineConnect=0;labelPosition=center;verticalLabelPosition=bottom;align=center;verticalAlign=top;" vertex="1" parent="1">
          <mxGeometry x="380" y="584.5" width="31.99" height="20" as="geometry" />
        </mxCell>
        <mxCell id="6WdtDNboNjmR87L2nlDf-9" value="" style="shape=message;html=1;html=1;outlineConnect=0;labelPosition=center;verticalLabelPosition=bottom;align=center;verticalAlign=top;" vertex="1" parent="1">
          <mxGeometry x="570" y="600" width="31.99" height="20" as="geometry" />
        </mxCell>
        <mxCell id="6WdtDNboNjmR87L2nlDf-10" value="" style="shape=image;verticalLabelPosition=bottom;labelBackgroundColor=default;verticalAlign=top;aspect=fixed;imageAspect=0;image=data:image/png,iVBORw0KGgoAAAANSUhEUgAAAWgAAABKCAYAAACW9s5cAAAAAXNSR0IArs4c6QAAAARnQU1BAACxjwv8YQUAAAAJcEhZcwAADsMAAA7DAcdvqGQAACqwSURBVHhe7Z0HnFTV2caf7cv2XthduogigoAoKKCC2DHWRGOLiTFfrIkRCxpji2KPNZZPotGon7GgYgEsqHQQ6b2X7b3Otvne5xb23tmZ3ek7wP3/fmdnzt2ZO+eee+5z3tPeE9bY2GiHhYWFhUVIERsbi3DtvYWFhYVFiGEJtIWFhUWIYgm0hYWFRYhiCbSFhYVFiGIJtIWFhUWIYgm0hYWFRYhiCbSFhYVFiGKeB71vLVC4Tos4IToRGDgOiE/RDrhBexuwV85ZskE74IQYOd+gsUCvJO1AD9BYA9jqtYgbhEfwDxAVDURqIewQqe+qCoFWuW86CalAbLwWCRIsN1Ul6isJjwRSMrV8DyK15UBzo9xbLU7aJSSly/PQS433IHa7HbZmG1paW7UjnYmNiUFUZJQWCx7t9nbUNzRosc4wTUybP2hta0VDYyNq6+tQUVWJuoZ6VNZUQ/RN+X9MdDSSEhKRmpyClKRkJMUnIjExAeEh/MxyHnSHQBduAZ6ZAtQVubar7ZKZufnAHStEkNzM2DVzgZnXAC0V2gEn8LwjLwGufVU70AN89iTww0vmB7ErwiWTIiRQmFnBxGYA/YYDoy4EMvrJsbjgi4m/eEHuxTa5x8yLFgnXvw4MPUX5V9BoqAYePQeo36/GUwYD0/4r+ZqgxoPFO9OAZfK7xmfCJuGmN4DB49V4D0KBXr1xLXbu3a0d6cyQQYNxZP8jtFjwKCwpwtJVUo5cMLDvABwz+Cgt5h3t7e0or6qQPFiPuvpatLXblWMkLMz8MDOvSLg8uxESEhMTMUx+PzNNnt0QxLxQ5bMHgRoRZ14Tr8NZYMncsQ3YuoiR7pFaDd88AjSJODs7nx543p/ekYexCxEPNM1iPdfukwrKzVCzB6jcBZRKxbZ3GbDpC+CLR4H7x0gQoZ55M/DzZ6rQHGy01Mk9EyvaJoGv7VTpICPWF2xiQTMNDM1V2j+CTFuT3EMtH4yhtVn7QM9D3bE1t4gV2e40FJeVap8MHhTD7VJpNLe0Ok0Tgy6k3sDz01petmYlvlu8AFViLfOcPE5hdhRnoh/nZ1rb2lBRWYn5SxbiuyULUFMrLegQpEOgK0Ro3LEe+Y0GDy6mTkqP0fpwBX+7Vh7IgxUay2xFxkqolQf4J7E6X70SuG8EsGo2P2Fh0SNUVQe/cmuyNSmiSWs1EJRVluO7RT9gb+F+p2LsDrpgl1WU4xs5V6m8hhqByT2vUczpgwNW/jQs2fXnaAiwvChBrK9GaZX877XAv2+TFkIPWYEWhzUtrW0oKg2u8dPQ1IiWZvYF+Z+tu3Zg4YqlaNb63XWBpmVMqzwqMgIx0VFIjE9AWkqKEhLi45Vj4fJZR8ud32+TY0t+Xib5VKwdDQ1CTKBDiJg04NevAde+3zn85j3gyjeBS18BJk8DBk0UoRYTmuXRWautTVoci18EPrhLO2BhETgcLUoK0uadW0WEDAO/AYbdKuxy0NGtVV/ZX1KENZvWKV0UjlCgBxT0wyknnIwzxk/CaeMmYMLx45QwadxETD7pFIwdOQbZmZlOu1eabM34cfkSVPRAi8MVlkC7IiwGGDoJGHlu5zBqKjD2EmDSlbBf9DfYb/4EeEYs5bvmA+c+IoI9Wb4fp51I0C3qRf8SS/rPYtIExrKwCAAcR6Ghxi5ntpj4qrSanNXEbkKhLHM9qOcrvWJjFYtRh90MJWVlaGySFl2Q2LZru/ZOhdZsSlKSIqLewm4NWs7t7Z3PQWE+Y8JpGDVsOJISkxAVFYXIiAhEaIHvY2NikZOZpQj25JMmond2jvZtFb0S4cBmc0tojDFYAu0jyk3lTI7YBCklY4CzbwVu/lgsbbGwI0WkjWWJ/dTL/u3+IKtFz3PilcDVr0qLScIV2itnGxUM1T7gIS0ikl9La2rWDO2A/6EgZ6ZmmMSQFmNlkCxDTnNrbLIdsJiZDgqjLzD9qzauM1nhPG9EeBjGjBiJ44YOU6bRuQun2504YjT65OV3sqZr6+qwYu0qnyoTf2EJdCDg9LrjzgH+9B2QMEhKl3actNYB74qIt6jzMy1CnCPHAuOv6BySe2sf8IAtS4Bnzwfen6Za5gGCElbQu7dJeGhFllcGfpYURW1fcaFpcJDpyExL12LesWbTelRVm2dERUaEY/SxI5Gf7cW9ECj2xx01DEf0G2ASY6a9qKQYJeXBn/3iiCXQgaTvMOC2j0Sk87QDAnO8cBOw6nM1bnF4sGsV8PdTpO3/vTrbJ4BQalISkxEfH28Snn0lhZ2sRX/D3ysXC9poPScmJCA5KVmJewOn0+3Ys1OLdXD04KOQn9PbZFV7SmRkJI4aNBjJiYmmvOKg4YZtWwKeX91hCXSgyRILesI1ZiuaD+i6eep7i8MDe4uogbwG8YkryMk1iZfN1hzwATD23dbWdUzDpejlZeciSoTQW3bt26MsQDHC/uz+eX20mG9ER0VjuFjSxrzi+9LyMmVQsiexBDoYjJEmMaJV04awHBRuF9EOXDPXwiI/N09ZMafT1taG3SJ2RkvR37AC4GwIHS6lHtR3gBR576xczqfetH2rFlMJDw/DcUOHKwOB/oBinJWeoQwaGvOGXR3bd+90OmMkWFgCHQxSsoAjTu8QaFK9x+qHtggoCXHxJhGj4Owr3o+W1sCtDF25fo3JEo2Pj0NcL+99luyk9ewgkGkpqYoF7W/65/fV3nVQVVOl+DrpKSyBDgbRcUCfEVpEg8uHxTqwsAgUbLpztoLRKuSilcbGwJS7ShGzpqamAwLN381I9X5wkMJcXFaiDHDq8Jx9excExMkRRT8uzlyZcKk6Z6X0FJZAB4sMsaKNrbxmPiTeNfssLNxlQEFfk0DzfVF5YFYVUsiMv8UBtozUNC3mOY22RlTXmN1K8Jy0oANBTHQMemfmdBoY3OowpzuYWAIdLBy9/ymtNkugLQILLWjjohVFoEuLQfec/qasosLUvcGl1b5Mr6upqzP1/zLtmekZiIsNjJtXpn3IwCNM18D3nBdd3+jabWogsQQ6WNQ6eLXzflDbwsJtaBXmZmZrMVVwuKqwpcX//dDsjtChmGZJqzE+zns/4vuLzdMCec7eWTnK1LhAwdWGsbFmY6rJZlN8TfcElkAHA87W2LtTSpgWJ7F0e+f56LBSYMvkXD/PA758BHjvL8BrNwAvXS3hKuDV/wHelWNfPQ2sW6i6kA0Utjr5jR+A2Q8Br98IvHilhMuBd24HFr+nzvcOAvbqYmD1HODDeyQdkhcvXgG8LPnx3zuBlZ8DlZpPaW9pqJR8LNSC5GcXg7uKv4uKPZ1Dban5aaMFW7G78+ccA7/nI9mZWU6a7Tu0d/5hT+E+2Jo7Zm+wIuACEF/YK+c0WrORkRFI96HLxF1Sk8wbkjANZRVlWiy4dDjsnzEW2PVz95LNe/AHefhGTlXjXcFC+Ojp8qAu1g50QVgEMH0ZkOObA2+v+fABYJ4Inn79sbnAX0Xgkszr9b2iTh7whyfKw21w6ZoyBLj3ezFx3F+eihIR5nenAdvnA/U1qhXeMX5ihtrPVmyKXMfpNwOniXC5u6vGM2cBm79T84L3+6ZPgGFyH43sXg3MvF7MHK3MGNPBEsXvRUslNEoE+zLJV093y6mXPHvgBHkVkSKpw4F7pFJydNi/4iPgbbm2Wvl8tMSNvUZMBw3FRHngps4Axl0CRHnRPH5Lzv/Th+r7CPn+b/8FDJmgxh3hHOB7BkqeOFh5FO7WWi0ihMm9iHLDuhw4BrhhlhbpDK3KVRvWYvOObQcG09ilcdqJ4w/M4GDzfPY3c0yDbRS6CcePNa3484X5SxeKZV564HzR8tt0UKTP4OCA3/ylC1BRVXVAdCngxw5xvmSeYj9r7uemNHPl4Pmnn6PFAsfazRs6Te0ryM3DmOEjtVhwMDvstwgcu1eKNeTgbzurr/viXCu1N50sPXgMsOFTedBFBNgKcyXOhP/jZzhbhF70npiI9tVfyBNttqQ8pklE5s0/AI+LeBaLOFMDHNPB6+Rv093q0telcjoJ+PZVtcL2F/s3AE9PBl6RCsAm4qz8nvqvAzBO0W6qAv4jlcnjZ6jLrT2FFjPPwU0DmthV1U0esmXBzxqDUZwJF644fsZZ8ENPBPtsaUVTzHXq6mrR6KdZRHTCVFFVYRL7lOQURaS9pdqJA/3oaN7kwMPtsRxbHI1NB1MXh0PiXcICYSgUXcKPuXvegwkK4oJ3VCHToXXbX0TLHbg/4IPSuln0kpxLvkgxZF4pQRTIHiemRYYcz5aQLqJEC1OOMyv5GYoUf3vvSoS/dg2w8UeJeAmb9zPEkl78hnpulh7ldyRR4dL0VNIgr4zz/4SGZJVYI+/fIiIt1+APkd6zFnhIWiRbFnTkK9MRLhZ7uJ4XYrHr+aTnwT5poT14CrBeWiCe4smTwt/Tf9sYHHH2GcfAc/mI3t1g7C6wtbSgsMQ/vo9r62vRatjDkuLWOyvbp75iZ4Ny9IgXDPg7xsqMNPXQXGjPBZrf2LFc7kLHDXFJfblU1SIw7sDzbVrk3nkPJtZ+K4LwiRbRoFU0fIr6vivK9wIv/kLyUF6Nd6pdCv5AsR6vkab2bV8Cf10qwvOTvC4Gps1D23X/B5z6JzEFkuWz2ncI/VJTpNmH7Q1vixVfvEpNC8svb9Xxcr4/SvP/Xrl3TMM9C4Hr/gPkjDD/dph84eN7gW+e1w54SckOYObVcj6xSPU8iRFRPvMe4KbZwN8owpKOaZLvv5QKIXVARzqoT+xp+de10hL5XjkUENLl2tOPN4cUh6Y897B0/IyzkNxP+4JvcN8944IRCpC/ljEXlxabxJ/v6SPDF2ixGrs3CAfwgkFkRGSnrh9bD61Z8LwPmsSIpXamNJuPEWsqnG1IJ3C/vnnygGyYpT4Y7hCdAlwwAxjson/PU6JEyFJyJI1u1OSB6IOmg5x/iBA3iTDq56VYHH0WcKPWp+kKtibe/DWw9GPzPYlMgv2cRxB2qvyvu417964BXvmtCL286veAvz9JhPaih9W4Mxz7oG+Ue8h52zN/qZ6HJSY+H5h6H3Ayl7F3prW1FZGf3Q3MfU49oP9+jOTnX+YAud1sYuqkD7p9unzv7TsRvmKmmja2IJL6A9e/CfQbpX7OkTIR9HfvlHIo4h1mqPwjM+X8YmgkueEGc6YI+gppBRH6+b7hA2CIh5vo7pTfeni8XL+8Z/4Nvwr4/cvKv3zBnT5onQU/LVW8tOmwX/jc06aIcBt8l3sIreUvvv9aWaBCmB46xB8/WvTEgKd90Gs2rsPmneb5xwP79MOIo4dpscBRU1eLuT9K+XfgwjPONVVEgcb7PugmsYxn3Q48JoX00ZOdh5cu9kycia0KeO9m5+fzJjwiQj9HhMjXflcPYSG1bxJx/+clck0GcSYJIvwXdiGOOtX7xPIWa9D4XVrel70A+2SxWt3ZVT1fCvPvXxcxzVNFgfB8674WwfVgXmed3O/3pqnveZ6s4Wj7kwjeSVJJuEBp3p77EHDJU/KbBkuoSay2p84VE6lzH2OX8Hz7NyJ8rVRsvAbe0mOnAtMXuBZnktEf9t++CvtR56mDpjotck3fvKJFDg/Y7WDsW1WXfrvZwnVBaUXZAXEmFDB/7JLd6KRLwV++N7ojysVgekMPzIX2TqAV0ZUntUWsHBZ0Z6GtzjNxJsrn5cY4O583oVEK349SSQRzB5OK3Qib/STCXroIqBXrT88DCltEMjDlJrEej1SPdcVPn4swikjr8LkaOBwYdb5ny1zzjwGuFCs2wiDopWLZF7m5OorppzXdoFmy0YnA5c8iInew/K+bG8yNDMb/Duh/mpp+wq/U7BaLVFoGHtGO8EX/kYqlWs3L5KOksvqHVHjmKVHOCOuVhLArHgeyDdZamCSIlTdbGYcJ6SlppqY7xdQX73Y0ROgz2Sj6dIqUw1WzPuI4SMffCpZAO3at6DQHYO54d3gn0AcTtBQdbnZAKNwAfPY88PQ5wOf3SqXgUPCb5aZfNAOYdIuU4m6yva0ZWOzQ/KXFPPUxefWikA4RgUwxdCmwnK2do77vDvYOrZYmPQWNPQRnTAcGjVb+5RYRkt7z75KSZuhm4iUs+cCz1Wzl64Hlb6nvo9OA/5kJJHUswOiWlHypHG9Ur0GHQj9fznOojXu4gM6TcrOzFbHT4TZS7I7yBn5vf0mxSfSjoiNNKxe9xXEhDQWbG74GA7pGddaVwY1wg82hL9DewsUlu8W62inWphbat61E6+ZFwJovgGXvAF89C7x+HXDXMOCRk4FPbxcLequaq7y/fA5Y9tOHiNX5tNpf6471ywqlcL88USJAcVrIHom2vt7Nw7SLJWvvd6yaHsIkrHc9t9YEr6O5Xn0/9Exg8vXuXYOBtv5jgOMcfGJvnYPInT9pETdoZ8tK0sFrOPp0tWXgKcOk8oziLBMtTkNp8zdqf/dhAIWUjoaM4tPUZENVjcMqVzfhNL36ho5mP0W0b26+MsjmK46DdMEkmP3M3dFzuRDqNJcCL1wMzJh4IIQ/cSoinxaR+uelwExpun9yhzTVxaqrEVFul4JKy1AXZg6utcsB9sNyUOwU+byxL7YraC3/9Qfg9u87wh/fQkSs94M5GDxJtZx1SpZpb9yERuYYyY9Iz0fSI3jdE38l1294cJlPXz+pvvcEnuOC+93PSyOJGcCEP5srClaohZu1yKFPWnKKiF+HAFFUN+/cpsU8o6isRPm+DkX1yEGDtZhvBHMHcmc4m8N98PRBHy5EiMpGiOVmCnIsTMzicCmYLOd60EmVAjruj2i/WprOD4oFfu5tIgyZ8hnjh7qBn806Asjs0xFSe8tx724XLYKw9IFmC7pKj7gBPxqXChzjwyqurCOBXg5bf21f6tlgIdMx5jdARme/vW4h+dB2ykXy9BlWNXL+7sI3tcihDxd7GDdXpagWlZSYlmm7A7s36MzeSFpKCmKiXMzqOtjw4HENJJZA+5uq7eDKtvChE7wXkkAQL9a3sdB50p1GI2nirXKO7gfkXBKXDOT3M1uvDU1QlsG7jTz83IzXByIyJA1Jhjm6NMSXvKG+PwzgDit9euebnODTWqUvZ09g10ZNba1S+ev4Y/aGjquZFD2JL9MRvcUS6K6IFEFyFSLY1JfCyXJuFB27WNfL3wEeGgu8dZPq8CYUiJBbHeXl7Y6Sgjl4nBbxEo6MHy3WqymvRKC58MRdIiQd2YO0iA/kHK290eA4gbeLdw5CstMzxZLuEEBa0WUV5VrMPQrLzItTKPi++H4ONZqbgz9jwxmWQLuCCypunwM8sMp5uGsRcONXwK9eFqvuMiA2U/0em+HM1aYSYMFrwN2DgbVfK//qUTjo4k2/LemVDfQ7Tot4CbtnCkQYIw1mPAWaHt3cQfLVHp8Me5ofNgrNk3vr2MOzf6P25tAnKTEJCYblzMp0OQ+9tXF6nXEgj+/pq9lfGM9NOPWt3WHj2MMBcy5YdEDrgH3HXGnmLOQMAYaMl6b/VcA1L4hgLwSueAVINTTjqYfM4TeuA9Z9qxw6KEmW6/WHD96UdCirRXWYT1wE4w5sqQyUVokfZgi0p8m9o9Wsw/skzfXDCeP+e7SEKyorUePEQZEzOD2S3Rs6FPj+BX3VwWA/4WwmRSA2GXCG4xxsnV6Ki+DgEloCrVSQkqRoEYT4ARIGmkOvXPm3ZFKoVaR0YZmeD5x4JXDzbCC3oCONzGEumHnpEqDGP85pPIEPj3Heq1dwubs7y+W7gxWe3tIgfAaL3JxBIZcQduTpTh9cTwlPlbJkfAZ5yqoQ6YoKEqnJyaa8ZBnZXbjXrbKyt6jQNKhIa3dQn/5azD842zWl2cOBTG9pbml2mg/BctZkJLQEmj5y6Sfi7vnAfQskiFV6IEj87u+BXz0n1lzoDSAcIEsqlj98pVYwRjgNb/lHWiRAtNqAir3SXF8HrJf8WiVW+7dvwz7nNWDpLHkKvbRA4hOlpPjBOuol1jMrWCOlG7Q33cCS6q9B1wSpJByNJDr2OoxIiEtAYkKH4FBkC0tLTFtMOYPW5a79e0wCRidMcXGBH0Bra3Nu2fobZysGObjaEwOXoSPQvN9DxwNn3yEPYj+56/IwxyUZQrJU+2KljrsCOG+G2uQNVTLFmjjjj5JGyV69HNOb29L30aZsFusjfDhsIvi0Prki8KP7gecvBR6eAjx6KvDYJIlPBl44G2HvXofwD24GvpDPeNP0YD6za8IfUOSjHaZh2dzsWuDDwZko/oADlsb6hoZkq3eLNQ5WOM83MzXd1JxvaKgXy1gq+S5osjWhuKTEZH0nJyUh0sXyaG9hd4KjFdvSFpyBO2cWNHdz6QlCy4KeOA2ddsxwxmm/d8sHQ48yUdJYYPbohe0LEVG0RYt4SZVYyF88D/zjbGCGiPGL5wNzHxWL+VOgZKlYgvL/FhEb3llqoR586aGI9n3p7gHoYdBIrZs7THN3Fn9ZMEyD8VTMqyZtteRhxICCfqbBuFaxUGvr67SYc0ory03focDnZeX6pevJSK/YXp36go1OmQIJ53g7/nZkD7XaQ0eg6baUCzLcgZZYUgjNMXYGb+iY87SIwPLL3F7wLyXqMdtXAm/fAtx9BDBLKrJdS0SIK9Rz6neRZUoPtHxpcOjBl/EVTm/zF44rtFrdnT3gRwGgwDi6ye1in8FDFVq+yYkdi1ZoNW7Y1vWYQEl5mUmM6bciO8MwruAnejnx/eyvHWC6g+5GHSsc4+KeYBJCAi2iG94ztVTAGDBOxNIgBGwl7RYrt8WDgsaR648fBp4+DVj4iqpTzCa+shWmtEjlN9KGA0OnAqN+BZw9HTjzTuCCx4Hr3gOufx+4+Gl+0Dva/Chejo55IlO1N93Q6sfmLadr2R0GnOh57zAkz+BYn6JUVl6udGM4o0XuQakItA4FnXv1RQdg9aCxf1wnWIOE3MLLcZpfTwwQktAR6EOR3CHy4BusT4pqpVi9jW72u1LIv3xC7cLgnGF+n4EWcngMMOJStP/mLeAeEf2HFgM3ihj/biZw3j3A+feJSN8IjBbRHnkuMPgkVdC9odWPPggcXb/GGpZdd4lcv9+2HZKMMOo98zPG3XQcWqQlp5pWFRLO0nDsgyXVNTVoaOyorCli3HzW390bhA6XOPBoTEe7vR3lVfL8BJhqbvxrgPkTH4RBUGdYAh1I2G864jxVAHSaK9VdPrqDBfOju4BZ94soG6xOvs07EXhwk1jHbyB83EVAjhv+pYm3RmiT71v/H6DZYXQ3zs3FDW2SHzY/WVDNkonGvKAGRPeMhdTTcLqdUXy4IKSwtMipQG/auc0kxhHhYYpAB4p+eQXaOxXue1heGXjPg1UOPrKZJ+nJPbNKMnQEmhuitnlgIXG7o1CHvpCHTlEFQMdWDRS7sayYrk6XfaD0XhxAdKX99GnArR8ByR74QibV0jTt/Mw5J9wwB5XdMl2PG7lPjaSBu+YYyXLlNlTub7vhHlOb/eUwvWqXel1G4n3bQ+9ghd0TdLBvHBSrravrNEjG2R1lhu4N0qtXHOID6J+CO5FH0EWBBisHVh7dTQX0Ba6QtBmWebOi4jTCeD/4uPaG0BFoOqkvdnOXD7oirN6qRUIbex96cTM0n7n91o5uXH3Sevn07yKMBsuVZXLIxQj/xXQRE89msLCQ2asL1e4Rd0h2WArNJp8/3D/Wl4jQGqaz8TdyHfxi6HDlonFMgiW1ys1l4d1Rvk3Or70nbJWkh/igcwA5atBgk2VMR0jVdeZuuPrGRrQYxg8o4H3FwnXsq/UnSfGJpv5tprG4tDRgbj/5nGza0VlX2Erw9zRCdwkhC1rC18+jW/eTdKQ/+ymgwV9mXWCx5wyVduRALSbwOVj1X/W9K4o3y2dmma285P7A1Y/IMS8HZLZ8bZ5a1hV5x5kFur5YKoiOh9NrCkVgjRY0/XOkuphjTZ/Yxm26JN/sG79y2vT2mL3rOlvQSSE+bTOA0AWpcRcUCuGmHebpoIUlRSYRj4mJRl52rhYLDJx77DhYyDR46tjJXTjFkIOkxkqHFvygvg6LzoJI6Ag0U7J5nrq1P1fC1Yj1WCs3Qg9sHpeIcH32GDDn/s4PWIii3OxMB4EuLpJrct2va9+1Wv2cDjVpwIlAinfN8DCp1ML2i9VoPGdXpEtlYCwZ1SLQvu7rSIHfMMcs/FxVmO6i8LN7KEH+r3+e93vzYtj9UVE4ttSYL7394CXvIIWr5Ggl6pUfRbCiogKN2hZPnL2xp3CfqXJMpsOluMA2++nbg573jIOYfJ72FO3r1AXjD4q5AYGDAcD52IHsxumO0BFoQif4K94GHh0HPHmmhLPMYcYE4IsH/dPcDiY5BoEmtGR3rVTfO6NSBNFYAVGThoyVJ8fL21UmlmuJB97assQy4uawOjapHPf7uLkqVz6ulwrY2LUQJRZyehdz3weeoHbtaITZ6hFeuVeLeQm3tyrZpEUEPo+ZBVL5GTYTOMygIDtu9NrQ1ITyKnVArr6hUemXNlrQWSKcwaBP7wLExZn9cpRJ5VFc7seBa4F97Ju2bzVVQqwE8nN6O91dJViElkATClN7s7pJaJmIgh7K10ouVqv/d9cSDBXyh6kiq0OR2ud6JkdYu8M8VH4317AjtSfQP8eXz4gZ5MFSZlrq8QbhtNUBaxaImPlgtXBZer1hi38+Byk5ULahcsXoy6UsaO9JW737zpWcwfQv+1DUx+C0iuk45Vb1/WEMBTfKsMqTMxc455mCtWOPeVCbFm2wBJpLvgcUdB4fWLF2VbfL0t2FQrxZxJnzn/VKiNfNbhx2bxgrpmATegJ9KMI+XeMMMeZ6ySr1vVMc+m8YbfJgaygjy2cBC1/3rFKLTRCr3zBLhOn9+nERWA9E3pHlIozNhnEDDpRzh3Na0a7IHABkSOtDN2q4uGSJDw6nOG7xyb1aRCNOWgvHTtEiQcTe1mn+cU8SEx2N/Ow8kwVJK5XiVVFTZeqXjRPRDObKun55fRFpmM1BbDYbtux0c1JBN3D5+tZdO0zXSFEe3H8QYmO6KJ9O2L1/j8vAGSJllRXKakxH6Oq1uKxzq8B81RaBITEFKDiyQ2goloVdzIWOdSj8vEu7PNgBW2fLQuCj6SKCYjl6ItDs/z3yTFVECb/bLuK27D017ikbvge+f9Gchgyx0kderEVckJQGHD1Ji2isegPY9IMW8ZAV70tFJ812PR28H32kdZOWr8YDiePgbslaRLB1E0IU9O5tshY5m4Mbw9bVdVSsFPCB/QYoS7yDBae5DRk42FR5kA1bN2Pdlo2djrsLv1dUWowFy5eY+p55nIOmnKXiCazM7FK4eCaGXfv3KYt79DgLXlFZMVZvXNupD/2n9auxYZuh603DEuhgwGlxBRPNzfUK7l1osCiNpIlV59glsm6e2l3hLtuWAs9dCtR52Wd74mXyZMirXm5ZUubPlPN5OILONH8oVqtdXvVnn4bj+Buk/erGINOIc+XzmhgoFYWED//m+aDl/vXAZzPMJZ6nmHSTOmMk0MRIZhrv6c416uB3CJEYn9hJeJf8vMI075gzK/KycrRY8Dii30Dk55oHyWnxbtq2BQt+WqJ4oPMECuQ2sZoXr1zWSeBZSZ006gTERntWLpievr3zJRQoISk+ATlZ2QfiWekZykrMRGl9lBpmolRUVyrTCTlY64gl0MGAg3tDRplzu2YPUO3iAe1zrFnMyZ4VwOwHRVS68YtRVQR8LkL0z1+KsMn5dVGMF9GP7OyAxiVJGSJeD4iwGhJdvBqYeb37XR0NNcB/bpbWwvKOdPBZ6JUB+xipPNzAPvAE2LOHduQHz7Nf8uKb5+T6jIrXBdxv8A1JR63BKT/TMfZytB91Gp9I9VggSchWK1rCn4uWC/rWg2sIAuzmSE5K1mIqjuLFjVO5ZVawofgdPehISWOUKU18V1hcjPlLFmLd1o0ifGVoaWlRNsI1wu/wGFsFu/btwQ/LF2Pl+jVyzHx9ZOjgIcoMFV/7nh3zjtjt7UhLScWOvbuU/zOUlperDqec/J4l0MFimDTVjQsvWDCWu+gySJOm1ahLVEvzAGIhfPkk8KIIW40TF52cmvjpY8Dt/cVSFAuzUYRav982sQQuf15EwcPpQhOukafW0BfNvvCNs4HXrurekq6pAF65Alj0pkQMtU2YpOWWzxHGHWjcIKxXEsJ+97/y24ZuH1rj/xWr/OO7tQNdsHUx8NgUqeAWqOnXCUsFLnzQ1O8YUOid7djTO7KCafnx32o3VIjAvODyasfmtxFOe+sp2O99xoRJiI0xdxcx3fRAt2HLZny76Ed8PPdzfL3weyz8aSk279iGNZs2YP7SBfj8u7mY/e0cLFu9UplL7ezesxIYMuAILdYBpxxynjQt333Fhdi2e8eBaYieQsu6urbmgFvTsspylzuiWwIdLGLEMokxLIbgA7r8/9T3zph6h1i9Dg8Dv7NlHvDQSSI68rC/IFbyU+cAD4wDnjhDLOf75DfkM8a7GiM3/spngNwjReM9awYiMR24YJqcL0E1VQhFf+Mc4BGpcD75K7D9Z2kJSIXB5nqlVAqbRQg/EvF86ERJ69wOUeT3Gc4SUe07TDnkNgViQXM7MaOxyev89kXg0Yny+pJY99vUdNRIOvi6WiqSN26VCu0CqUzEcjbmCQcGf/MskOrdvHKvYL/+hBsl/wzi0loFvCz38MPpYgZuVCveWqnYmP6yvcCar4Blb2kfDg65WTkup5VxUNOfG8N6A3c1OfG44xUfIo4WKi1ezj6h8HJa4L6iQqzasBYbt21WrFTu1M3/u7KM2cVQWVOFBSuWiEW+APMWzlcE/TMJ8xbMF/H/Hj8uX4TFK5djxZpVqKz2btCc6WP/dkV1FZqabXItKUq6nGEotr6Z8xbdwH7OZMN0IWZ3sVi9dQ6+KXTyjhKrWyw/+qMwlkPesQZ5eHf/CGz4RATyG6BkpYivCJPxHvM7zfKb54s1TUvYm6qYXTMT/gBM+ZNEpH2up4O/U70JmPM4MGMscI9YHH8/WV7Fen9iMjD3CUmjiKJepJTvyffPEOE+RwTfGy56APYjpBJqlzQdyA9pYuxdCrz/Z+CvIvoP9AMeHg9Ml3x+7mIRt5clDyR/9Wvn96Q1Yb9MxHlUNwOUgWC43M/80R3pZ/60SPrmPSVpPg64d4hUOJJ/98nrnZKnz/5CrOz31c8GCYpzTmZ2J/FjnANn6dI872kyUtMxfvRY9M6S1p2WTMf0EgqhMXRHm1izhSXFKCotUWZbcICvyWZTZoxwG6yW1jaxeA2/44Nk5mRkK1Y/XbsmdzEjpiPV/SaYWqKHDNwNxI2bE3BYQ2b1MecxZ0mUuxjEozj+8h/AZE0cPYGWZsEJwB1fAyeLOPvKmbcBv30TSBABdiwjNLY4/a16p1pgaSAas5vdNBnHAFe9Dpz9F/WYN8TGw37TO5IWscDZTWJ8Hvl7UXLAJqFOmx1DC1uHn2XjYaC0NKZLC2SEtDp6il8/CWSLGBtbA0w/e5/od7tyg5QLeeVwAa+hB4pudqa03Iz5q5GXnYMYDwfOAkWUVCTjRp2ACSeMQ5/eeUrftDKLwolQhyKJUtnVikBv37MLKWJBu6Lj9p8lVkjvMXJEPnyohJg0aRpPlbvpxuAYd602fZ9PjD+fDlGvgWLdtbO7QAvsOijvwgGQiJJiAf/iUaBXunxH1JACyTKol0P9vSKc8v84ebg4v/gWaeIP5MCkZlbT0U1kL+3aJHADV3eh9T/yAuDWWUAfEbkI+S4HD41pYVYZ02KX/GT+H38tMG0ucMIlch4v/YhohEdL+qdOl3R8AaSLtRwm+UeM6WAlYUwHl5Mn5IkwitV8w2diiIx22cR1STgreS3fInnffCgXfUag9fYvgdEXSmXGfJS06OklPLXxGtyAH4uMjFSui0GZieHhJRpJTkwWAVS7AvRAnxT9nSwY8Qg5Dy1Z43l9JTMtHccfOxKnn3wqThp9AtJSUxEbGystgUiEG37H30HJ724yWbXazZ8Jl+eR3+f/WJfU1NYqS8nb2lq1z5sJa2xs7CgG7Ed01eQ+GJFaFanycOoi1RX0/VFvWAxCC5ZLgCM8tF67ol7ydt9G8z3LlEKfkqtFuqBiH7BzGbBnHbB/LVC2WV2ynJAh1zhAzB5p4h9zCjBAKll6o3O8Zm5WWy7n0OFAUF7nwZBuabWhrXgnInYzLZKOnYtVL3P0LRInzd/0QUBfScOA0WjvOxrhWSKkgYBOtZiX+1YBW5cAhaslDUWSx2WSH9JSyRgiYiytiAEjpTUxXPJEmsPyYHhFVbH8njYlkudIlXPF+OiHgk6/CuUeco74pm/lOiQ/G6R8tNJ6TpYKVPIyRcrfUVO6bHnQYuQKOM5c0GF/Jn08Uwi8gZZoXX2dIiA6PFVCfIJTEXEHprOuoR7thp25o+X5pK8Lf8PuCE67UyxqJ7M0/AUrAs58cQUHESNEP4x9+pxFwjhbAJxyx5kl3K2lVQSaey4yj3V4frNAW1hYWFiEBBRo76pDCwsLC4uAYwm0hYWFRYhiCbSFhYVFiGIJtIWFhUWIYgm0hYWFRYhiCbSFhYVFiGIJtIWFhUWIYgm0hYWFRUgC/D9/9Y6EzpEpYwAAAABJRU5ErkJggg==;" vertex="1" parent="1">
          <mxGeometry x="362.17" y="653.62" width="110.67" height="22.75" as="geometry" />
        </mxCell>
      </root>
    </mxGraphModel>
  </diagram>
</mxfile>
